<?xml version="1.0" encoding="UTF-8"?>
<svg version="1.1" xmlns="http://www.w3.org/2000/svg" width="3169" height="2502">
<path d="M0 0 C1045.77 0 2091.54 0 3169 0 C3169 825.66 3169 1651.32 3169 2502 C2123.23 2502 1077.46 2502 0 2502 C0 1676.34 0 850.68 0 0 Z " fill="#14181A" transform="translate(0,0)"/>
<path d="M0 0 C1041.15 0 2082.3 0 3155 0 C3155 298.32 3155 596.64 3155 904 C3159.62 904 3164.24 904 3169 904 C3169 942.28 3169 980.56 3169 1020 C2123.23 1020 1077.46 1020 0 1020 C0 683.4 0 346.8 0 0 Z " fill="#1D1C1A" transform="translate(0,1482)"/>
<path d="M0 0 C334.29 0 668.58 0 1013 0 C1013 350.46 1013 700.92 1013 1062 C678.71 1062 344.42 1062 0 1062 C0 711.54 0 361.08 0 0 Z " fill="#70513F" transform="translate(0,0)"/>
<path d="M0 0 C208.23 0 416.46 0 631 0 C631 102.96 631 205.92 631 312 C771.25 312 911.5 312 1056 312 C1056 321.9 1056 331.8 1056 342 C915.75 342 775.5 342 631 342 C631 457.17 631 572.34 631 691 C771.25 691 911.5 691 1056 691 C1056 700.57 1056 710.14 1056 720 C915.75 720 775.5 720 631 720 C631 823.95 631 927.9 631 1035 C771.25 1035 911.5 1035 1056 1035 C1056 1043.91 1056 1052.82 1056 1062 C707.52 1062 359.04 1062 0 1062 C0 711.54 0 361.08 0 0 Z " fill="#303334" transform="translate(2099,0)"/>
<path d="M0 0 C21.12 0 42.24 0 64 0 C64 2.64 64 5.28 64 8 C470.89 8 877.78 8 1297 8 C1297 5.36 1297 2.72 1297 0 C1319.44 0 1341.88 0 1365 0 C1365 2.64 1365 5.28 1365 8 C1693.68 8 2022.36 8 2361 8 C2361 10.31 2361 12.62 2361 15 C2365.62 15 2370.24 15 2375 15 C2375 53.28 2375 91.56 2375 131 C1329.23 131 283.46 131 -794 131 C-794 90.41 -794 49.82 -794 8 C-531.98 8 -269.96 8 0 8 C0 5.36 0 2.72 0 0 Z " fill="#221005" transform="translate(794,2371)"/>
<path d="M0 0 C1041.15 0 2082.3 0 3155 0 C3155 24.75 3155 49.5 3155 75 C3145.38154805 75 3136.05716899 74.95660972 3126.515625 74.23046875 C3125.39203583 74.1497966 3124.26844666 74.06912445 3123.11080933 73.98600769 C3119.49014267 73.72501096 3115.87009752 73.45626436 3112.25 73.1875 C3109.71342483 73.00343502 3107.17680301 72.82001198 3104.64013672 72.63720703 C3100.79300589 72.35985382 3096.94591126 72.08207482 3093.09896851 71.80212402 C3081.44353956 70.95419759 3069.78488958 70.15875023 3058.125 69.375 C3045.39397672 68.51717755 3032.66918189 67.60888586 3019.94677734 66.63061523 C3011.99032515 66.0348053 3004.03267069 65.62633798 2996.05908203 65.34130859 C2995.23005371 65.3098877 2994.40102539 65.2784668 2993.546875 65.24609375 C2992.47711426 65.21020142 2992.47711426 65.21020142 2991.38574219 65.17358398 C2989 65 2989 65 2985.92456055 64.49291992 C2980.81973312 63.85175995 2975.7997404 63.85711092 2970.66015625 63.8671875 C2969.57923203 63.86623077 2968.4983078 63.86527405 2967.3846283 63.86428833 C2965.10610902 63.86360998 2962.82758779 63.86544016 2960.54907227 63.86962891 C2957.07759215 63.87497675 2953.60624172 63.86967484 2950.13476562 63.86328125 C2947.91406222 63.86394219 2945.69335889 63.86522369 2943.47265625 63.8671875 C2942.44221695 63.86516327 2941.41177765 63.86313904 2940.35011292 63.86105347 C2935.54604839 63.87653984 2930.92162 64.05540569 2926.15605164 64.73733521 C2921.26222757 65.33353396 2916.319764 65.47192699 2911.3984375 65.71875 C2908.94531193 65.84764539 2906.49218695 65.97655197 2904.0390625 66.10546875 C2900.19666236 66.30384016 2896.35420534 66.50106444 2892.51171875 66.69775391 C2888.78630632 66.88944711 2885.06112293 67.0852025 2881.3359375 67.28125 C2879.61544693 67.3672345 2879.61544693 67.3672345 2877.86019897 67.45495605 C2876.78533234 67.51171509 2875.7104657 67.56847412 2874.60302734 67.62695312 C2873.66341156 67.67501099 2872.72379578 67.72306885 2871.75570679 67.77258301 C2868.79702544 68.01675064 2865.92691901 68.50875351 2863 69 C2861.15840551 69.16609276 2859.31412615 69.30435236 2857.46850586 69.41723633 C2856.39656479 69.48449921 2855.32462372 69.55176208 2854.22019958 69.62106323 C2853.06343216 69.69068268 2851.90666473 69.76030212 2850.71484375 69.83203125 C2848.18554276 69.99008717 2845.65624607 70.14821195 2843.12695312 70.30639648 C2841.78068679 70.38958 2840.43441389 70.47265731 2839.08813477 70.55563354 C2832.00472159 70.99296708 2824.92219589 71.44428103 2817.83984375 71.8984375 C2817.12151745 71.94447302 2816.40319115 71.99050854 2815.66309738 72.03793907 C2801.05557477 72.97663584 2786.46008176 74.05156019 2771.86599731 75.17977905 C2757.84858055 76.26336248 2743.82918098 77.30570617 2729.8046875 78.29296875 C2728.2213736 78.40466539 2726.63806061 78.51637499 2725.05474854 78.62809753 C2718.80833254 79.06846578 2712.56190952 79.50865485 2706.31494141 79.94113159 C2691.75918903 80.94908773 2677.22373637 81.97639534 2662.72119141 83.60253906 C2658.06629679 84.09972896 2653.4266648 84.38975833 2648.75 84.5625 C2643.42340448 84.77430202 2638.28298447 85.23848873 2633 86 C2630.24831659 86.17130045 2627.50364382 86.31777636 2624.75 86.4375 C2618.3029075 86.75264371 2611.91370739 87.27612764 2605.5 88 C2599.37579389 88.68830236 2593.28074517 89.20489413 2587.125 89.5 C2577.04760442 89.99350615 2567.03714801 90.99319209 2557 92 C2551.72957972 92.52509466 2546.45873949 93.04571181 2541.1875 93.5625 C2540.51039978 93.62918884 2539.83329956 93.69587769 2539.13568115 93.7645874 C2531.90526106 94.47450686 2524.69360802 95.13420855 2517.4375 95.5 C2510.96287039 95.86010176 2504.55613593 96.56292803 2498.125 97.375 C2497.15361084 97.48908203 2496.18222168 97.60316406 2495.18139648 97.72070312 C2494.27848877 97.84123047 2493.37558105 97.96175781 2492.4453125 98.0859375 C2491.63594238 98.1895459 2490.82657227 98.2931543 2489.99267578 98.39990234 C2487.61699621 98.88468925 2487.61699621 98.88468925 2486 102 C2485.6303565 105.10208984 2485.6303565 105.10208984 2485.5859375 108.63671875 C2485.52792969 110.58481445 2485.52792969 110.58481445 2485.46875 112.57226562 C2485.43729483 113.94400573 2485.40604749 115.31575061 2485.375 116.6875 C2485.33680803 118.07098785 2485.29775558 119.45445223 2485.2578125 120.83789062 C2485.16339483 124.2251245 2485.07781882 127.61235069 2485 131 C2484.37456299 131.23807373 2483.74912598 131.47614746 2483.10473633 131.72143555 C2479.73697288 133.76725125 2479.56764012 136.53328258 2478.60302734 140.19384766 C2477.63880334 144.68080747 2477.13988961 149.11272056 2476.8125 153.6875 C2476.69406738 155.33407593 2476.69406738 155.33407593 2476.57324219 157.01391602 C2474.5109469 190.45479301 2476.08076737 224.15401604 2477.33358765 257.59336853 C2477.4205274 259.92225636 2477.50473122 262.25124805 2477.58609009 264.58033752 C2477.80023366 270.53281931 2478.08162388 276.47190005 2478.46533203 282.41601562 C2478.53434219 283.62759338 2478.60335236 284.83917114 2478.67445374 286.08746338 C2478.80633197 288.37936313 2478.95927183 290.67019451 2479.13792419 292.95892334 C2479.49637164 299.6446335 2478.63971197 304.0102918 2475.2353363 309.81289673 C2473.22011211 313.38075385 2472.38470077 317.15169175 2471.5 321.125 C2471.29769775 322.01348633 2471.09539551 322.90197266 2470.88696289 323.81738281 C2462.54952115 361.92589014 2459.98493357 401.13367956 2458 440 C2449.75927747 440.65468553 2441.51835922 441.30682749 2433.27718163 441.95575714 C2429.45015041 442.25718623 2425.62319153 442.55947851 2421.79638672 442.86376953 C2418.10072203 443.15760047 2414.40488224 443.44912993 2410.7089119 443.73908997 C2409.3015157 443.84990637 2407.89418363 443.96154053 2406.4869194 444.07402039 C2404.51017068 444.23187504 2402.5331654 444.38650683 2400.55615234 444.54101562 C2398.87070816 444.67425232 2398.87070816 444.67425232 2397.1512146 444.81018066 C2394.09181213 444.99446952 2391.06406824 445.03393409 2388 445 C2387.93006836 444.06881348 2387.86013672 443.13762695 2387.78808594 442.17822266 C2384.58535964 382.03572743 2384.58535964 382.03572743 2373.625 323.0625 C2371.01149082 312.86036776 2372.11000156 302.56515924 2372.79443359 292.1484375 C2373.08452635 287.70540169 2373.29915766 283.26033902 2373.5 278.8125 C2373.54012207 277.93207031 2373.58024414 277.05164062 2373.62158203 276.14453125 C2374.80151798 249.30677251 2375.12165564 222.46725411 2375.18122482 195.60665512 C2375.18742287 193.4024314 2375.19731348 191.19825377 2375.20828247 188.99404907 C2375.97937614 163.26560885 2375.97937614 163.26560885 2372.47108459 137.95317078 C2371.77096405 135.05039066 2371.9469564 132.27270107 2372.0078125 129.29296875 C2372.02457031 127.98392578 2372.04132812 126.67488281 2372.05859375 125.32617188 C2372.08944891 123.25912125 2372.12488765 121.19249351 2372.17138672 119.12573242 C2372.88051658 108.44866698 2372.88051658 108.44866698 2369 99 C2365.96406941 97.72897845 2362.94841306 97.55116445 2359.6875 97.3125 C2358.64956299 97.2098584 2357.61162598 97.1072168 2356.54223633 97.00146484 C2353.4186973 96.70210651 2350.29391801 96.43618052 2347.16650391 96.18109131 C2344.05086413 95.92066469 2340.93777456 95.63391673 2337.8243103 95.34881592 C2328.13976943 94.46273582 2318.45088057 93.63345142 2308.75985718 92.82171631 C2301.20581288 92.18838514 2293.65344272 91.53749411 2286.1015625 90.87890625 C2247.09428719 87.49102848 2208.05777546 84.50773684 2169.01725197 81.53291321 C2155.68710726 80.51686164 2142.35843905 79.48378556 2129.03125 78.4296875 C2069.11026903 73.69376419 2009.16385912 68.96126896 1949.1328125 65.84887695 C1947.63964005 65.77040024 1947.63964005 65.77040024 1946.11630249 65.69033813 C1944.31244548 65.59631241 1942.5084382 65.50509835 1940.70425415 65.41757202 C1937.24956091 65.23876023 1933.90119192 64.98551508 1930.47436523 64.4831543 C1926.33749158 63.90786985 1922.29277808 63.78183051 1918.12109375 63.7265625 C1917.23251678 63.71426102 1916.34393982 63.70195953 1915.42843628 63.68928528 C1912.43142521 63.65653463 1909.43466009 63.63811956 1906.4375 63.625 C1905.39451752 63.61977325 1904.35153503 63.61454651 1903.27694702 63.60916138 C1880.56626808 63.55802601 1857.96404478 64.93980556 1835.3125 66.4375 C1834.43636425 66.49518806 1833.5602285 66.55287613 1832.65754318 66.61231232 C1826.76709515 67.00119237 1820.8774376 67.40063851 1814.98828125 67.80859375 C1814.22086483 67.86132761 1813.45344841 67.91406147 1812.66277695 67.96839333 C1810.49541784 68.11841024 1808.32836538 68.2722203 1806.16137695 68.42749023 C1804.94206985 68.51409409 1803.72276276 68.60069794 1802.46650696 68.68992615 C1798.95286378 69.00421626 1795.48915214 69.48463086 1792 70 C1789.80655504 70.17945767 1787.61092779 70.33373791 1785.4140625 70.46484375 C1783.54210205 70.58001343 1783.54210205 70.58001343 1781.63232422 70.69750977 C1780.65244537 70.75613693 1780.65244537 70.75613693 1779.652771 70.81594849 C1769.0497429 71.45153018 1758.46011553 72.17210843 1747.875 73.0625 C1740.64625953 73.6671207 1733.43558595 74.15095448 1726.1875 74.4375 C1716.71696468 74.83083054 1707.29198832 75.61489668 1697.85070801 76.43719482 C1685.90632876 77.47252265 1673.95443332 78.38166311 1661.99609375 79.23828125 C1661.2407497 79.29246845 1660.48540565 79.34665565 1659.70717239 79.40248489 C1652.76171446 79.90041474 1645.81610562 80.39616298 1638.86987305 80.88317871 C1617.82555123 82.3052842 1617.82555123 82.3052842 1596.83738708 84.36903381 C1591.16553389 85.02754725 1585.50705423 85.33483609 1579.80722046 85.60813904 C1574.43363174 85.88079662 1569.10691964 86.36395483 1563.7578125 86.9375 C1552.23256484 88.13036573 1540.68843322 88.91392201 1529.12817383 89.67724609 C1519.69778629 90.30416376 1510.3202804 91.01375716 1500.94090271 92.19042969 C1494.15912689 93.02267013 1487.36093588 93.62426284 1480.5546875 94.21875 C1479.36419296 94.32336548 1478.17369843 94.42798096 1476.9471283 94.5357666 C1471.99606731 94.96939811 1467.04479112 95.40017662 1462.09277344 95.82275391 C1458.43368511 96.13615905 1454.77542472 96.45808205 1451.1171875 96.78125 C1450.00358856 96.87402222 1448.88998962 96.96679443 1447.74264526 97.06237793 C1442.27969735 97.55080721 1437.15722197 98.07176453 1432 100 C1430.58120052 102.83759896 1430.87229946 105.26430161 1430.859375 108.43359375 C1430.83037109 110.3662207 1430.83037109 110.3662207 1430.80078125 112.33789062 C1430.77177758 114.3900234 1430.74999916 116.44105692 1430.74951172 118.4934082 C1430.74618081 120.47363636 1430.70947381 122.45371977 1430.671875 124.43359375 C1430.6625293 125.62009521 1430.65318359 126.80659668 1430.64355469 128.02905273 C1430.43118164 129.00946533 1430.21880859 129.98987793 1430 131 C1428.3402514 132.01144074 1426.67311997 133.01083503 1425 134 C1422.85825654 139.32028927 1422.39163654 144.9176495 1421.890625 150.58984375 C1421.76448822 152.01453224 1421.76448822 152.01453224 1421.63580322 153.46800232 C1420.6504395 165.81268113 1420.69310357 178.17166144 1420.74285889 190.54789352 C1420.75010602 192.59241044 1420.75326204 194.63689872 1420.75537109 196.681427 C1420.78285531 218.22193898 1421.29276077 239.72264741 1422.28808594 261.24243164 C1422.76173485 271.54675842 1423.12128756 281.84040209 1423.19921875 292.15625 C1423.21376099 293.16167343 1423.22830322 294.16709686 1423.24328613 295.20298767 C1423.25511268 301.33836951 1422.51718039 305.59134803 1419.4296875 310.97265625 C1409.2354192 332.5588801 1409.11029841 361.66636618 1406.8125 385.1875 C1406.72773407 386.05405212 1406.64296814 386.92060425 1406.55563354 387.81341553 C1405.48491949 398.86614226 1404.61315493 409.91203453 1404 421 C1404.66 421.33 1405.32 421.66 1406 422 C1405.41436279 422.03314301 1404.82872559 422.06628601 1404.2253418 422.10043335 C1397.99294272 422.45378032 1391.76081402 422.81165348 1385.52880859 423.171875 C1383.21930155 423.30481466 1380.90973308 423.43669254 1378.60009766 423.56738281 C1366.44566634 424.25586912 1354.31417014 425.0235324 1342.1875 426.1015625 C1333.75737511 426.84998731 1325.46875276 427.26837597 1317 427 C1316.7327476 421.97277621 1316.46627671 416.94551172 1316.20043945 411.91821289 C1316.11046958 410.21865805 1316.02030932 408.51911328 1315.92993164 406.81958008 C1315.79779994 404.33417543 1315.66643815 401.84873091 1315.53515625 399.36328125 C1315.48990814 398.51511337 1315.44466003 397.6669455 1315.39804077 396.79307556 C1315.17211818 392.50606457 1314.96305192 388.2194032 1314.78955078 383.92993164 C1314.22224288 370.17693311 1313.08452645 356.5110252 1311.75 342.8125 C1311.64150726 341.68556732 1311.53301453 340.55863464 1311.42123413 339.39755249 C1310.02547434 324.99014891 1308.45606381 310.62914446 1306.3125 296.3125 C1306.21022095 295.6279776 1306.10794189 294.9434552 1306.00256348 294.2381897 C1305.13859092 288.52723343 1304.25025204 282.86008237 1302.8671875 277.25 C1301.73857741 272.38972247 1301.743623 267.65751932 1301.8125 262.6875 C1301.81314453 261.84638672 1301.81378906 261.00527344 1301.81445312 260.13867188 C1301.84333673 255.71948091 1301.97084542 251.3144702 1302.23144531 246.90307617 C1303.07113724 232.61691321 1303.15448224 218.35327158 1303.13037109 204.0456543 C1303.12466864 200.62163348 1303.12806825 197.19769029 1303.13380814 193.7736721 C1304.1914881 163.04418706 1304.1914881 163.04418706 1299 133 C1298.93948981 130.6778537 1298.9396398 128.3539499 1298.97265625 126.03125 C1298.98529941 124.64192954 1298.99766059 123.2526065 1299.00976562 121.86328125 C1299.03460976 119.67748927 1299.06262453 117.49183213 1299.09594727 115.30615234 C1299.12613908 113.1936761 1299.14391764 111.08137306 1299.16015625 108.96875 C1299.17699463 107.70482422 1299.19383301 106.44089844 1299.21118164 105.13867188 C1299.2504851 101.83667 1299.2504851 101.83667 1297 99 C1293.77826221 98.24745914 1293.77826221 98.24745914 1289.9375 97.92578125 C1289.22215088 97.84846268 1288.50680176 97.7711441 1287.76977539 97.69148254 C1286.26119506 97.52986216 1284.75196399 97.37421778 1283.2421875 97.22418213 C1281.14909711 97.01490728 1279.05903016 96.78774979 1276.96875 96.55224609 C1272.64859113 96.06946089 1268.32506372 95.62394714 1264 95.1875 C1263.18040802 95.1045166 1262.36081604 95.0215332 1261.51638794 94.93603516 C1241.39345295 92.91732667 1221.2294303 91.40250202 1201.06591797 89.85839844 C1198.30044868 89.64657624 1195.53498668 89.43465933 1192.76953125 89.22265625 C1192.09008202 89.17060406 1191.41063278 89.11855186 1190.71059418 89.06492233 C1178.00936929 88.09067325 1165.31604717 87.03582556 1152.625 85.9375 C1136.58727714 84.55275745 1120.54630322 83.21923116 1104.5 81.9375 C1103.54812805 81.86127411 1102.5962561 81.78504822 1101.61553955 81.70651245 C1066.85276645 78.92580835 1032.07776312 76.30786653 997.29520035 73.78768539 C995.20410228 73.63616347 993.11301513 73.48449094 991.02193832 73.33267593 C960.18455575 71.09424006 929.34469915 68.98947664 898.4753418 67.24243164 C896.04213094 67.10344703 893.60894318 66.96405731 891.17578125 66.82421875 C890.02737762 66.75867798 888.878974 66.69313721 887.69577026 66.62561035 C880.73972671 66.21236878 873.82252528 65.61761983 866.890625 64.9140625 C854.41668256 63.68541304 841.96244219 63.64979031 829.4375 63.6875 C828.23257904 63.68865814 827.02765808 63.68981628 825.78622437 63.69100952 C809.03606739 63.72263418 792.50082395 64.32949915 775.83345032 65.93153381 C775.10079453 66.00182297 774.36813873 66.07211212 773.61328125 66.14453125 C772.87277023 66.21582748 772.13225922 66.28712372 771.36930847 66.36058044 C760.26927696 67.39267879 749.12968944 67.89691535 738 68.5 C718.26416999 69.5849428 698.57637965 70.95628378 678.88525391 72.66357422 C673.09135044 73.16527077 667.2962941 73.65175027 661.5 74.125 C660.50484375 74.2062915 659.5096875 74.28758301 658.484375 74.37133789 C651.24237267 74.94425804 644.00265337 75.30645369 636.74487305 75.60595703 C629.47965242 75.92638967 622.26268783 76.56963846 615.02539062 77.26953125 C610.11959482 77.73741498 605.22533542 78.13884113 600.30273438 78.37695312 C599.48095703 78.41755859 598.65917969 78.45816406 597.8125 78.5 C597.1740213 78.53024765 596.5355426 78.5604953 595.87771606 78.59165955 C590.65867654 78.85925357 585.49552868 79.34800072 580.3046875 79.94140625 C570.60549276 81.00364842 560.89852729 81.66365576 551.1612854 82.26177979 C535.21535112 83.24536493 519.31381601 84.43622232 503.41577148 86.01098633 C495.07869514 86.83099958 486.76826938 87.44374527 478.3984375 87.7890625 C475.07043974 87.93534744 475.07043974 87.93534744 472.1015625 88.4921875 C467.30398875 89.27768446 462.48417017 89.38931915 457.6328125 89.60546875 C454.37117026 89.76470718 451.22486168 89.96252305 448 90.5 C443.23992511 91.29334582 438.4482936 91.39091761 433.6328125 91.60546875 C432.86710937 91.64285156 432.10140625 91.68023438 431.3125 91.71875 C430.62800781 91.74904297 429.94351562 91.77933594 429.23828125 91.81054688 C426.88244087 91.97878809 426.88244087 91.97878809 424.11035156 92.48852539 C421.03494423 92.99425368 418.03120429 93.26557155 414.921875 93.46484375 C413.76969482 93.54154297 412.61751465 93.61824219 411.43041992 93.69726562 C410.21588135 93.77654297 409.00134277 93.85582031 407.75 93.9375 C391.7366131 95.03341842 375.89431779 96.79636302 360 99 C358.1463492 102.97071514 357.70553295 106.24804742 357.5859375 110.61328125 C357.54726563 111.86044922 357.50859375 113.10761719 357.46875 114.39257812 C357.4378125 115.68615234 357.406875 116.97972656 357.375 118.3125 C357.33632813 119.62541016 357.29765625 120.93832031 357.2578125 122.29101562 C357.16366883 125.52720437 357.07803648 128.76338935 357 132 C355.68 132 354.36 132 353 132 C352.51054792 134.08094092 352.03411954 136.16494521 351.5625 138.25 C351.29566406 139.41015625 351.02882813 140.5703125 350.75390625 141.765625 C348.51851327 153.31702147 348.9221146 165.06922623 349.04709625 176.77428627 C349.0896827 181.01388126 349.11274017 185.25351852 349.13712692 189.49325085 C349.1825673 197.35726717 349.23566433 205.22103562 349.32226562 213.0847168 C349.38207408 218.58397106 349.41673675 224.0829077 349.43544769 229.58244896 C349.44708866 231.66064751 349.46773714 233.73881821 349.49808502 235.81682777 C349.67724349 248.39989624 348.66454953 258.28098998 344 270 C342.98973537 273.74459736 342.20840373 277.50007611 341.5 281.3125 C341.29842285 282.38604736 341.0968457 283.45959473 340.88916016 284.56567383 C332.51267566 331.47852184 330.72356035 379.52014026 328 427 C312.63843343 426.44485252 297.32593452 425.6150179 282 424.4375 C280.13414191 424.29716223 278.26825647 424.15718762 276.40234375 424.01757812 C271.93457241 423.68253073 267.46718963 423.34271237 263 423 C263.99 422.67 264.98 422.34 266 422 C265.4061522 412.73892304 264.8063463 403.47825412 264.19967937 394.21800804 C263.91790825 389.91438975 263.63791524 385.61067385 263.36254883 381.30664062 C261.62848992 354.23585496 259.74488641 327.18282526 255.74731445 300.33251953 C255.42627256 298.17453105 255.11588783 296.01517662 254.80664062 293.85546875 C253.9656101 288.0505694 253.10128438 282.27510732 251.859375 276.5390625 C250.91807966 272.0238676 250.73553633 267.72661748 250.8125 263.125 C250.8134668 262.08472656 250.8134668 262.08472656 250.81445312 261.0234375 C250.85122148 256.28440446 251.08202017 251.56988893 251.3651886 246.83953857 C252.18406326 232.65988302 252.15268918 218.47931156 252.13037109 204.28173828 C252.12466368 200.60656983 252.12806962 196.93147361 252.13380814 193.2563076 C252.70514103 162.36872075 252.70514103 162.36872075 248 132 C247.07058594 131.87882812 246.14117187 131.75765625 245.18359375 131.6328125 C243.32927734 131.38144531 243.32927734 131.38144531 241.4375 131.125 C239.61025391 130.88136719 239.61025391 130.88136719 237.74609375 130.6328125 C234 130 234 130 230.71801758 129.02075195 C227.03483955 128.00956492 223.55774001 127.4624052 219.765625 127.03515625 C219.09496506 126.95740463 218.42430511 126.87965302 217.73332214 126.79954529 C216.30847489 126.63454306 214.88335059 126.47191794 213.45797729 126.31152344 C209.71644291 125.88954004 205.97728508 125.44768355 202.23828125 125.00390625 C201.50758926 124.91730743 200.77689728 124.83070862 200.02406311 124.7414856 C194.80513207 124.11529876 189.61952671 123.37678149 184.4375 122.5 C176.32001247 121.13690616 168.1698254 120.12008799 160 119.125 C149.53722245 117.85031405 139.09997521 116.46625035 128.67169189 114.9347229 C112.44947661 112.55258234 96.19556959 110.51274837 79.91748047 108.55093384 C66.49259257 106.93267264 53.08940491 105.23877532 39.7019043 103.33447266 C30.52448411 102.03963011 21.3290458 100.95460792 12.11547852 99.95043945 C11.10670654 99.83917725 10.09793457 99.72791504 9.05859375 99.61328125 C8.17486084 99.51829346 7.29112793 99.42330566 6.38061523 99.32543945 C4 99 4 99 0 98 C0 65.66 0 33.32 0 0 Z " fill="#261105" transform="translate(0,1482)"/>
<path d="M0 0 C1.08188095 -0.00095673 2.1637619 -0.00191345 3.27842712 -0.00289917 C5.5551662 -0.00357679 7.83190726 -0.00175177 10.10864258 0.00244141 C13.58223832 0.00780077 17.05570509 0.00247948 20.52929688 -0.00390625 C22.7486982 -0.0032455 24.96809945 -0.00196439 27.1875 0 C28.7361953 -0.00303635 28.7361953 -0.00303635 30.31617737 -0.00613403 C35.49739241 0.01062213 40.40031993 0.30470847 45.52734375 1.1328125 C47.83401672 1.31412377 50.14298174 1.46784078 52.453125 1.59765625 C53.1053302 1.63516495 53.7575354 1.67267365 54.42950439 1.71131897 C55.8335536 1.79169109 57.23768092 1.87070823 58.64187622 1.94848633 C60.88568799 2.0728535 63.12925684 2.20100831 65.37280273 2.33007812 C70.09080318 2.60086926 74.80905191 2.86715397 79.52734375 3.1328125 C84.68461211 3.42330636 89.84174542 3.71592211 94.99862671 4.01321411 C96.98699044 4.12693024 98.97554678 4.2372635 100.96411133 4.34741211 C113.51037502 5.06824395 125.9879631 6.12966205 138.52734375 7.1328125 C162.61734375 8.7828125 186.70734375 10.4328125 211.52734375 12.1328125 C211.52734375 143.4728125 211.52734375 274.8128125 211.52734375 410.1328125 C205.88274585 410.1328125 201.23538958 410.10622482 195.8046875 409.3203125 C195.17106796 409.23116074 194.53744843 409.14200897 193.8846283 409.05015564 C192.48807574 408.85360164 191.09187092 408.65456462 189.69598389 408.45333862 C185.65382322 407.87264086 181.60817545 407.31731671 177.5625 406.76171875 C176.19538879 406.57374474 176.19538879 406.57374474 174.80065918 406.38197327 C161.01571509 404.50053227 147.20792106 402.79240715 133.40234375 401.0703125 C132.70013828 400.9826487 131.99793282 400.89498489 131.27444839 400.80466461 C113.92483772 398.63926154 96.57275615 396.50780428 79.1965332 394.56567383 C66.98564824 393.2007086 54.78804812 391.73142186 42.58984375 390.2578125 C22.87279415 387.87759649 3.14788532 385.57328319 -16.58325195 383.31298828 C-26.40641851 382.18650548 -36.22807664 381.05215292 -46.04296875 379.85546875 C-66.60446836 377.35180721 -87.18069352 375.07001603 -107.78515625 372.9453125 C-109.01300842 372.81866211 -110.2408606 372.69201172 -111.50592041 372.56152344 C-117.3568402 371.95952481 -123.20831551 371.36403314 -129.06103516 370.77978516 C-133.086628 370.37778763 -137.109164 369.95679924 -141.13037109 369.51318359 C-160.33441234 367.44393035 -178.97535861 367.94894298 -198.16015625 369.9453125 C-199.99228579 370.12865646 -201.8244808 370.31134726 -203.65673828 370.4934082 C-225.72891823 371.98096054 -225.72891823 371.98096054 -247.40527344 375.6328125 C-249.98248984 376.25611661 -252.51236521 376.49609096 -255.15234375 376.74609375 C-256.2926001 376.85751709 -257.43285645 376.96894043 -258.60766602 377.08374023 C-260.45896118 377.26271851 -260.45896118 377.26271851 -262.34765625 377.4453125 C-272.60655622 378.46883707 -282.82066391 379.65990013 -293.03515625 381.0703125 C-305.78555686 382.82898845 -318.5521078 384.30314722 -331.35180664 385.65014648 C-338.97961145 386.46252232 -346.57128041 387.40939984 -354.16113281 388.5234375 C-365.20069607 390.1204383 -376.25922039 391.53372965 -387.328125 392.91015625 C-389.36901907 393.16520281 -391.40989698 393.4203787 -393.45075989 393.67567444 C-397.70197374 394.20706506 -401.9533409 394.73720552 -406.20483398 395.26635742 C-411.54391828 395.9309306 -416.88266113 396.59820048 -422.22130203 397.266325 C-445.49508369 400.17813319 -468.77416421 403.02813007 -492.07273865 405.73451233 C-507.20862104 407.50768017 -522.29518276 409.5216285 -537.37524414 411.71826172 C-545.68150485 412.9140484 -553.98660423 413.88048078 -562.3359375 414.7109375 C-570.75780499 415.55215954 -579.12618171 416.77288633 -587.4921875 418.04296875 C-602.22739682 420.2750529 -616.96223045 422.17260547 -631.77294922 423.82568359 C-636.89646636 424.40855433 -642.00474407 425.09305521 -647.11181641 425.80419922 C-651.4439634 426.40720541 -655.77716705 427.00257964 -660.11010742 427.59985352 C-662.60906904 427.94466315 -665.10793628 428.29015766 -667.60668945 428.63647461 C-673.5975236 429.46596217 -679.58956393 430.28181972 -685.5859375 431.0703125 C-694.22222676 432.21808151 -702.84227925 433.47283614 -711.4621582 434.73730469 C-714.16659882 435.13375694 -716.87136966 435.52789821 -719.57617188 435.921875 C-727.8234389 437.1274518 -736.06053016 438.34770283 -744.26879883 439.80078125 C-746.47265625 440.1328125 -746.47265625 440.1328125 -749.47265625 440.1328125 C-750.77124814 434.40430471 -750.6953676 428.79531578 -750.72265625 422.9453125 C-750.74328125 421.85927734 -750.76390625 420.77324219 -750.78515625 419.65429688 C-750.85133254 405.88135568 -750.85133254 405.88135568 -747.47265625 400.1328125 C-743.77393705 398.08101608 -740.14027658 397.73959624 -735.96875 397.38671875 C-734.68427979 397.27312012 -733.39980957 397.15952148 -732.07641602 397.04248047 C-730.68766346 396.92674937 -729.29891019 396.81102692 -727.91015625 396.6953125 C-725.01138306 396.4425546 -722.11311223 396.18425447 -719.21484375 395.92578125 C-718.11581474 395.82876923 -718.11581474 395.82876923 -716.99458313 395.72979736 C-709.83004501 395.09099759 -702.6834977 394.30639435 -695.53515625 393.5078125 C-687.46251988 392.61540537 -679.42579874 391.86509876 -671.31396484 391.47167969 C-666.7373776 391.23986829 -662.20787864 390.80313127 -657.66015625 390.2578125 C-648.26272821 389.14167189 -638.83961284 388.35725758 -629.41015625 387.5703125 C-628.65205658 387.50628235 -627.89395691 387.4422522 -627.11288452 387.37628174 C-619.1128729 386.70243498 -611.11865041 386.09610943 -603.1015625 385.66796875 C-597.31795458 385.35181701 -591.57241445 384.87380644 -585.8125 384.265625 C-570.96903004 382.70920513 -556.08459615 381.59546316 -541.20727539 380.41845703 C-536.88165167 380.07596706 -532.55659361 379.72680307 -528.23162937 379.37609673 C-524.85240409 379.1032133 -521.47281924 378.83500203 -518.09312248 378.5680275 C-516.49885627 378.44133766 -514.90471982 378.31300191 -513.31073189 378.18285751 C-504.0183899 377.42614667 -494.8040687 376.95083727 -485.47265625 377.1328125 C-485.48302414 376.17761719 -485.49339203 375.22242188 -485.5040741 374.23828125 C-485.6586116 357.24446676 -484.38341044 340.34828767 -482.72265625 323.4453125 C-482.63684296 322.56661499 -482.55102966 321.68791748 -482.46261597 320.78259277 C-480.3885386 299.77921781 -477.66321265 278.85815341 -472.97265625 258.2578125 C-472.79549072 257.46213867 -472.6183252 256.66646484 -472.43579102 255.84667969 C-471.41113355 251.67258183 -470.03792432 248.28052044 -467.89013672 244.55224609 C-465.00905964 238.85408246 -464.96088751 234.24869099 -465.38671875 227.9765625 C-465.45995361 226.40560066 -465.45995361 226.40560066 -465.53466797 224.80290222 C-465.697877 221.41113633 -465.89808255 218.02261384 -466.09765625 214.6328125 C-466.21577213 212.26553079 -466.33081925 209.89809407 -466.44287109 207.53051758 C-466.66673165 202.84602145 -466.90199194 198.16236538 -467.1484375 193.47900391 C-468.91694055 159.47499813 -470.16805846 124.79997851 -467.66015625 90.8203125 C-467.55513794 89.35754883 -467.55513794 89.35754883 -467.44799805 87.86523438 C-466.31812644 75.31160604 -466.31812644 75.31160604 -463.47265625 70.1328125 C-460.86401367 68.85424805 -460.86401367 68.85424805 -458.47265625 68.1328125 C-458.4883667 67.27526367 -458.50407715 66.41771484 -458.52026367 65.53417969 C-458.57148048 62.34361003 -458.60904937 59.15325035 -458.63745117 55.96240234 C-458.65251047 54.58310032 -458.67296238 53.20384597 -458.69897461 51.82470703 C-458.7354804 49.83907847 -458.75080478 47.85309632 -458.765625 45.8671875 C-458.78133545 44.67319336 -458.7970459 43.47919922 -458.81323242 42.24902344 C-458.44004398 38.83441603 -457.95759764 37.47317929 -455.47265625 35.1328125 C-453.54101562 34.43505859 -453.54101562 34.43505859 -451.31640625 34.15625 C-450.47255371 34.044021 -449.62870117 33.93179199 -448.75927734 33.81616211 C-447.3798999 33.66352905 -447.3798999 33.66352905 -445.97265625 33.5078125 C-445.0079541 33.38865479 -444.04325195 33.26949707 -443.04931641 33.14672852 C-433.04621674 31.96816124 -423.00346703 31.28443272 -412.95703125 30.59765625 C-407.3254266 30.20753484 -401.71260876 29.7130692 -396.09765625 29.1328125 C-395.29489258 29.05023193 -394.49212891 28.96765137 -393.66503906 28.88256836 C-392.06437203 28.71676415 -390.46378501 28.55018544 -388.86328125 28.3828125 C-374.48796106 26.87951104 -360.11374812 25.71648675 -345.68798828 24.83007812 C-344.46450684 24.75337891 -343.24102539 24.67667969 -341.98046875 24.59765625 C-340.35069092 24.49892212 -340.35069092 24.49892212 -338.68798828 24.39819336 C-335.25573425 24.11490861 -331.88020931 23.62726599 -328.47265625 23.1328125 C-327.01609527 23.01468005 -325.55752125 22.91728439 -324.09765625 22.8515625 C-322.96070312 22.79548828 -322.96070312 22.79548828 -321.80078125 22.73828125 C-319.47265625 22.6328125 -319.47265625 22.6328125 -317.14453125 22.52734375 C-312.52864937 22.29968971 -308.05122908 21.78912669 -303.47265625 21.1328125 C-300.82520553 20.98248407 -298.18426722 20.85927183 -295.53515625 20.7578125 C-287.09873092 20.3780879 -278.72262119 19.60940012 -270.3203125 18.77734375 C-251.75769936 16.97970676 -233.1644043 15.67651768 -214.56099701 14.38426208 C-207.13450719 13.86710177 -199.70863417 13.34108881 -192.28262711 12.81705093 C-189.51907855 12.62216371 -186.75549763 12.42774061 -183.99191284 12.23336792 C-168.77366934 11.16164494 -153.56031429 10.03113933 -138.34765625 8.8828125 C-122.35009449 7.67591315 -106.35316669 6.56444262 -90.33154297 5.72753906 C-88.48326904 5.62844238 -88.48326904 5.62844238 -86.59765625 5.52734375 C-85.54835938 5.47425049 -84.4990625 5.42115723 -83.41796875 5.36645508 C-80.47998747 5.17901863 -80.47998747 5.17901863 -77.63876343 4.64152527 C-74.69230005 4.16810366 -71.84776931 3.91208646 -68.86962891 3.75976562 C-67.25732895 3.67462708 -67.25732895 3.67462708 -65.61245728 3.58776855 C-63.89196671 3.50178406 -63.89196671 3.50178406 -62.13671875 3.4140625 C-60.94339935 3.35126099 -59.75007996 3.28845947 -58.52059937 3.22375488 C-54.71311136 3.0235556 -50.90541835 2.82772449 -47.09765625 2.6328125 C-43.297046 2.43772414 -39.49650645 2.24158744 -35.69613647 2.04187012 C-33.33448337 1.917781 -30.97269043 1.79631672 -28.61074829 1.67785645 C-21.98812762 1.33494911 -21.98812762 1.33494911 -15.40209961 0.59619141 C-10.25450128 -0.01083821 -5.17844517 -0.01017272 0 0 Z " fill="#1D1C1A" transform="translate(2943.47265625,1544.8671875)"/>
<path d="M0 0 C181.5 0 363 0 550 0 C550 115.17 550 230.34 550 349 C368.5 349 187 349 0 349 C0 233.83 0 118.66 0 0 Z " fill="#303334" transform="translate(427,342)"/>
<path d="M0 0 C184.14 0 368.28 0 558 0 C558 103.95 558 207.9 558 315 C373.86 315 189.72 315 0 315 C0 211.05 0 107.1 0 0 Z " fill="#303334" transform="translate(2128,720)"/>
<path d="M0 0 C184.14 0 368.28 0 558 0 C558 102.96 558 205.92 558 312 C373.86 312 189.72 312 0 312 C0 209.04 0 106.08 0 0 Z " fill="#2E3133" transform="translate(2128,0)"/>
<path d="M0 0 C181.5 0 363 0 550 0 C550 103.95 550 207.9 550 315 C368.5 315 187 315 0 315 C0 211.05 0 107.1 0 0 Z " fill="#303334" transform="translate(427,720)"/>
<path d="M0 0 C181.83 0 363.66 0 551 0 C551 102.96 551 205.92 551 312 C369.17 312 187.34 312 0 312 C0 209.04 0 106.08 0 0 Z " fill="#2E3133" transform="translate(427,0)"/>
<path d="M0 0 C9.57 0 19.14 0 29 0 C29 102.96 29 205.92 29 312 C213.14 312 397.28 312 587 312 C587 209.04 587 106.08 587 0 C601.52 0 616.04 0 631 0 C631 102.96 631 205.92 631 312 C771.25 312 911.5 312 1056 312 C1056 321.9 1056 331.8 1056 342 C915.75 342 775.5 342 631 342 C631 457.17 631 572.34 631 691 C771.25 691 911.5 691 1056 691 C1056 700.57 1056 710.14 1056 720 C915.75 720 775.5 720 631 720 C631 823.95 631 927.9 631 1035 C771.25 1035 911.5 1035 1056 1035 C1056 1043.91 1056 1052.82 1056 1062 C707.52 1062 359.04 1062 0 1062 C0 711.54 0 361.08 0 0 Z M29 342 C29 457.17 29 572.34 29 691 C213.14 691 397.28 691 587 691 C587 575.83 587 460.66 587 342 C402.86 342 218.72 342 29 342 Z M29 720 C29 823.95 29 927.9 29 1035 C213.14 1035 397.28 1035 587 1035 C587 931.05 587 827.1 587 720 C402.86 720 218.72 720 29 720 Z " fill="#70513F" transform="translate(2099,0)"/>
<path d="M0 0 C1041.15 0 2082.3 0 3155 0 C3155 15.84 3155 31.68 3155 48 C2113.85 48 1072.7 48 0 48 C0 32.16 0 16.32 0 0 Z " fill="#231005" transform="translate(0,1482)"/>
<path d="M0 0 C140.25 0 280.5 0 425 0 C425 115.17 425 230.34 425 349 C284.75 349 144.5 349 0 349 C0 233.83 0 118.66 0 0 Z " fill="#303334" transform="translate(2730,342)"/>
<path d="M0 0 C126.39 0 252.78 0 383 0 C383 114.84 383 229.68 383 348 C256.61 348 130.22 348 0 348 C0 233.16 0 118.32 0 0 Z " fill="#303334" transform="translate(0,342)"/>
<path d="M0 0 C140.25 0 280.5 0 425 0 C425 102.96 425 205.92 425 312 C284.75 312 144.5 312 0 312 C0 209.04 0 106.08 0 0 Z " fill="#2E3133" transform="translate(2730,0)"/>
<path d="M0 0 C126.39 0 252.78 0 383 0 C383 103.95 383 207.9 383 315 C256.61 315 130.22 315 0 315 C0 211.05 0 107.1 0 0 Z " fill="#303334" transform="translate(0,720)"/>
<path d="M0 0 C126.39 0 252.78 0 383 0 C383 102.96 383 205.92 383 312 C256.61 312 130.22 312 0 312 C0 209.04 0 106.08 0 0 Z " fill="#2E3133" transform="translate(0,0)"/>
<path d="M0 0 C140.25 0 280.5 0 425 0 C425 88.11 425 176.22 425 267 C285.08 267 145.16 267 1 267 C1 282.84 1 298.68 1 315 C0.67 315 0.34 315 0 315 C0 211.05 0 107.1 0 0 Z " fill="#303334" transform="translate(2730,720)"/>
<path d="M0 0 C24.12213056 2.41221306 24.12213056 2.41221306 36 3.8125 C36.70800751 3.8954834 37.41601501 3.9784668 38.14547729 4.06396484 C50.234146 5.48645552 62.28841867 7.11380802 74.33953857 8.82293701 C84.92185728 10.3229561 95.50969356 11.69341995 106.125 12.9375 C123.47222865 14.97439457 140.74726991 17.48630015 158.03173828 19.99342346 C167.67951034 21.39166081 177.33732814 22.70931219 187 24 C189.47135985 24.33198896 191.94271354 24.66402377 194.4140625 24.99609375 C197.06768182 25.3517621 199.72132713 25.70723185 202.375 26.0625 C204.3082312 26.32160156 204.3082312 26.32160156 206.28051758 26.5859375 C211.59150629 27.29429813 216.90162138 27.99983411 222.22265625 28.62890625 C222.95500488 28.7158374 223.68735352 28.80276855 224.44189453 28.89233398 C226.2509655 29.10325209 228.06098407 29.30600277 229.87109375 29.5078125 C233.35775711 30.0562764 236.6194906 30.99370883 240 32 C241.43597936 32.29906347 242.87320337 32.59233253 244.3125 32.875 C248 34 248 34 249.1640625 35.71875 C255.9670401 54.28388512 253.1609368 77.88751602 253.13037109 97.45751953 C253.1246849 101.13039457 253.12804879 104.80319693 253.13381767 108.47606945 C253.15353227 123.31827736 253.06205083 138.12092452 252.12275696 152.93959045 C251.32842613 166.27200632 252.44950522 178.48020718 254.95751953 191.63256836 C258.66807024 211.12884614 260.56336128 230.78970547 262.0625 250.5625 C262.23315025 252.7649932 262.40405151 254.96746697 262.57519531 257.16992188 C262.98676612 262.4964533 263.38950922 267.8235974 263.78717041 273.15118408 C263.9806788 275.74137734 264.17628988 278.33140147 264.37255859 280.92138672 C264.67619195 284.94684602 264.96577808 288.97312245 265.25 293 C265.37000366 294.62917358 265.37000366 294.62917358 265.49243164 296.29125977 C266.11104146 305.52883183 266.07009819 314.74703867 266 324 C289.90184899 326.02502477 313.82509354 327.68360261 337.75882339 329.27590179 C362.11526567 330.89651994 386.45913452 332.59792018 410.79150391 334.55273438 C412.81151651 334.71493006 414.83153602 334.87703973 416.8515625 335.0390625 C418.33953842 335.1584317 418.33953842 335.1584317 419.85757446 335.2802124 C431.7546177 336.22856497 443.65851192 337.08163543 455.5625 337.9375 C475.95302659 339.40560319 496.33994175 340.91679865 516.72474289 342.46205521 C518.83439582 342.62192305 520.94406627 342.7815578 523.05374146 342.94113159 C527.05411847 343.24379939 531.05441052 343.54757526 535.0546875 343.8515625 C536.19464676 343.93790451 537.33460602 344.02424652 538.5091095 344.11320496 C559.55009124 345.7168539 580.58073601 347.44995669 601.609375 349.20703125 C602.83317116 349.30928198 604.05696732 349.41153271 605.31784821 349.51688194 C611.817585 350.06016338 618.3172597 350.60418179 624.81689453 351.14868164 C630.05537592 351.58737379 635.29398281 352.02451655 640.53271484 352.46020508 C668.20396776 354.76219522 695.86868436 357.11983585 723.515625 359.69921875 C724.62444786 359.80151102 725.73327072 359.90380329 726.87569427 360.00919533 C732.77679756 360.55526973 738.67457965 361.12284746 744.56819153 361.74493027 C746.11486008 361.90715864 747.66213663 362.06376316 749.21012878 362.2128334 C751.06928688 362.39564826 752.92507999 362.6118737 754.78027344 362.83129883 C755.74012146 362.93815506 756.69996948 363.04501129 757.68890381 363.15510559 C760.88589377 364.32386652 761.58059763 365.9848429 763 369 C763.90501337 372.33833472 764.12809964 375.4649215 764.1328125 378.9140625 C764.13410156 379.84089844 764.13539063 380.76773437 764.13671875 381.72265625 C764.13285156 382.68042969 764.12898437 383.63820313 764.125 384.625 C764.12886719 385.55957031 764.13273438 386.49414062 764.13671875 387.45703125 C764.13542969 388.39160156 764.13414062 389.32617188 764.1328125 390.2890625 C764.13112061 391.53743896 764.13112061 391.53743896 764.12939453 392.81103516 C763.93683127 397.55681127 763.45879198 402.2734943 763 407 C762.06028854 406.82729836 762.06028854 406.82729836 761.10159302 406.65110779 C737.18923528 402.30050309 713.14858734 398.91420997 689.08605957 395.51654053 C683.78996301 394.76767791 678.49463989 394.01338661 673.19921875 393.25976562 C661.79680649 391.6381972 650.39279358 390.02810996 638.98828125 388.42138672 C636.04432031 388.00624974 633.10050589 387.59008946 630.15673828 387.17358398 C606.87620626 383.88071873 583.58740429 380.73763511 560.25 377.875 C555.00504846 377.22785327 549.76031579 376.57894373 544.515625 375.9296875 C543.22900467 375.77059906 541.94238434 375.61151062 540.61677551 375.44760132 C523.68186354 373.34861319 506.7610631 371.1403479 489.83935547 368.93798828 C457.19660255 364.68971049 424.55631745 360.48334065 391.84355164 356.80262756 C390.91033585 356.69760422 389.97712006 356.59258087 389.015625 356.484375 C388.05723221 356.37657211 387.09883942 356.26876923 386.11140442 356.15769958 C376.20726652 355.0364792 366.31096055 353.85099646 356.4140625 352.66796875 C306.69382822 346.72807505 256.95397959 340.81590967 207.14178467 335.69430542 C204.72427417 335.44512948 202.30713607 335.19230583 199.89044189 334.93533325 C179.82571287 332.81283651 160.03125018 332.05762759 139.9375 334.25 C138.63498291 334.38349854 137.33246582 334.51699707 135.99047852 334.65454102 C125.89061924 335.70725263 115.83189193 337.04976884 105.77441406 338.44604492 C95.43146987 339.86285898 85.07150314 340.99523244 74.6875 342.0625 C71.45310177 342.39560838 68.21871552 342.72883174 64.984375 343.0625 C63.82017029 343.18257919 63.82017029 343.18257919 62.63244629 343.30508423 C50.11907335 344.60238888 37.60975875 346.00698457 25.1640625 347.8515625 C24.21990479 347.99134521 23.27574707 348.13112793 22.30297852 348.27514648 C20.55749812 348.53778491 18.81304027 348.80738126 17.07006836 349.08618164 C11.18749575 349.98399396 6.10706821 350 0 350 C0 234.5 0 119 0 0 Z " fill="#1D1C1A" transform="translate(0,1580)"/>
<path d="M0 0 C21.45 0 42.9 0 65 0 C65 88.11 65 176.22 65 267 C227.69 267 390.38 267 558 267 C558 282.84 558 298.68 558 315 C373.86 315 189.72 315 0 315 C0 211.05 0 107.1 0 0 Z " fill="#1B1C1D" transform="translate(2128,720)"/>
<path d="M0 0 C15.84 0 31.68 0 48 0 C48 103.95 48 207.9 48 315 C-133.5 315 -315 315 -502 315 C-502 299.16 -502 283.32 -502 267 C-336.34 267 -170.68 267 0 267 C0 178.89 0 90.78 0 0 Z " fill="#1B1C1D" transform="translate(929,720)"/>
<path d="M0 0 C1.20167816 -0.0033284 2.40335632 -0.0066568 3.64144897 -0.01008606 C6.18479024 -0.0151369 8.7281381 -0.01749496 11.27148438 -0.01733398 C15.08735719 -0.01949663 18.90292916 -0.03760602 22.71875 -0.05664062 C35.83108167 -0.08615728 48.73986814 0.27512201 61.77929688 1.69433594 C66.64684159 2.21767475 71.50731278 2.43810736 76.3984375 2.60546875 C84.81844456 2.93806491 93.20673763 3.48761545 101.60700989 4.13835144 C102.46121773 4.20440205 103.31542557 4.27045265 104.19551849 4.33850479 C105.90031965 4.47051808 107.6050993 4.60280952 109.3098526 4.7354393 C121.9080392 5.7126231 134.50810854 6.55190966 147.12260246 7.28610229 C178.15267831 9.10472431 209.14880666 11.39002367 240.14769107 13.66824591 C245.470765 14.0592185 250.79403959 14.44736886 256.11743164 14.83398438 C314.73463287 19.09162926 314.73463287 19.09162926 337.25448608 21.15861511 C351.85456611 22.4951366 366.47498989 23.54503375 381.09655762 24.61444092 C435.55986263 28.60263093 489.97689744 32.98613105 544.34196472 38.1513443 C546.20348365 38.32819492 548.0650252 38.50480769 549.92658997 38.68117523 C555.21679806 39.1824155 560.50665414 39.68711655 565.79600906 40.1972847 C567.3980368 40.35155326 569.00014302 40.50500959 570.60233688 40.65754318 C574.89440568 41.06695197 579.18374834 41.49487764 583.47089386 41.95307922 C584.8708117 42.09964258 586.27145902 42.23936063 587.67266083 42.37309265 C589.75583871 42.5735465 591.8353297 42.79727129 593.91552734 43.02636719 C595.11704437 43.14993591 596.3185614 43.27350464 597.55648804 43.40081787 C600.5234375 44.16796875 600.5234375 44.16796875 602.39395142 46.0557251 C605.83843619 52.49723085 604.67220524 61.10102826 604.6484375 68.16796875 C604.65423828 69.89273437 604.65423828 69.89273437 604.66015625 71.65234375 C604.65369436 77.26126461 604.53476871 82.64577928 603.5234375 88.16796875 C602.94635544 87.97578766 602.36927338 87.78360657 601.77470398 87.58560181 C594.92956175 85.40765003 588.13817219 84.12995271 581.04296875 83.06640625 C579.78686295 82.87324829 578.53075714 82.68009033 577.23658752 82.4810791 C573.69817762 81.93912543 570.15809813 81.408936 566.61736298 80.88240814 C564.29743389 80.53724003 561.97783536 80.18991056 559.65826416 79.84234619 C479.07682982 67.79463049 398.19405764 57.6530935 269.84374809 41.57985783 C260.97576362 40.47531819 252.10877601 39.36299996 243.2421875 38.24731445 C219.30767442 35.23734187 195.37587847 32.25479878 171.3984375 29.60546875 C168.80286563 29.3160376 166.20732626 29.02631491 163.61181641 28.73632812 C158.39637089 28.15416179 153.18070075 27.5740729 147.96484375 26.99560547 C140.9729595 26.21937055 133.98246002 25.4312206 126.9921875 24.640625 C114.77635459 23.26120173 102.5571698 21.91398933 90.33587646 20.5838623 C87.67303048 20.29337622 85.01030378 20.00194858 82.34771729 19.70910645 C74.05826965 18.79756423 65.7678927 17.89585418 57.47513962 17.01483536 C53.77563667 16.62163958 50.07667908 16.22453841 46.37884521 15.81591797 C18.02309714 12.69054963 -8.39756914 12.93345655 -36.7265625 16.60546875 C-40.63282977 17.09817513 -44.53960989 17.58652008 -48.44671631 18.07252502 C-50.84824387 18.37266198 -53.24922005 18.67726227 -55.6494751 18.9874115 C-62.28107928 19.83219971 -68.89186018 20.47635519 -75.56317139 20.91493225 C-78.41148918 21.16231694 -81.16641975 21.5856785 -83.9765625 22.10546875 C-89.60273026 23.11414424 -95.22594421 23.65934043 -100.9140625 24.16796875 C-107.68886224 24.77469379 -114.36158435 25.55742218 -121.07421875 26.671875 C-126.16770972 27.41455394 -131.28529759 27.8533299 -136.40916443 28.33337402 C-142.47549033 28.92189459 -148.48880322 29.70740265 -154.515625 30.609375 C-163.29411389 31.89107607 -172.07582998 32.95577911 -180.89572144 33.90264893 C-204.45771508 36.44819803 -227.96533316 39.44612556 -251.4759903 42.42132568 C-254.38974763 42.78989311 -257.30359722 43.15772332 -260.21746826 43.52539062 C-285.77651923 46.7302907 -285.77651923 46.7302907 -311.28988647 50.27545166 C-317.36122009 51.16474538 -323.43821979 51.89263051 -329.5390625 52.54296875 C-340.36099712 53.74078153 -351.13488946 55.20389593 -361.9140625 56.73046875 C-372.78145629 58.2690097 -383.63696824 59.70781345 -394.5625 60.7734375 C-402.79562101 61.60332295 -410.97852736 62.73416239 -419.1328125 64.140625 C-425.41413465 65.19704028 -431.70776162 65.92417405 -438.0390625 66.60546875 C-446.65900942 67.56262667 -455.21199729 68.69004741 -463.7668457 70.11083984 C-469.73542701 71.08849127 -475.7098732 71.82203342 -481.7265625 72.43383789 C-493.93398138 73.68622207 -506.08282727 75.52087481 -518.22265625 77.296875 C-519.57209311 77.49350496 -520.92154516 77.69003076 -522.27101135 77.88645935 C-526.48550802 78.50012795 -530.69979662 79.11521753 -534.9140625 79.73046875 C-539.83136596 80.44826 -544.74875744 81.16543968 -549.66633797 81.88133049 C-551.61167636 82.16481038 -553.55687009 82.44928248 -555.50205994 82.73377991 C-561.48748431 83.60556784 -567.47072103 84.44943693 -573.4765625 85.16796875 C-574.88611721 79.07559913 -574.66075937 73.01607014 -574.6640625 66.79296875 C-574.67630859 65.58640625 -574.68855469 64.37984375 -574.70117188 63.13671875 C-574.71993013 51.75670917 -574.71993013 51.75670917 -572.4765625 46.16796875 C-563.3675149 37.05892115 -530.61649054 39.41880126 -518.00561523 38.49072266 C-515.60897955 38.31319409 -513.21270039 38.13129168 -510.81640625 37.94921875 C-509.78591408 37.87568176 -509.78591408 37.87568176 -508.73460388 37.80065918 C-503.95649231 37.43650804 -499.21933676 36.88939356 -494.46484375 36.29150391 C-480.92853858 34.64119318 -467.31458124 33.69237637 -453.72408128 32.60289812 C-449.62494176 32.27368101 -445.5260793 31.94104463 -441.4271698 31.60897827 C-432.61757833 30.89602941 -423.80759075 30.18806387 -414.99751282 29.4811554 C-409.5359035 29.04287285 -404.07440302 28.60324377 -398.61291504 28.16345215 C-354.09629578 24.57966016 -309.57683226 21.0354857 -265.04319382 17.66886139 C-261.75393299 17.42003924 -258.4647456 17.17026379 -255.17556763 16.92034912 C-250.06919722 16.53283606 -244.96257282 16.14886259 -239.85570717 15.76793289 C-238.04615169 15.63269257 -236.23665671 15.49663904 -234.42723656 15.35960007 C-224.23292888 14.58914019 -214.04479335 13.95390136 -203.82933426 13.5353508 C-198.00631142 13.28604346 -192.22759916 12.81789968 -186.4296875 12.2265625 C-185.47203491 12.13100067 -184.51438232 12.03543884 -183.52770996 11.9369812 C-182.74963989 11.85835846 -181.97156982 11.77973572 -181.16992188 11.69873047 C-169.87858105 10.60589959 -158.54516153 9.97149606 -147.2265625 9.23046875 C-141.94519206 8.8807045 -136.66397632 8.52865046 -131.3828125 8.17578125 C-130.08732483 8.08938889 -128.79183716 8.00299652 -127.45709229 7.91398621 C-120.11741834 7.42170813 -112.78017873 6.90701641 -105.4453125 6.34765625 C-104.61976364 6.28473892 -103.79421478 6.22182159 -102.94364929 6.15699768 C-101.32801607 6.03360258 -99.7123899 5.91011519 -98.09677124 5.78652954 C-78.29671365 4.27399859 -58.47880975 3.18567084 -38.64746094 2.16967773 C-37.50070389 2.11002335 -36.35394684 2.05036896 -35.17243958 1.98890686 C-33.02241688 1.87735667 -30.87226529 1.76825214 -28.7219696 1.66209412 C-23.97643322 1.41534524 -19.33908934 1.01515262 -14.62739563 0.37890625 C-9.76999554 -0.09747093 -4.87611886 0.00477454 0 0 Z " fill="#D41920" transform="translate(1460.4765625,1899.83203125)"/>
<path d="M0 0 C0.66310055 0.00046703 1.3262011 0.00093407 2.0093956 0.00141525 C6.46339338 0.00472564 10.91716997 0.02154698 15.37109375 0.046875 C16.51330383 0.05125076 17.65551392 0.05562653 18.83233643 0.06013489 C19.89498718 0.06961655 20.95763794 0.07909821 22.05249023 0.08886719 C22.97569565 0.09569519 23.89890106 0.10252319 24.8500824 0.10955811 C27.81459235 0.26305268 30.6391159 0.74424781 33.5625 1.25 C35.12760237 1.38658779 36.69537575 1.49574587 38.2644043 1.57543945 C39.15463791 1.62251541 40.04487152 1.66959137 40.96208191 1.71809387 C41.92721207 1.76600571 42.89234222 1.81391754 43.88671875 1.86328125 C46.05924656 1.9784823 48.23177252 2.0937182 50.40429688 2.20898438 C53.72608305 2.38126005 57.04793032 2.55220597 60.36987305 2.72143555 C110.17448825 5.27883224 159.91839513 9.16498201 209.65402603 12.8026619 C213.37592371 13.07486896 217.09785741 13.34658002 220.81980103 13.61815804 C266.74963992 16.96978405 312.66927841 20.42499316 358.5625 24.25 C362.5225 24.58 366.4825 24.91 370.5625 25.25 C370.5625 35.15 370.5625 45.05 370.5625 55.25 C364.9179021 55.25 360.27054583 55.22341232 354.83984375 54.4375 C354.20622421 54.34834824 353.57260468 54.25919647 352.91978455 54.16734314 C351.52323199 53.97078914 350.12702717 53.77175212 348.73114014 53.57052612 C344.68897947 52.98982836 340.6433317 52.43450421 336.59765625 51.87890625 C335.68624878 51.75359024 334.77484131 51.62827423 333.83581543 51.49916077 C320.05087134 49.61771977 306.24307731 47.90959465 292.4375 46.1875 C291.73529453 46.0998362 291.03308907 46.01217239 290.30960464 45.92185211 C272.95999397 43.75644904 255.6079124 41.62499178 238.23168945 39.68286133 C226.02080449 38.3178961 213.82320437 36.84860936 201.625 35.375 C181.9079504 32.99478399 162.18304157 30.69047069 142.4519043 28.43017578 C132.62873774 27.30369298 122.80707961 26.16934042 112.9921875 24.97265625 C92.43068789 22.46899471 71.85446273 20.18720353 51.25 18.0625 C50.02214783 17.93584961 48.79429565 17.80919922 47.52923584 17.67871094 C41.67831605 17.07671231 35.82684074 16.48122064 29.97412109 15.89697266 C25.94852825 15.49497513 21.92599225 15.07398674 17.90478516 14.63037109 C-1.29925609 12.56111785 -19.94020236 13.06613048 -39.125 15.0625 C-40.95712954 15.24584396 -42.78932455 15.42853476 -44.62158203 15.6105957 C-66.69376198 17.09814804 -66.69376198 17.09814804 -88.37011719 20.75 C-90.94733359 21.37330411 -93.47720896 21.61327846 -96.1171875 21.86328125 C-97.25744385 21.97470459 -98.3977002 22.08612793 -99.57250977 22.20092773 C-100.80670654 22.32024658 -102.04090332 22.43956543 -103.3125 22.5625 C-113.57139997 23.58602457 -123.78550766 24.77708763 -134 26.1875 C-146.75040061 27.94617595 -159.51695155 29.42033472 -172.31665039 30.76733398 C-179.9444552 31.57970982 -187.53612416 32.52658734 -195.12597656 33.640625 C-206.16553982 35.2376258 -217.22406414 36.65091715 -228.29296875 38.02734375 C-230.33386282 38.28239031 -232.37474073 38.5375662 -234.41560364 38.79286194 C-238.66681749 39.32425256 -242.91818465 39.85439302 -247.16967773 40.38354492 C-252.50876203 41.0481181 -257.84750488 41.71538798 -263.18614578 42.3835125 C-286.45992744 45.29532069 -309.73900796 48.14531757 -333.0375824 50.85169983 C-348.17346479 52.62486767 -363.26002651 54.638816 -378.34008789 56.83544922 C-386.6463486 58.0312359 -394.95144798 58.99766828 -403.30078125 59.828125 C-411.72264874 60.66934704 -420.09102546 61.89007383 -428.45703125 63.16015625 C-443.19224057 65.3922404 -457.9270742 67.28979297 -472.73779297 68.94287109 C-477.86131011 69.52574183 -482.96958782 70.21024271 -488.07666016 70.92138672 C-492.40880715 71.52439291 -496.7420108 72.11976714 -501.07495117 72.71704102 C-503.57391279 73.06185065 -506.07278003 73.40734516 -508.5715332 73.75366211 C-514.56236735 74.58314967 -520.55440768 75.39900722 -526.55078125 76.1875 C-535.18707051 77.33526901 -543.807123 78.59002364 -552.42700195 79.85449219 C-555.13144257 80.25094444 -557.83621341 80.64508571 -560.54101562 81.0390625 C-568.78828265 82.2446393 -577.02537391 83.46489033 -585.23364258 84.91796875 C-587.4375 85.25 -587.4375 85.25 -590.4375 85.25 C-591.73609189 79.52149221 -591.66021135 73.91250328 -591.6875 68.0625 C-591.708125 66.97646484 -591.72875 65.89042969 -591.75 64.77148438 C-591.81617629 50.99854318 -591.81617629 50.99854318 -588.4375 45.25 C-584.7387808 43.19820358 -581.10512033 42.85678374 -576.93359375 42.50390625 C-575.64912354 42.39030762 -574.36465332 42.27670898 -573.04125977 42.15966797 C-571.65250721 42.04393687 -570.26375394 41.92821442 -568.875 41.8125 C-565.97622681 41.5597421 -563.07795598 41.30144197 -560.1796875 41.04296875 C-559.08065849 40.94595673 -559.08065849 40.94595673 -557.95942688 40.84698486 C-550.79488876 40.20818509 -543.64834145 39.42358185 -536.5 38.625 C-528.42736363 37.73259287 -520.39064249 36.98228626 -512.27880859 36.58886719 C-507.70222135 36.35705579 -503.17272239 35.92031877 -498.625 35.375 C-489.22757196 34.25885939 -479.80445659 33.47444508 -470.375 32.6875 C-469.61690033 32.62346985 -468.85880066 32.5594397 -468.07772827 32.49346924 C-460.81304343 31.88155959 -453.55197323 31.29171586 -446.27145863 30.90364647 C-439.67359697 30.5491052 -433.11941421 30.04601832 -426.54858398 29.34960938 C-414.05936087 28.06697239 -401.5474783 27.09744669 -389.03125 26.12109375 C-386.52941064 25.92467137 -384.02757975 25.72814106 -381.52575684 25.5315094 C-376.31529702 25.12251378 -371.10471511 24.71511918 -365.89404297 24.30883789 C-359.27118934 23.79227464 -352.64869893 23.27120742 -346.02629852 22.7488699 C-340.87009161 22.3427711 -335.71367882 21.93933506 -330.5572052 21.53663826 C-328.11751058 21.34575407 -325.67788214 21.15402172 -323.23832703 20.96136284 C-311.1576453 20.00856309 -299.08667099 19.08933438 -286.97776031 18.5820303 C-281.83434918 18.35980185 -276.7418307 17.92356461 -271.625 17.359375 C-261.97312557 16.3369828 -252.30633404 15.62430106 -242.625 14.953125 C-241.79923462 14.89585424 -240.97346924 14.83858349 -240.12268066 14.77957726 C-234.82102729 14.4129569 -229.51906682 14.05091212 -224.21704102 13.68972397 C-216.58681392 13.16890526 -208.95707824 12.64089363 -201.32727051 12.11397362 C-199.35356474 11.97771391 -197.37985049 11.84157695 -195.40612793 11.70556068 C-180.56052373 10.68234392 -165.71713048 9.63097279 -150.875 8.55859375 C-148.95955526 8.42042377 -147.0441093 8.28227058 -145.12866211 8.14413452 C-137.78239141 7.61403675 -130.43613039 7.08385103 -123.09033203 6.54724121 C-118.03959167 6.1783873 -112.98866896 5.81215713 -107.9375 5.44921875 C-107.14858179 5.39250063 -106.35966358 5.33578251 -105.54683876 5.27734566 C-95.52364665 4.56097882 -85.50470756 3.97095832 -75.46305847 3.57733154 C-70.37708263 3.36928532 -65.33286227 3.01722985 -60.26953125 2.49609375 C-40.17572467 0.44364156 -20.18505836 -0.03134213 0 0 Z " fill="#D41920" transform="translate(2784.4375,1899.75)"/>
<path d="M0 0 C21.45 0 42.9 0 65 0 C65 114.84 65 229.68 65 348 C43.55 348 22.1 348 0 348 C0 233.16 0 118.32 0 0 Z " fill="#1B1C1D" transform="translate(2128,342)"/>
<path d="M0 0 C1041.15 0 2082.3 0 3155 0 C3155 2.31 3155 4.62 3155 7 C2113.85 7 1072.7 7 0 7 C0 4.69 0 2.38 0 0 Z " fill="#1A0A02" transform="translate(0,1523)"/>
<path d="M0 0 C21.45 0 42.9 0 65 0 C65 102.96 65 205.92 65 312 C43.55 312 22.1 312 0 312 C0 209.04 0 106.08 0 0 Z " fill="#1A1B1C" transform="translate(2128,0)"/>
<path d="M0 0 C1.05634644 0.00263855 2.11269287 0.0052771 3.2010498 0.00799561 C6.16546391 0.02041682 9.1294726 0.04354373 12.09375 0.07421875 C12.95127869 0.08177689 13.80880737 0.08933502 14.69232178 0.09712219 C19.38017732 0.17137186 23.85857258 0.58372195 28.5 1.3125 C29.96694662 1.42215087 31.43610064 1.50744165 32.90625 1.55859375 C43.01047803 1.92916576 53.1016409 2.43479162 63.19140625 3.08984375 C65.1412014 3.21629776 65.1412014 3.21629776 67.13038635 3.3453064 C90.39777831 4.87115612 113.65195407 6.59900883 136.90777826 8.28996229 C138.94971509 8.4383879 140.99166156 8.58668026 143.0336113 8.73492813 C197.5859871 12.69563991 252.12529398 16.8156701 306.65408325 21.08956146 C309.4652481 21.30977767 312.27644187 21.52962072 315.08764648 21.74932861 C391.42481171 27.71611861 391.42481171 27.71611861 427.5 31.3125 C428.23311401 31.38533203 428.96622803 31.45816406 429.72155762 31.53320312 C447.66273283 33.31774649 447.66273283 33.31774649 456.5 34.3125 C457.23943848 34.39153564 457.97887695 34.47057129 458.74072266 34.55200195 C463.27722233 35.09714825 463.27722233 35.09714825 465.375 37.125 C467.7637526 41.76979672 467.65213781 46.299408 467.625 51.4375 C467.62886719 52.14648438 467.63273437 52.85546875 467.63671875 53.5859375 C467.62945916 57.62226895 467.41043019 61.58159198 466.99169922 65.59716797 C466.90008514 66.48419403 466.80847107 67.37122009 466.71408081 68.28512573 C466.64343414 68.95415924 466.57278748 69.62319275 466.5 70.3125 C465.89941772 70.19180145 465.29883545 70.07110291 464.68005371 69.94674683 C443.50722073 65.74449578 422.21159053 62.74632324 400.83230209 59.82516861 C396.00979349 59.16509241 391.18817764 58.49855304 386.36645508 57.83276367 C379.68723296 56.91109461 373.00769027 55.99181554 366.32769871 55.07573986 C357.25129333 53.83094673 348.17717666 52.57160443 339.10546875 51.29296875 C311.3052528 47.38678544 283.45752393 43.91600885 255.59179688 40.51586914 C252.49867902 40.13833817 249.40557877 39.76066353 246.3125 39.3828125 C245.56250229 39.29120535 244.81250458 39.1995982 244.03977966 39.10521507 C232.24574924 37.66326873 220.46259973 36.15180551 208.6875 34.5625 C193.79731843 32.55563281 178.88034069 30.84357091 163.94824219 29.17993164 C155.4438358 28.23001199 146.94365497 27.26677381 138.45703125 26.16796875 C137.72320724 26.07298599 136.98938324 25.97800323 136.23332214 25.88014221 C134.73144076 25.68550064 133.22956397 25.49082358 131.72769165 25.29611206 C100.8130821 21.29898425 69.78510958 18.22010499 38.7848177 14.97292423 C33.29881981 14.39769527 27.81376999 13.81388926 22.32911682 13.22596741 C18.68275978 12.83563587 15.03594542 12.449744 11.38894653 12.06546021 C9.8282651 11.90020314 8.26776879 11.73318576 6.70748901 11.56417847 C-7.45155602 10.03381811 -20.64125185 10.47704933 -34.75 12.125 C-36.37504325 12.31023067 -38.0001251 12.49512297 -39.62524414 12.6796875 C-48.93893046 13.74491734 -58.23710831 14.89990185 -67.52587891 16.16503906 C-78.44833083 17.62398764 -89.41279803 18.73211182 -100.37280273 19.8671875 C-108.02661989 20.66738302 -115.61405706 21.60105656 -123.21435547 22.82348633 C-129.03717322 23.69011614 -134.89323025 24.26971723 -140.7467041 24.88644409 C-154.11113186 26.30133292 -167.43719987 27.91311725 -180.75 29.75 C-193.86578234 31.55703923 -206.98734119 33.29622687 -220.125 34.9375 C-220.96925537 35.04309235 -221.81351074 35.14868469 -222.68334961 35.25747681 C-234.28288626 36.7043449 -245.88929364 38.04086086 -257.51220703 39.28735352 C-264.84679393 40.0881251 -272.12598553 41.10523709 -279.41308594 42.25610352 C-285.89441223 43.26572043 -292.38477733 43.96789464 -298.91113281 44.61352539 C-304.1766015 45.14416689 -309.36161159 45.88965945 -314.57421875 46.8125 C-323.58438586 48.35228824 -332.65903315 49.34368626 -341.75 50.25 C-348.84184721 50.96160175 -355.83968263 51.96303043 -362.86865234 53.13427734 C-370.90647303 54.44138673 -378.98380894 55.34454006 -387.07836914 56.22241211 C-393.41597606 56.9183585 -399.7068607 57.76655664 -406.00439453 58.76147461 C-412.02144429 59.70996471 -418.04754117 60.59820209 -424.07324219 61.48974609 C-425.51740703 61.70387641 -426.96141972 61.91903567 -428.40527344 62.13525391 C-437.21422745 63.45399555 -446.02143728 64.66490128 -454.87701416 65.62976074 C-458.54339556 66.03821584 -462.09918256 66.58155738 -465.6875 67.4375 C-469.1557101 68.23348265 -471.97262053 68.3823491 -475.5 68.3125 C-475.57431978 64.25578317 -475.62868133 60.19933154 -475.66479492 56.14208984 C-475.67985422 54.76278782 -475.70030613 53.38353347 -475.72631836 52.00439453 C-475.76282415 50.01876597 -475.77814853 48.03278382 -475.79296875 46.046875 C-475.8086792 44.85288086 -475.82438965 43.65888672 -475.84057617 42.42871094 C-475.46655364 39.00647181 -475.01597898 37.63729095 -472.5 35.3125 C-470.39501953 34.64648438 -470.39501953 34.64648438 -467.8828125 34.40625 C-466.90570312 34.3043335 -465.92859375 34.20241699 -464.921875 34.09741211 C-463.83390625 34.00339111 -462.7459375 33.90937012 -461.625 33.8125 C-460.47257812 33.69849854 -459.32015625 33.58449707 -458.1328125 33.46704102 C-454.723028 33.13667447 -451.312471 32.82574121 -447.90002441 32.52471924 C-445.30773446 32.29549915 -442.71586264 32.06189712 -440.12402344 31.82763672 C-432.35205539 31.12635573 -424.57994479 30.42743396 -416.80517578 29.7578125 C-408.18805629 29.01354719 -399.5821062 28.23292206 -390.984375 27.2890625 C-380.59281123 26.15717552 -370.17816367 25.44908961 -359.75 24.75 C-356.95371104 24.56149973 -354.15751369 24.37191998 -351.36151123 24.17921448 C-349.64427552 24.06092412 -347.92687559 23.94498371 -346.20928955 23.83189392 C-341.59889934 23.51508381 -337.07370556 22.99704607 -332.5 22.3125 C-330.02219001 22.16300085 -327.5426682 22.04073792 -325.0625 21.9375 C-316.97142225 21.5431634 -308.93494374 20.79979001 -300.875 20 C-284.29136663 18.37409374 -267.67992576 17.21401865 -251.05804443 16.05508423 C-236.36258622 15.0298282 -221.67627947 13.95910518 -207 12.6875 C-194.59247932 11.61354183 -182.18468219 10.74899566 -169.75268555 10.01342773 C-160.78179115 9.47683294 -151.83607172 8.7808417 -142.88427734 7.99194336 C-137.52947541 7.53114302 -132.18472253 7.16378487 -126.81469727 6.93774414 C-125.84459717 6.89641357 -124.87449707 6.85508301 -123.875 6.8125 C-123.11803833 6.78166321 -122.36107666 6.75082642 -121.58117676 6.71905518 C-115.60124463 6.45715523 -109.66721337 5.9967063 -103.7109375 5.4140625 C-89.74063591 4.10422433 -75.75097077 3.10574693 -61.75 2.1875 C-61.07407806 2.14291782 -60.39815613 2.09833565 -59.70175171 2.0524025 C-39.79539906 0.74585626 -19.95751726 -0.06111357 0 0 Z " fill="#D41820" transform="translate(1905.5,1544.6875)"/>
<path d="M0 0 C1.16069 -0.00349457 2.32138 -0.00698914 3.51724243 -0.0105896 C15.80904012 -0.03120482 27.95406893 0.2622537 40.18623352 1.50343323 C47.23497748 2.2170908 54.27809528 2.70527899 61.3515625 3.1015625 C63.08129051 3.19945824 63.08129051 3.19945824 64.84596252 3.29933167 C67.31520794 3.43850447 69.78448304 3.57715137 72.25378418 3.71533203 C104.63347783 5.5440688 136.9721912 7.8940775 169.3125 10.3125 C171.00234386 10.43885204 171.00234386 10.43885204 172.72632599 10.56775665 C182.66752376 11.31150991 192.60853451 12.05773762 202.54928589 12.80743408 C214.05379072 13.67489742 225.55868008 14.53671267 237.06445312 15.38720703 C238.86987265 15.52067598 238.86987265 15.52067598 240.71176529 15.65684128 C246.46181532 16.08170551 252.21192199 16.50578817 257.96209717 16.92895508 C276.25333497 18.27729526 294.54072147 19.67705381 312.8203125 21.17578125 C313.86551056 21.26136795 314.91070862 21.34695465 315.98757935 21.43513489 C334.52783694 22.96111817 353.06166131 24.56539348 371.59570312 26.16479492 C374.55077956 26.41977867 377.50585754 26.67474462 380.4609375 26.9296875 C381.17669197 26.99145235 381.89244644 27.0532172 382.62989044 27.11685371 C393.39803358 28.0456255 404.16808763 28.94779538 414.94042969 29.82641602 C425.77814125 30.71293384 436.61171406 31.64303411 447.43579102 32.6835022 C449.35980075 32.86756673 451.28438412 33.04560484 453.20898438 33.22338867 C454.35431641 33.33658447 455.49964844 33.44978027 456.6796875 33.56640625 C457.67597168 33.66252197 458.67225586 33.7586377 459.69873047 33.85766602 C462.8545871 34.3588903 465.60814711 35.09010837 468.5625 36.3125 C471.04610441 40.03790662 470.7940867 41.94312973 470.7578125 46.38671875 C470.75356766 47.41246758 470.75356766 47.41246758 470.74923706 48.4589386 C470.73805684 50.63947165 470.71295691 52.81959145 470.6875 55 C470.67746738 56.47981177 470.66834202 57.95962999 470.66015625 59.43945312 C470.63812481 63.063936 470.60361002 66.68817766 470.5625 70.3125 C470.02173828 70.21227539 469.48097656 70.11205078 468.92382812 70.00878906 C466.30378029 69.52453043 463.683139 69.0435488 461.0625 68.5625 C460.21429687 68.40523437 459.36609375 68.24796875 458.4921875 68.0859375 C455.18477336 67.48035463 451.87378885 66.8965367 448.5625 66.3125 C447.85949768 66.18455048 447.15649536 66.05660095 446.43218994 65.92477417 C424.31121039 61.91866075 401.98399557 59.2221926 379.70043945 56.30297852 C374.32203737 55.59752855 368.94424918 54.88743202 363.56640625 54.17773438 C352.18262467 52.67628247 340.79806084 51.18082523 329.41331482 49.68670654 C322.52462504 48.78247637 315.63609271 47.8770483 308.74762344 46.97113991 C307.17663319 46.76454737 305.60563663 46.55800279 304.03463364 46.35150719 C294.97067334 45.16000182 285.90793262 43.96000926 276.84669495 42.74795532 C231.77112475 36.72348425 186.62672578 31.36573908 141.45111084 26.14993286 C129.87360997 24.81316038 118.29728937 23.46685685 106.72265625 22.10546875 C106.05006083 22.02647024 105.3774654 21.94747173 104.6844883 21.86607933 C96.31673957 20.88286534 87.95231233 19.87488022 79.58930969 18.85231018 C62.47252651 16.76512231 45.32026136 15.00759871 28.1651535 13.26985931 C26.14056436 13.06408195 24.11618794 12.85631992 22.09185791 12.64801025 C18.25060403 12.25429848 14.40865417 11.86825058 10.56640625 11.484375 C9.41865219 11.3658316 8.27089813 11.24728821 7.08836365 11.12515259 C-2.26534999 10.20542632 -11.36723113 9.86538219 -20.7109375 11.08203125 C-22.66906372 11.32977295 -22.66906372 11.32977295 -24.66674805 11.58251953 C-25.34264984 11.67100159 -26.01855164 11.75948364 -26.7149353 11.85064697 C-30.3432694 12.32521848 -33.9743928 12.77743295 -37.60546875 13.23046875 C-38.34253555 13.32283813 -39.07960236 13.41520752 -39.83900452 13.51037598 C-48.40129255 14.57344673 -56.98250061 15.43709946 -65.56982422 16.27270508 C-73.56291643 17.06518964 -81.49198932 18.13976804 -89.4375 19.3125 C-96.99989621 20.34897055 -104.56965836 21.23361156 -112.1640625 22 C-113.38988037 22.12383057 -114.61569824 22.24766113 -115.87866211 22.37524414 C-118.2826939 22.61572565 -120.68712762 22.85224128 -123.09204102 23.08374023 C-130.10656164 23.78221901 -137.06578556 24.6678806 -144.0390625 25.69165039 C-155.22413283 27.30998448 -166.42919734 28.73462734 -177.64453125 30.125 C-179.70938637 30.38240375 -181.77422049 30.63997599 -183.83903503 30.89770508 C-189.21998007 31.56890926 -194.60119779 32.2379007 -199.98248291 32.90637207 C-205.39799302 33.57947946 -210.81324485 34.25465786 -216.22851562 34.9296875 C-225.14722462 36.04122492 -234.06611182 37.15132007 -242.98517704 38.25999546 C-247.94155132 38.87641325 -252.8976441 39.49501679 -257.85342407 40.11619568 C-258.92404178 40.25032616 -259.99465948 40.38445663 -261.09772015 40.52265167 C-263.14251032 40.77894016 -265.1872627 41.03553039 -267.23196888 41.2924881 C-276.58863347 42.46508713 -285.95453996 43.55434994 -295.32421875 44.61743164 C-303.2184264 45.51523599 -311.06790349 46.51200865 -318.89892578 47.87280273 C-327.77464888 49.41013465 -336.72899955 50.35680392 -345.6875 51.25 C-353.83055054 52.06785017 -361.87426749 53.2709044 -369.94921875 54.58984375 C-377.92939741 55.89020428 -385.94178605 56.943149 -393.98046875 57.80859375 C-394.76284912 57.89294678 -395.54522949 57.9772998 -396.35131836 58.06420898 C-397.84517017 58.2229766 -399.33944753 58.3778208 -400.83422852 58.52758789 C-404.83467167 58.94749845 -408.75792429 59.53317123 -412.7109375 60.28125 C-418.71710553 61.40740651 -424.74253219 62.12687283 -430.8125 62.8125 C-438.35418376 63.68915806 -445.8640615 64.62134333 -453.359375 65.83984375 C-459.69797265 66.81315633 -466.07131036 67.54430767 -472.4375 68.3125 C-472.52488991 63.93762669 -472.578024 59.56297922 -472.625 55.1875 C-472.65013672 53.95 -472.67527344 52.7125 -472.70117188 51.4375 C-472.71083984 50.23867187 -472.72050781 49.03984375 -472.73046875 47.8046875 C-472.7461792 46.70495605 -472.76188965 45.60522461 -472.77807617 44.47216797 C-472.38380858 40.8143822 -471.36738478 38.43022699 -469.4375 35.3125 C-466.8828125 34.39453125 -466.8828125 34.39453125 -463.5625 34.125 C-462.9339209 34.06513916 -462.3053418 34.00527832 -461.65771484 33.94360352 C-460.15949861 33.8016944 -458.66014895 33.6715092 -457.16015625 33.54980469 C-453.96527813 33.27134149 -450.78128086 32.92303108 -447.59375 32.5703125 C-435.64892404 31.26001222 -423.7301629 30.04496312 -411.72265625 29.5234375 C-408.49252799 29.37376667 -408.49252799 29.37376667 -405.55859375 28.8203125 C-400.7536719 28.03853548 -395.92838811 27.92348016 -391.0703125 27.70703125 C-387.80867026 27.54779282 -384.66236168 27.34997695 -381.4375 26.8125 C-376.67742511 26.01915418 -371.8857936 25.92158239 -367.0703125 25.70703125 C-366.30460937 25.66964844 -365.53890625 25.63226562 -364.75 25.59375 C-364.06550781 25.56345703 -363.38101563 25.53316406 -362.67578125 25.50195312 C-360.35305288 25.33930484 -360.35305288 25.33930484 -357.75073242 24.83764648 C-353.54595331 24.17119008 -349.35935346 23.89958534 -345.11328125 23.62890625 C-343.25976447 23.50457458 -341.40624888 23.38022501 -339.55273438 23.25585938 C-336.67283905 23.06622964 -333.79286957 22.87779255 -330.9128418 22.69018555 C-320.32180193 21.99624863 -309.77325644 21.1863373 -299.22358704 20.01673889 C-292.15591717 19.24728218 -285.08863505 18.79529131 -277.99047852 18.42138672 C-267.91621979 17.88706404 -257.88265995 17.26124557 -247.86230469 16.06469727 C-238.21725648 14.97140547 -228.50765174 14.54070075 -218.81835938 14.00976562 C-218.12063416 13.9705751 -217.42290894 13.93138458 -216.70404053 13.89100647 C-214.78949691 13.78392256 -212.87473441 13.68077286 -210.95996094 13.57788086 C-207.41754644 13.31099671 -203.95219463 12.82173487 -200.4375 12.3125 C-198.3703731 12.14425888 -196.30102785 12.00157154 -194.23046875 11.8828125 C-193.02398682 11.81118896 -191.81750488 11.73956543 -190.57446289 11.66577148 C-189.27114014 11.59044189 -187.96781738 11.5151123 -186.625 11.4375 C-183.77326355 11.26713476 -180.92175443 11.09319006 -178.0703125 10.91796875 C-177.31402054 10.87150711 -176.55772858 10.82504547 -175.77851868 10.7771759 C-166.78088068 10.218298 -157.78824174 9.58883241 -148.79605103 8.94891357 C-146.94484443 8.81721708 -145.09358753 8.68622564 -143.24227905 8.55596924 C-140.62101077 8.37130654 -137.99993616 8.18410633 -135.37890625 7.99609375 C-134.60815765 7.9419783 -133.83740906 7.88786285 -133.04330444 7.83210754 C-129.37145679 7.56542347 -125.71957862 7.24161109 -122.06323242 6.81030273 C-116.88048977 6.21664904 -111.69245678 5.93662649 -106.484375 5.6640625 C-104.33682289 5.54615813 -102.18928097 5.42806793 -100.04174805 5.30981445 C-97.7570001 5.18568389 -95.47225071 5.06157969 -93.1875 4.9375 C-74.43264281 3.95353538 -74.43264281 3.95353538 -55.71484375 2.44921875 C-54.62622292 2.34452522 -54.62622292 2.34452522 -53.51560974 2.23771667 C-52.4469442 2.13466972 -52.4469442 2.13466972 -51.35668945 2.02954102 C-34.23391429 0.38044399 -17.20039374 0.01653262 0 0 Z " fill="#D41820" transform="translate(829.4375,1544.6875)"/>
<path d="M0 0 C1.23122589 -0.00315216 2.46245178 -0.00630432 3.73098755 -0.009552 C5.06528764 -0.00776238 6.3995874 -0.00571147 7.73388672 -0.00341797 C9.10960914 -0.00409205 10.48533145 -0.00506295 11.86105347 -0.00631714 C14.73745869 -0.0077882 17.61383278 -0.00565793 20.49023438 -0.00097656 C24.1767988 0.00473114 27.86329058 0.00143142 31.54985237 -0.00454903 C34.38769072 -0.00816145 37.22551181 -0.0070131 40.06335068 -0.00442123 C41.42292159 -0.00375441 42.78249406 -0.00457185 44.14206314 -0.00690079 C46.04002096 -0.0094396 47.93798427 -0.00488411 49.8359375 0 C51.45545822 0.00119339 51.45545822 0.00119339 53.10769653 0.00241089 C55.78857422 0.12939453 55.78857422 0.12939453 58.78857422 1.12939453 C60.63564897 1.30559492 62.48759663 1.43237015 64.34039307 1.53175354 C66.07394672 1.62816604 66.07394672 1.62816604 67.84252167 1.72652626 C69.11152565 1.79316664 70.38052963 1.85980701 71.68798828 1.9284668 C73.0352664 2.00255798 74.38251779 2.07713648 75.72974396 2.15216637 C78.63728803 2.31370627 81.54492953 2.47329649 84.45265961 2.63145256 C92.3382473 3.06155726 100.22269836 3.51167196 108.10693359 3.96582031 C108.9220502 4.01274973 109.73716681 4.05967915 110.57698393 4.10803068 C128.08895423 5.12004569 145.58816962 6.29344877 163.08544922 7.53173828 C163.81161753 7.58309826 164.53778584 7.63445825 165.28595924 7.68737459 C174.15177251 8.31499562 183.01703287 8.95020132 191.88207483 9.58861411 C197.0657185 9.96167615 202.24958209 10.3315513 207.43359375 10.69946289 C246.07865889 13.44219867 284.71175494 16.31804942 323.33760452 19.31914711 C333.45579005 20.10501847 343.57489934 20.87799825 353.69482422 21.64111328 C355.06691531 21.74471982 356.43900598 21.84833194 357.81109619 21.95195007 C362.96565253 22.340889 368.12027421 22.7289572 373.27490234 23.11694336 C375.95994364 23.31909315 378.64496044 23.52156385 381.32995605 23.72431946 C383.74015598 23.90628723 386.15038815 24.08782909 388.56066895 24.26872253 C409.51487627 25.85139388 430.45714769 27.58669059 451.39794922 29.33642578 C453.23364346 29.48980187 453.23364346 29.48980187 455.10642242 29.64627647 C461.60615922 30.18955791 468.10583392 30.73357632 474.60546875 31.27807617 C479.84395013 31.71676832 485.08255703 32.15391108 490.32128906 32.58959961 C517.99254198 34.89158976 545.65725857 37.24923038 573.30419922 39.82861328 C574.41302208 39.93090555 575.52184494 40.03319782 576.66426849 40.13858986 C582.56537178 40.68466426 588.46315387 41.25224199 594.35676575 41.8743248 C595.9034343 42.03655317 597.45071085 42.19315769 598.998703 42.34222794 C600.8578611 42.52504279 602.71365421 42.74126823 604.56884766 42.96069336 C606.00861969 43.12097771 606.00861969 43.12097771 607.47747803 43.28450012 C610.67446799 44.45326106 611.36917185 46.11423743 612.78857422 49.12939453 C613.69358759 52.46772925 613.91667386 55.59431603 613.92138672 59.04345703 C613.92267578 59.97029297 613.92396484 60.89712891 613.92529297 61.85205078 C613.92142578 62.80982422 613.91755859 63.76759766 613.91357422 64.75439453 C613.91744141 65.68896484 613.92130859 66.62353516 613.92529297 67.58642578 C613.92400391 68.52099609 613.92271484 69.45556641 613.92138672 70.41845703 C613.91969482 71.6668335 613.91969482 71.6668335 613.91796875 72.94042969 C613.72540549 77.6862058 613.2473662 82.40288883 612.78857422 87.12939453 C612.16209991 87.0142601 611.53562561 86.89912567 610.89016724 86.78050232 C586.97780949 82.42989763 562.93716156 79.04360451 538.87463379 75.64593506 C533.57853723 74.89707244 528.28321411 74.14278115 522.98779297 73.38916016 C511.58538071 71.76759173 500.18136779 70.15750449 488.77685547 68.55078125 C485.83289453 68.13564427 482.88908011 67.71948399 479.9453125 67.30297852 C456.66478048 64.01011326 433.37597851 60.86702965 410.03857422 58.00439453 C404.79362268 57.3572478 399.54889001 56.70833826 394.30419922 56.05908203 C393.01757889 55.89999359 391.73095856 55.74090515 390.40534973 55.57699585 C373.47043776 53.47800772 356.54963732 51.26974243 339.62792969 49.06738281 C306.98517677 44.81910502 274.34489167 40.61273518 241.63212585 36.93202209 C240.69891006 36.82699875 239.76569427 36.7219754 238.80419922 36.61376953 C237.84580643 36.50596664 236.88741364 36.39816376 235.89997864 36.28709412 C225.99584074 35.16587373 216.09953477 33.98039099 206.20263672 32.79736328 C156.48240244 26.85746958 106.74255381 20.9453042 56.93035889 15.82369995 C54.51284839 15.57452401 52.09571029 15.32170037 49.67901611 15.06472778 C29.61428709 12.94223104 9.8198244 12.18702212 -10.27392578 14.37939453 C-11.57644287 14.51289307 -12.87895996 14.6463916 -14.22094727 14.78393555 C-24.32080654 15.83664716 -34.37953385 17.17916337 -44.43701172 18.57543945 C-54.77995591 19.99225351 -65.13992264 21.12462698 -75.52392578 22.19189453 C-78.75832401 22.52500291 -81.99271026 22.85822627 -85.22705078 23.19189453 C-86.00318726 23.27194733 -86.77932373 23.35200012 -87.57897949 23.43447876 C-100.09235243 24.73178341 -112.60166703 26.1363791 -125.04736328 27.98095703 C-125.991521 28.12073975 -126.93567871 28.26052246 -127.90844727 28.40454102 C-129.65392766 28.66717945 -131.39838551 28.93677579 -133.14135742 29.21557617 C-139.02393003 30.11338849 -144.10435757 30.12939453 -150.21142578 30.12939453 C-150.21142578 23.52939453 -150.21142578 16.92939453 -150.21142578 10.12939453 C-139.98289781 9.3705113 -129.75371128 8.62110465 -119.52392578 7.87939453 C-118.75084705 7.82328506 -117.97776833 7.7671756 -117.18126297 7.70936584 C-89.74954112 5.720912 -62.30835447 4.00554101 -34.84560776 2.50687408 C-32.00690309 2.35157415 -29.16833247 2.19390077 -26.32976913 2.03604126 C-24.39001579 1.92942961 -22.45002986 1.82707643 -20.51004028 1.72485352 C-19.35245209 1.66080322 -18.19486389 1.59675293 -17.00219727 1.53076172 C-15.99865707 1.47700378 -14.99511688 1.42324585 -13.96116638 1.36785889 C-11.2420891 1.18711174 -11.2420891 1.18711174 -8.73771667 0.61239624 C-5.77845201 0.04661425 -3.01306327 0.00221699 0 0 Z " fill="#D41920" transform="translate(150.21142578125,1899.87060546875)"/>
<path d="M0 0 C126.06 0 252.12 0 382 0 C382 15.84 382 31.68 382 48 C255.94 48 129.88 48 0 48 C0 32.16 0 16.32 0 0 Z " fill="#1B1C1D" transform="translate(0,987)"/>
<path d="M0 0 C0.33 0.66 0.66 1.32 1 2 C39.94 2 78.88 2 119 2 C119.91372921 4.74118762 120.18523923 6.63544174 120.31640625 9.48046875 C120.35878418 10.38571289 120.40116211 11.29095703 120.44482422 12.22363281 C120.60996219 16.38291695 120.76487328 20.5421284 120.89599609 24.70263672 C120.96488753 26.88678644 121.04064441 29.07073128 121.12353516 31.25439453 C121.87144736 52.23094486 121.87144736 52.23094486 117.4296875 59.97265625 C107.2354192 81.5588801 107.11029841 110.66636618 104.8125 134.1875 C104.72773407 135.05405212 104.64296814 135.92060425 104.55563354 136.81341553 C103.48491949 147.86614226 102.61315493 158.91203453 102 170 C102.66 170.33 103.32 170.66 104 171 C103.41436279 171.03314301 102.82872559 171.06628601 102.2253418 171.10043335 C95.99294272 171.45378032 89.76081402 171.81165348 83.52880859 172.171875 C81.21930155 172.30481466 78.90973308 172.43669254 76.60009766 172.56738281 C64.44566634 173.25586912 52.31417014 174.0235324 40.1875 175.1015625 C31.75737511 175.84998731 23.46875276 176.26837597 15 176 C14.7327476 170.97277621 14.46627671 165.94551172 14.20043945 160.91821289 C14.11046958 159.21865805 14.02030932 157.51911328 13.92993164 155.81958008 C13.79779994 153.33417543 13.66643815 150.84873091 13.53515625 148.36328125 C13.48990814 147.51511337 13.44466003 146.6669455 13.39804077 145.79307556 C13.17211818 141.50606457 12.96305192 137.2194032 12.78955078 132.92993164 C12.22224288 119.17693311 11.08452645 105.5110252 9.75 91.8125 C9.64150726 90.68556732 9.53301453 89.55863464 9.42123413 88.39755249 C8.02547434 73.99014891 6.45606381 59.62914446 4.3125 45.3125 C4.21022095 44.6279776 4.10794189 43.9434552 4.00256348 43.2381897 C3.1421227 37.55057888 2.26495524 31.9094373 0.86328125 26.328125 C-0.36758649 21.05726629 -0.2176592 15.82242528 -0.125 10.4375 C-0.11597656 9.42880859 -0.10695313 8.42011719 -0.09765625 7.38085938 C-0.07433356 4.92031543 -0.04160763 2.46029104 0 0 Z " fill="#311909" transform="translate(1302,1733)"/>
<path d="M0 0 C15.84 0 31.68 0 48 0 C48 114.84 48 229.68 48 348 C32.16 348 16.32 348 0 348 C0 233.16 0 118.32 0 0 Z " fill="#1B1C1D" transform="translate(929,342)"/>
<path d="M0 0 C16.17 0 32.34 0 49 0 C49 102.96 49 205.92 49 312 C32.83 312 16.66 312 0 312 C0 209.04 0 106.08 0 0 Z " fill="#1A1B1C" transform="translate(929,0)"/>
<path d="M0 0 C1.08188095 -0.00095673 2.1637619 -0.00191345 3.27842712 -0.00289917 C5.5551662 -0.00357679 7.83190726 -0.00175177 10.10864258 0.00244141 C13.58223832 0.00780077 17.05570509 0.00247948 20.52929688 -0.00390625 C22.7486982 -0.0032455 24.96809945 -0.00196439 27.1875 0 C28.21996353 -0.00202423 29.25242706 -0.00404846 30.31617737 -0.00613403 C35.49739241 0.01062213 40.40031993 0.30470847 45.52734375 1.1328125 C47.83401672 1.31412377 50.14298174 1.46784078 52.453125 1.59765625 C53.1053302 1.63516495 53.7575354 1.67267365 54.42950439 1.71131897 C55.8335536 1.79169109 57.23768092 1.87070823 58.64187622 1.94848633 C60.88568799 2.0728535 63.12925684 2.20100831 65.37280273 2.33007812 C70.09080318 2.60086926 74.80905191 2.86715397 79.52734375 3.1328125 C84.68461211 3.42330636 89.84174542 3.71592211 94.99862671 4.01321411 C96.98699044 4.12693024 98.97554678 4.2372635 100.96411133 4.34741211 C108.87831035 4.80211375 116.77513666 5.3825076 124.67578125 6.03125 C141.13369414 7.37904122 157.60905626 8.47247018 174.08398438 9.58795166 C178.32234 9.87525056 182.56057819 10.16427181 186.79882812 10.453125 C195.04155627 11.01465558 203.28441752 11.57419728 211.52734375 12.1328125 C211.52734375 18.7328125 211.52734375 25.3328125 211.52734375 32.1328125 C196.23383842 30.70773587 180.98374567 29.11197948 165.7504406 27.14904594 C143.33384034 24.27004765 120.87685668 21.80183181 98.40631104 19.38702393 C94.48386143 18.96468892 90.56177328 18.53905095 86.63968468 18.11337852 C76.12517663 16.97236867 65.60942825 15.84345976 55.09246826 14.72528076 C51.36260244 14.32870907 47.6330144 13.92965671 43.90362549 13.52862549 C39.39655775 13.04431927 34.88888833 12.56603619 30.38070869 12.09219551 C28.718089 11.91657443 27.05566848 11.73905508 25.39347649 11.55943108 C12.49552029 10.16799265 0.36700082 9.83732291 -12.54296875 11.375 C-13.66347626 11.50343292 -14.78398376 11.63186584 -15.93844604 11.76419067 C-19.49221703 12.17291403 -23.0449185 12.59021339 -26.59765625 13.0078125 C-28.95696584 13.28051445 -31.31634046 13.5526543 -33.67578125 13.82421875 C-40.27570119 14.5856158 -46.87436391 15.35745197 -53.47265625 16.1328125 C-55.15828449 16.33056657 -56.84391274 16.52832049 -58.52954102 16.72607422 C-61.32252366 17.05404672 -64.1154126 17.38279805 -66.90820312 17.71240234 C-69.14897761 17.97669095 -71.38984922 18.24015868 -73.63085938 18.50244141 C-85.53175587 19.8953963 -97.41341646 21.38454038 -109.28515625 23.0078125 C-123.99794884 25.0137471 -138.74486228 26.67927301 -153.50512695 28.29443359 C-163.23849904 29.36811142 -172.92931603 30.59531754 -182.61791992 32.01773071 C-191.33694681 33.28566655 -200.08006607 34.28817834 -208.83544922 35.26766968 C-223.37102112 36.89713778 -237.86171491 38.66817296 -252.33032227 40.81958008 C-259.6406868 41.89940005 -266.94651833 42.76705902 -274.30053711 43.48510742 C-279.38007694 43.98860715 -284.36053169 44.74501937 -289.3828125 45.640625 C-293.06747104 46.22756176 -296.76291129 46.62252988 -300.47265625 47.0078125 C-308.33714421 47.83104776 -316.14932797 48.92321264 -323.97265625 50.0703125 C-335.53269822 51.7603817 -347.10569065 53.17667571 -358.71484375 54.48046875 C-367.42024636 55.4583009 -376.10285081 56.49107338 -384.71484375 58.11328125 C-390.17877756 59.11878561 -395.6395423 59.78098358 -401.16015625 60.3828125 C-414.91122628 61.94666392 -428.57591361 64.04693648 -442.25268555 66.15136719 C-443.53052666 66.34696983 -443.53052666 66.34696983 -444.83418274 66.54652405 C-446.44737373 66.79378059 -448.06025599 67.04306247 -449.67277527 67.29466248 C-452.63947413 67.74965399 -455.46610939 68.1328125 -458.47265625 68.1328125 C-458.54697603 64.07609567 -458.60133758 60.01964404 -458.63745117 55.96240234 C-458.65251047 54.58310032 -458.67296238 53.20384597 -458.69897461 51.82470703 C-458.7354804 49.83907847 -458.75080478 47.85309632 -458.765625 45.8671875 C-458.78133545 44.67319336 -458.7970459 43.47919922 -458.81323242 42.24902344 C-458.44004398 38.83441603 -457.95759764 37.47317929 -455.47265625 35.1328125 C-453.54101562 34.43505859 -453.54101562 34.43505859 -451.31640625 34.15625 C-450.47255371 34.044021 -449.62870117 33.93179199 -448.75927734 33.81616211 C-447.83969238 33.71440674 -446.92010742 33.61265137 -445.97265625 33.5078125 C-445.0079541 33.38865479 -444.04325195 33.26949707 -443.04931641 33.14672852 C-433.04621674 31.96816124 -423.00346703 31.28443272 -412.95703125 30.59765625 C-407.3254266 30.20753484 -401.71260876 29.7130692 -396.09765625 29.1328125 C-395.29489258 29.05023193 -394.49212891 28.96765137 -393.66503906 28.88256836 C-392.06437203 28.71676415 -390.46378501 28.55018544 -388.86328125 28.3828125 C-374.48796106 26.87951104 -360.11374812 25.71648675 -345.68798828 24.83007812 C-344.46450684 24.75337891 -343.24102539 24.67667969 -341.98046875 24.59765625 C-340.35069092 24.49892212 -340.35069092 24.49892212 -338.68798828 24.39819336 C-335.25573425 24.11490861 -331.88020931 23.62726599 -328.47265625 23.1328125 C-327.01609527 23.01468005 -325.55752125 22.91728439 -324.09765625 22.8515625 C-322.96070312 22.79548828 -322.96070312 22.79548828 -321.80078125 22.73828125 C-320.24869792 22.66796875 -318.69661458 22.59765625 -317.14453125 22.52734375 C-312.52864937 22.29968971 -308.05122908 21.78912669 -303.47265625 21.1328125 C-300.82520553 20.98248407 -298.18426722 20.85927183 -295.53515625 20.7578125 C-287.09873092 20.3780879 -278.72262119 19.60940012 -270.3203125 18.77734375 C-251.75769936 16.97970676 -233.1644043 15.67651768 -214.56099701 14.38426208 C-207.13450719 13.86710177 -199.70863417 13.34108881 -192.28262711 12.81705093 C-189.51907855 12.62216371 -186.75549763 12.42774061 -183.99191284 12.23336792 C-168.77366934 11.16164494 -153.56031429 10.03113933 -138.34765625 8.8828125 C-122.35009449 7.67591315 -106.35316669 6.56444262 -90.33154297 5.72753906 C-88.48326904 5.62844238 -88.48326904 5.62844238 -86.59765625 5.52734375 C-85.54835938 5.47425049 -84.4990625 5.42115723 -83.41796875 5.36645508 C-80.47998747 5.17901863 -80.47998747 5.17901863 -77.63876343 4.64152527 C-74.69230005 4.16810366 -71.84776931 3.91208646 -68.86962891 3.75976562 C-67.25732895 3.67462708 -67.25732895 3.67462708 -65.61245728 3.58776855 C-64.46546356 3.53044556 -63.31846985 3.47312256 -62.13671875 3.4140625 C-60.94339935 3.35126099 -59.75007996 3.28845947 -58.52059937 3.22375488 C-54.71311136 3.0235556 -50.90541835 2.82772449 -47.09765625 2.6328125 C-43.297046 2.43772414 -39.49650645 2.24158744 -35.69613647 2.04187012 C-33.33448337 1.917781 -30.97269043 1.79631672 -28.61074829 1.67785645 C-21.98812762 1.33494911 -21.98812762 1.33494911 -15.40209961 0.59619141 C-10.25450128 -0.01083821 -5.17844517 -0.01017272 0 0 Z " fill="#D41820" transform="translate(2943.47265625,1544.8671875)"/>
<path d="M0 0 C1.13427811 3.94919239 0.75844877 6.89578724 0.14453125 10.98046875 C-0.06664154 12.44292956 -0.27705067 13.90550077 -0.48681641 15.36816406 C-0.65809052 16.5394989 -0.65809052 16.5394989 -0.83282471 17.73449707 C-6.73443709 58.55118981 -8.7129045 99.85599519 -11 141 C-26.36156657 140.44485252 -41.67406548 139.6150179 -57 138.4375 C-58.86585809 138.29716223 -60.73174353 138.15718762 -62.59765625 138.01757812 C-67.06542759 137.68253073 -71.53281037 137.34271237 -76 137 C-75.01 136.67 -74.02 136.34 -73 136 C-73.5938478 126.73892304 -74.1936537 117.47825412 -74.80032063 108.21800804 C-75.08209175 103.91438975 -75.36208476 99.61067385 -75.63745117 95.30664062 C-76.8163399 76.89969178 -78.09013243 58.5313164 -80.06990051 40.19052124 C-80.19145004 39.05982208 -80.31299957 37.92912292 -80.43823242 36.76416016 C-80.54681076 35.78935699 -80.6553891 34.81455383 -80.76725769 33.81021118 C-81.01151264 30.8609924 -81.03934289 27.9579489 -81 25 C-54.34399314 15.59294187 -27.11894738 7.93757161 0 0 Z " fill="#311909" transform="translate(339,1768)"/>
<path d="M0 0 C27.39 0 54.78 0 83 0 C81.68 12.21 80.36 24.42 79 37 C77.20491964 56.53875933 75.64065271 76.0154752 74.64599609 95.60424805 C74.5909491 96.64319969 74.5909491 96.64319969 74.53479004 97.70314026 C74.43600839 99.57550279 74.34257702 101.44814541 74.24951172 103.32080078 C74 106 74 106 73 107 C71.0056827 107.09405142 69.00800457 107.11743249 67.01147461 107.11352539 C65.73022202 107.11344986 64.44896942 107.11337433 63.12889099 107.11329651 C61.72004152 107.10818909 60.31119244 107.10297309 58.90234375 107.09765625 C57.46887766 107.09579202 56.03541093 107.09436814 54.60194397 107.09336853 C50.82240043 107.08954372 47.0428951 107.07971377 43.2633667 107.06866455 C39.40930702 107.05844963 35.55524118 107.05387074 31.70117188 107.04882812 C24.13409713 107.03809146 16.56705391 107.02101549 9 107 C8.5808571 102.79830805 8.16522501 98.59628667 7.75259399 94.39395142 C7.61228118 92.96974727 7.47107301 91.545631 7.32888794 90.12161255 C6.39429694 80.75385281 5.61986389 71.40403398 5.29199219 61.9921875 C5.15368683 58.20628668 4.74689713 54.70373315 4 51 C3.82076664 49.43488222 3.66640714 47.86674489 3.53515625 46.296875 C3.4582959 45.40726074 3.38143555 44.51764648 3.30224609 43.60107422 C3.22312988 42.66021973 3.14401367 41.71936523 3.0625 40.75 C2.35058285 32.50782349 1.47503528 24.31526105 0.3671875 16.1171875 C-0.11017424 10.76464198 0 5.37378989 0 0 Z " fill="#563616" transform="translate(785,2263)"/>
<path d="M0 0 C28.11538953 1.44997451 56.15390854 3.69895484 84.2097702 6.01086807 C90.4165021 6.52165419 96.6235583 7.02847213 102.83056641 7.53588867 C113.69370789 8.42458501 124.55651532 9.31728873 135.41916847 10.21193218 C143.57721798 10.88358907 151.73564927 11.55045011 159.89427185 12.21510315 C182.92162904 14.09127895 205.94137302 16.01957107 228.9375 18.25 C229.8005072 18.33335602 230.6635144 18.41671204 231.55267334 18.50259399 C233.91958707 18.73265678 236.28604554 18.96682394 238.65234375 19.203125 C240.61675415 19.39890137 240.61675415 19.39890137 242.62084961 19.59863281 C248.68814375 20.31929112 248.68814375 20.31929112 251 21 C254.39216672 26.08825008 254.19266346 31.21466646 254.1875 37.1875 C254.18814453 37.96399902 254.18878906 38.74049805 254.18945312 39.54052734 C254.1138472 48.09946196 253.12209252 56.52419403 252 65 C251.34 65 250.68 65 250 65 C249.01 61.04 249.01 61.04 248 57 C246.60587891 56.81824219 246.60587891 56.81824219 245.18359375 56.6328125 C243.94738281 56.46523437 242.71117187 56.29765625 241.4375 56.125 C240.21933594 55.96257812 239.00117188 55.80015625 237.74609375 55.6328125 C234 55 234 55 230.71801758 54.02075195 C227.03483955 53.00956492 223.55774001 52.4624052 219.765625 52.03515625 C219.09496506 51.95740463 218.42430511 51.87965302 217.73332214 51.79954529 C216.30847489 51.63454306 214.88335059 51.47191794 213.45797729 51.31152344 C209.71644291 50.88954004 205.97728508 50.44768355 202.23828125 50.00390625 C201.50758926 49.91730743 200.77689728 49.83070862 200.02406311 49.7414856 C194.80513207 49.11529876 189.61952671 48.37678149 184.4375 47.5 C176.32001247 46.13690616 168.1698254 45.12008799 160 44.125 C149.53722245 42.85031405 139.09997521 41.46625035 128.67169189 39.9347229 C112.44947661 37.55258234 96.19556959 35.51274837 79.91748047 33.55093384 C66.49259257 31.93267264 53.08940491 30.23877532 39.7019043 28.33447266 C30.52448411 27.03963011 21.3290458 25.95460792 12.11547852 24.95043945 C11.10670654 24.83917725 10.09793457 24.72791504 9.05859375 24.61328125 C8.17486084 24.51829346 7.29112793 24.42330566 6.38061523 24.32543945 C4 24 4 24 0 23 C0 15.41 0 7.82 0 0 Z " fill="#E00612" transform="translate(0,1557)"/>
<path d="M0 0 C-0.08337112 0.92589684 -0.08337112 0.92589684 -0.16842651 1.87049866 C-1.60927815 17.90226831 -2.84647046 33.94516849 -4 50 C-3.34 50.33 -2.68 50.66 -2 51 C-2.58563721 51.03314301 -3.17127441 51.06628601 -3.7746582 51.10043335 C-10.00705728 51.45378032 -16.23918598 51.81165348 -22.47119141 52.171875 C-24.78069845 52.30481466 -27.09026692 52.43669254 -29.39990234 52.56738281 C-41.55433366 53.25586912 -53.68582986 54.0235324 -65.8125 55.1015625 C-74.24262489 55.84998731 -82.53124724 56.26837597 -91 56 C-91.28978104 50.84482621 -91.5743632 45.68939871 -91.85449219 40.53369141 C-91.95012973 38.78622019 -92.04709532 37.03882105 -92.14550781 35.29150391 C-92.73277642 24.84651232 -93.15564791 14.46516038 -93 4 C-85.80416772 3.58727322 -78.6080966 3.17890155 -71.41186523 2.77319336 C-68.97724149 2.63546276 -66.54266863 2.49682896 -64.1081543 2.35717773 C-50.89494752 1.59987207 -37.68266707 0.90449722 -24.45703125 0.40234375 C-23.38088058 0.36065567 -22.30472992 0.31896759 -21.19596863 0.27601624 C-14.12795956 0.02236395 -7.0722621 -0.04574019 0 0 Z " fill="#563616" transform="translate(1408,1853)"/>
<path d="M0 0 C25.41 0 50.82 0 77 0 C77 8.05794602 76.9303933 15.89276035 76.34375 23.89453125 C76.28477539 24.74640015 76.22580078 25.59826904 76.16503906 26.47595215 C75.94826404 29.58848024 75.72371041 32.7004627 75.5 35.8125 C75.005 42.804375 74.51 49.79625 74 57 C50.9 57 27.8 57 4 57 C3.525625 50.750625 3.05125 44.50125 2.5625 38.0625 C2.41498291 36.12898682 2.26746582 34.19547363 2.11547852 32.20336914 C1.99484287 30.60563993 1.87431249 29.00790277 1.75390625 27.41015625 C1.66441711 26.24510559 1.66441711 26.24510559 1.57312012 25.05651855 C0.94661903 16.70773764 0.49188479 8.36204137 0 0 Z " fill="#563617" transform="translate(2086,2313)"/>
<path d="M0 0 C4.62 0 9.24 0 14 0 C14 38.28 14 76.56 14 116 C9.38 116 4.76 116 0 116 C0 77.72 0 39.44 0 0 Z " fill="#000000" transform="translate(3155,2386)"/>
<path d="M0 0 C38.28 0 76.56 0 116 0 C116 2.64 116 5.28 116 8 C77.72 8 39.44 8 0 8 C0 5.36 0 2.72 0 0 Z " fill="#261105" transform="translate(1304,1664)"/>
<path d="M0 0 C42.24 0 84.48 0 128 0 C128 2.31 128 4.62 128 7 C85.76 7 43.52 7 0 7 C0 4.69 0 2.38 0 0 Z " fill="#1A0A02" transform="translate(1301,1594)"/>
<path d="M0 0 C0.33 0.66 0.66 1.32 1 2 C39.94 2 78.88 2 119 2 C119.495 5.465 119.495 5.465 120 9 C80.4 9 40.8 9 0 9 C0 6.03 0 3.06 0 0 Z " fill="#251005" transform="translate(1302,1733)"/>
<path d="M0 0 C36.63 0 73.26 0 111 0 C111 2.31 111 4.62 111 7 C74.37 7 37.74 7 0 7 C0 4.69 0 2.38 0 0 Z " fill="#1A0A02" transform="translate(2373,1594)"/>
<path d="M0 0 C29.37 0 58.74 0 89 0 C89 3.63 89 7.26 89 11 C88.505 9.515 88.505 9.515 88 8 C59.29 8 30.58 8 1 8 C1 11.96 1 15.92 1 20 C0.67 20 0.34 20 0 20 C0 13.4 0 6.8 0 0 Z " fill="#42240D" transform="translate(1316,1876)"/>
<path d="M0 0 C34.65 0.33 69.3 0.66 105 1 C104.67 3.31 104.34 5.62 104 8 C70.01 8 36.02 8 1 8 C0.67 5.36 0.34 2.72 0 0 Z " fill="#251005" transform="translate(1310,1805)"/>
<path d="M0 0 C33.66 0 67.32 0 102 0 C102 2.31 102 4.62 102 7 C68.34 7 34.68 7 0 7 C0 4.69 0 2.38 0 0 Z " fill="#251005" transform="translate(2375,1735)"/>
<path d="M0 0 C31.35 0 62.7 0 95 0 C94.67 2.31 94.34 4.62 94 7 C63.31 7 32.62 7 1 7 C0.67 4.69 0.34 2.38 0 0 Z " fill="#251005" transform="translate(2375,1806)"/>
<path d="M0 0 C25.08 0 50.16 0 76 0 C75.67 2.64 75.34 5.28 75 8 C50.25 8 25.5 8 0 8 C0 5.36 0 2.72 0 0 Z " fill="#261105" transform="translate(2385,1876)"/>
<path d="M0 0 C24.42 0 48.84 0 74 0 C74 3.63 74 7.26 74 11 C73.505 9.02 73.505 9.02 73 7 C49.24 7 25.48 7 1 7 C0.67 8.32 0.34 9.64 0 11 C0 7.37 0 3.74 0 0 Z " fill="#3F220C" transform="translate(789,2303)"/>
<path d="M0 0 C24.75 0 49.5 0 75 0 C74.67 2.31 74.34 4.62 74 7 C49.58 7 25.16 7 0 7 C0 4.69 0 2.38 0 0 Z " fill="#251005" transform="translate(260,1806)"/>
<path d="M0 0 C21.12 0 42.24 0 64 0 C64 2.64 64 5.28 64 8 C42.88 8 21.76 8 0 8 C0 5.36 0 2.72 0 0 Z " fill="#261105" transform="translate(265,1876)"/>
<path d="M0 0 C9.66481425 0.5827975 19.19011502 1.72887732 28.76953125 3.10180664 C31.15511702 3.44179218 33.54226042 3.7689283 35.9296875 4.09570312 C37.45583871 4.3117275 38.98188479 4.52849621 40.5078125 4.74609375 C41.21712921 4.84200302 41.92644592 4.93791229 42.65725708 5.03672791 C46.10236837 5.542739 48.04830377 6.03220251 51 8 C25.755 8.495 25.755 8.495 0 9 C0 6.03 0 3.06 0 0 Z " fill="#311908" transform="translate(2376,1656)"/>
</svg>
