<?xml version="1.0" encoding="UTF-8"?>
<svg version="1.1" xmlns="http://www.w3.org/2000/svg" width="3201" height="1658">
<path d="M0 0 C1056.33 0 2112.66 0 3201 0 C3201 547.14 3201 1094.28 3201 1658 C2144.67 1658 1088.34 1658 0 1658 C0 1110.86 0 563.72 0 0 Z " fill="#0E1216" transform="translate(0,0)"/>
<path d="M0 0 C0.79608673 0.04290161 1.59217346 0.08580322 2.41238403 0.13000488 C70.1970727 3.89549376 141.65268045 22.07906658 199.98828125 57.76171875 C202.44803893 59.25640404 204.95193012 60.59985968 207.5 61.9375 C220.4706767 68.95780837 233.90572703 77.01630028 245.4375 86.25 C245.4375 86.91 245.4375 87.57 245.4375 88.25 C246.200625 88.53875 246.96375 88.8275 247.75 89.125 C250.4375 90.25 250.4375 90.25 253.4375 92.25 C253.4375 92.91 253.4375 93.57 253.4375 94.25 C254.12199219 94.46269531 254.80648437 94.67539063 255.51171875 94.89453125 C259.34111287 96.66862973 262.11300771 99.15033761 265.25 101.9375 C265.87165039 102.48059814 266.49330078 103.02369629 267.13378906 103.58325195 C268.36137531 104.65682901 269.58655874 105.73316107 270.80908203 106.8125 C272.7580743 108.53298973 274.72331139 110.23439985 276.6875 111.9375 C277.93842066 113.04062353 279.18827213 114.14495983 280.4375 115.25 C281.50689819 116.19214355 281.50689819 116.19214355 282.59790039 117.15332031 C288.66055953 122.54595185 294.48258416 128.13897741 300.20678711 133.88891602 C301.63087492 135.31839717 303.06028044 136.74240511 304.49023438 138.16601562 C309.6824695 143.36548732 314.6834218 148.64800158 319.4375 154.25 C320.32618174 155.27139155 321.2154651 156.2922601 322.10546875 157.3125 C338.84782338 176.8322685 353.43212437 198.08242143 366.4375 220.25 C366.84000977 220.93255859 367.24251953 221.61511719 367.65722656 222.31835938 C402.61960534 282.06600585 422.13988934 350.55443148 424.01048183 419.71552849 C424.03088361 420.43460591 424.05128539 421.15368333 424.07230541 421.89455097 C424.56888588 439.72511466 424.56144573 457.55364537 424.52482699 475.3896621 C424.51605845 480.24177467 424.51345851 485.09389174 424.51000541 489.94601047 C424.50316428 498.41247176 424.49254965 506.87892143 424.47933006 515.34537506 C424.45969137 527.93429879 424.44609926 540.52322421 424.43366829 553.11215687 C424.41258082 574.29803477 424.38670544 595.48390422 424.35803413 616.6697731 C424.32969076 637.62505994 424.30351667 658.58034767 424.28019524 679.53564072 C424.27801261 681.49520204 424.27801261 681.49520204 424.27578588 683.49435045 C424.26840641 690.12964822 424.26106527 696.76494603 424.25373887 703.40024386 C424.23883669 716.88702749 424.22357897 730.37381072 424.20818233 743.8605938 C424.20741256 744.53511442 424.20664279 745.20963505 424.20584969 745.90459569 C424.16845335 778.64815177 424.12723495 811.39170287 424.08569336 844.13525391 C424.07129501 855.48588049 424.05691364 866.83650709 424.04260254 878.18713379 C424.04171484 878.89118257 424.04082715 879.59523136 424.03991255 880.32061495 C423.99860747 913.09894437 423.96004264 945.87727685 423.92215384 978.65561038 C423.91967184 980.80245794 423.91718806 982.9493055 423.91470367 985.09615307 C423.88607228 1009.83840607 423.85760668 1034.58065927 423.82918935 1059.32291253 C423.70544912 1166.96528398 423.57062442 1274.60763891 423.4375 1382.25 C126.7675 1382.25 -169.9025 1382.25 -475.5625 1382.25 C-475.64325728 1147.69495251 -475.64325728 1147.69495251 -475.65882993 1057.70401573 C-475.66303582 1033.46047749 -475.66735443 1009.21693928 -475.67195851 984.97340111 C-475.67236231 982.84107835 -475.67276266 980.70875559 -475.67316218 978.57643282 C-475.67928497 945.96591178 -475.68707323 913.35539224 -475.6998291 880.74487305 C-475.7001029 880.04482258 -475.7003767 879.34477211 -475.70065879 878.62350799 C-475.70508294 867.33828166 -475.70965039 856.0530554 -475.71423688 844.76782913 C-475.72746247 812.22042075 -475.73960975 779.67301353 -475.74477959 747.12560272 C-475.74488666 746.45476649 -475.74499373 745.78393026 -475.74510404 745.09276566 C-475.74733202 731.02006557 -475.7491065 716.94736546 -475.75032998 702.87466524 C-475.75090622 696.28183553 -475.7515575 689.68900584 -475.75225449 683.09617615 C-475.75238933 681.79871162 -475.75252418 680.50124708 -475.75266311 679.16446545 C-475.75501941 658.34409902 -475.76427618 637.52374121 -475.77616407 616.70337828 C-475.78798885 595.73240089 -475.79242344 574.76143196 -475.78950275 553.79045135 C-475.78799056 541.35685405 -475.79195609 528.92328793 -475.80409509 516.48969631 C-475.81167435 508.15075639 -475.81177241 499.81183655 -475.80616363 491.47289516 C-475.80318528 486.74286269 -475.80309933 482.01288857 -475.81226636 477.28286272 C-475.84670759 458.37477539 -475.58694079 439.52748862 -474.62949944 420.64086151 C-474.58769505 419.81433407 -474.54589065 418.98780662 -474.50281946 418.13623289 C-472.17257275 373.10419777 -463.70111769 329.70267404 -448.5625 287.25 C-448.27632813 286.43595703 -447.99015625 285.62191406 -447.6953125 284.78320312 C-444.50894555 275.75253443 -440.76832238 267.04023105 -436.60449219 258.41943359 C-435.41277917 255.93828039 -434.2409944 253.44817478 -433.0703125 250.95703125 C-432.19293121 249.09624906 -431.31532814 247.23557143 -430.4375 245.375 C-430.02983398 244.50721924 -429.62216797 243.63943848 -429.20214844 242.74536133 C-415.10517268 213.0353307 -395.72312597 185.33843447 -374.5625 160.25 C-374.10907227 159.71165527 -373.65564453 159.17331055 -373.18847656 158.61865234 C-361.45755338 144.72099552 -349.45881807 130.86731526 -335.61328125 119.01953125 C-333.28683417 117.01213977 -331.02057314 114.94533362 -328.75 112.875 C-301.64726923 88.45775323 -270.84376232 68.1001797 -238.5625 51.25 C-237.84932617 50.87681641 -237.13615234 50.50363281 -236.40136719 50.11914062 C-231.82894116 47.74263836 -227.2108401 45.47381544 -222.5625 43.25 C-221.40572754 42.69046631 -221.40572754 42.69046631 -220.22558594 42.11962891 C-152.19614257 9.41573802 -75.13026526 -4.05815279 0 0 Z " fill="#3F3735" transform="translate(776.5625,117.75)"/>
<path d="M0 0 C2.26882203 1.38087531 4.55677679 2.67648103 6.8828125 3.95703125 C11.48847448 6.50234072 16.00809364 9.16969698 20.5 11.91015625 C21.28012451 12.38582031 22.06024902 12.86148438 22.86401367 13.3515625 C28.22410421 16.65383544 33.34913097 20.13032906 38.36328125 23.94140625 C40.65160762 25.68274543 40.65160762 25.68274543 43.41796875 27.19140625 C44.14628906 27.65546875 44.87460938 28.11953125 45.625 28.59765625 C45.625 29.25765625 45.625 29.91765625 45.625 30.59765625 C46.945 30.92765625 48.265 31.25765625 49.625 31.59765625 C49.625 32.25765625 49.625 32.91765625 49.625 33.59765625 C50.945 33.92765625 52.265 34.25765625 53.625 34.59765625 C53.625 35.25765625 53.625 35.91765625 53.625 36.59765625 C54.30949219 36.81035156 54.99398437 37.02304688 55.69921875 37.2421875 C59.52861287 39.01628598 62.30050771 41.49799386 65.4375 44.28515625 C66.05915039 44.82825439 66.68080078 45.37135254 67.32128906 45.9309082 C68.54887531 47.00448526 69.77405874 48.08081732 70.99658203 49.16015625 C72.9455743 50.88064598 74.91081139 52.5820561 76.875 54.28515625 C78.12592066 55.38827978 79.37577213 56.49261608 80.625 57.59765625 C81.69439819 58.5397998 81.69439819 58.5397998 82.78540039 59.50097656 C88.84805953 64.8936081 94.67008416 70.48663366 100.39428711 76.23657227 C101.81837492 77.66605342 103.24778044 79.09006136 104.67773438 80.51367188 C109.86933126 85.71250444 114.88832979 90.98120408 119.625 96.59765625 C120.16036377 97.22631592 120.69572754 97.85497559 121.24731445 98.50268555 C142.22891478 123.28313914 160.25737327 149.99623883 175.625 178.59765625 C176.09357422 179.46616211 176.56214844 180.33466797 177.04492188 181.22949219 C194.35755389 213.65691144 206.52569157 248.80682425 214.625 284.59765625 C214.84639648 285.55043457 215.06779297 286.50321289 215.29589844 287.48486328 C218.30300046 300.58849799 220.31684079 313.75584967 221.875 327.09765625 C221.95808411 327.77566284 222.04116821 328.45366943 222.12677002 329.15222168 C223.37295196 339.49061472 223.85787416 349.83904511 224.16966152 360.24368954 C224.19119501 360.95207798 224.21272849 361.66046643 224.23491451 362.39032119 C224.76056024 380.15428648 224.74869599 397.91481151 224.71232699 415.68493057 C224.70356559 420.5471167 224.7009596 425.4093073 224.69750541 430.27149957 C224.69066145 438.75719833 224.68004483 447.24288553 224.66683006 455.72857666 C224.64719849 468.34612225 224.6336021 480.96366953 224.62116829 493.58122401 C224.60007658 514.81485219 224.57420061 536.04847195 224.54553413 557.28209114 C224.51719411 578.28565298 224.49101968 599.28921571 224.46769524 620.29278374 C224.46551261 622.25660721 224.46551261 622.25660721 224.46328588 624.26010388 C224.45664752 630.24200453 224.45003618 636.22390521 224.44344642 642.20580592 C224.42781666 656.38987933 224.4118394 670.57395235 224.39568233 684.75802517 C224.39491256 685.43403202 224.39414279 686.11003888 224.39334969 686.80653079 C224.35595022 719.62501148 224.314733 752.44348722 224.27319336 785.26196289 C224.25879505 796.63905839 224.24441371 808.01615391 224.23010254 819.39324951 C224.22921484 820.09893674 224.22832715 820.80462396 224.22741255 821.53169565 C224.18611014 854.38415828 224.14754427 887.23662396 224.10965384 920.08909068 C224.10717184 922.24070311 224.10468805 924.39231554 224.10220367 926.54392796 C224.07357243 951.34097553 224.04510679 976.1380233 224.01668935 1000.93507112 C223.89294102 1108.82260843 223.75812115 1216.71012927 223.625 1324.59765625 C-73.045 1324.59765625 -369.715 1324.59765625 -675.375 1324.59765625 C-675.45575728 1090.08298741 -675.45575728 1090.08298741 -675.47132993 1000.09983695 C-675.4755358 975.8584868 -675.47985441 951.61713669 -675.48445851 927.37578662 C-675.48486231 925.24366447 -675.48526266 923.11154232 -675.48566218 920.97942016 C-675.49178471 888.37334361 -675.49957247 855.76726855 -675.5123291 823.16119385 C-675.5126029 822.46128028 -675.5128767 821.76136671 -675.51315879 821.04024364 C-675.51758292 809.75728033 -675.52215038 798.47431707 -675.52673688 787.19135382 C-675.53996308 754.64903589 -675.55211015 722.10671912 -675.55727959 689.56439877 C-675.55738666 688.89361607 -675.55749373 688.22283338 -675.55760404 687.53172393 C-675.55983206 673.45989483 -675.56160652 659.38806571 -675.56282998 645.31623648 C-675.56340622 638.72372752 -675.56405749 632.13121858 -675.56475449 625.53870964 C-675.56488933 624.24131253 -675.56502418 622.94391542 -675.56516311 621.60720325 C-675.5675191 600.79075365 -675.57677503 579.97431267 -675.58866407 559.15786657 C-675.60049093 538.18911228 -675.60492293 517.22036647 -675.60200275 496.25160898 C-675.60049095 483.82044373 -675.60445253 471.38930967 -675.61659509 458.9581501 C-675.62417748 450.61955494 -675.62427029 442.28097985 -675.61866363 433.94238322 C-675.61568685 429.21336788 -675.61559241 424.48441087 -675.62476636 419.75540216 C-675.65962226 400.63341136 -675.38468817 381.57077979 -674.44590569 362.4692831 C-674.40436817 361.61825063 -674.36283066 360.76721816 -674.32003443 359.89039683 C-673.595897 345.38409461 -672.39495215 330.98805779 -670.375 316.59765625 C-670.17052246 315.11918213 -670.17052246 315.11918213 -669.96191406 313.61083984 C-663.05529054 265.09699359 -646.97196478 217.77674928 -623.55859375 174.77929688 C-622.48167506 172.79428338 -621.42609107 170.79954277 -620.375 168.80078125 C-607.77354457 145.23652689 -591.57112076 122.98569909 -574.375 102.59765625 C-573.92157227 102.05931152 -573.46814453 101.5209668 -573.00097656 100.96630859 C-561.27005338 87.06865177 -549.27131807 73.21497151 -535.42578125 61.3671875 C-533.09933417 59.35979602 -530.83307314 57.29298987 -528.5625 55.22265625 C-523.30865057 50.49419177 -517.90822958 45.9951541 -512.375 41.59765625 C-511.81055176 41.14471191 -511.24610352 40.69176758 -510.66455078 40.22509766 C-492.80671039 25.95706232 -473.48333593 12.95110627 -453.52294922 1.80029297 C-452.00971817 0.95303494 -450.50134696 0.09706795 -448.99658203 -0.76513672 C-374.15066311 -43.63972869 -285.99749684 -62.21456215 0 0 Z " fill="#3F3735" transform="translate(2676.375,175.40234375)"/>
<path d="M0 0 C135.96 0 271.92 0 412 0 C412 89.43 412 178.86 412 271 C276.04 271 140.08 271 0 271 C0 181.57 0 92.14 0 0 Z " fill="#1E222B" transform="translate(2023,646)"/>
<path d="M0 0 C135.96 0 271.92 0 412 0 C412 89.43 412 178.86 412 271 C276.04 271 140.08 271 0 271 C0 181.57 0 92.14 0 0 Z " fill="#1E222B" transform="translate(323,646)"/>
<path d="M0 0 C1.23295191 0.00037972 2.46590382 0.00075944 3.73621792 0.00115067 C4.76616826 -0.0005801 4.76616826 -0.0005801 5.81692567 -0.00234583 C8.14667479 -0.00501912 10.47635652 -0.00048453 12.80610222 0.00394398 C14.48163439 0.00350842 16.15716649 0.0026338 17.83269823 0.00135481 C22.45948646 -0.0008932 27.08625177 0.0031353 31.71303707 0.00813287 C36.69397946 0.01243282 41.67492046 0.01099128 46.65586418 0.0102306 C55.29317671 0.00970507 63.93048172 0.01285485 72.56779236 0.01846844 C85.05604728 0.02657958 97.54429854 0.02919826 110.03255581 0.03045643 C130.29166299 0.03264756 150.55076614 0.03930929 170.80987114 0.04875904 C190.49509229 0.05793159 210.18031235 0.06500173 229.8655352 0.06926686 C231.70279254 0.06966885 231.70279254 0.06966885 233.5771662 0.07007897 C243.15554802 0.07215827 252.73392986 0.07411524 262.31231171 0.07603353 C309.2990507 0.08547509 356.28577964 0.10559152 403.27251762 0.1241985 C403.27251762 89.5541985 403.27251762 178.9841985 403.27251762 271.1241985 C268.96251762 271.1241985 134.65251762 271.1241985 -3.72748238 271.1241985 C-3.74810738 226.5948235 -3.76873238 182.0654485 -3.78998238 136.1866985 C-3.79908638 122.09990406 -3.80819039 108.01310963 -3.81757027 93.49944264 C-3.82208687 76.36528736 -3.82208687 76.36528736 -3.8229261 68.35709339 C-3.82386191 62.73546646 -3.82754381 57.11384937 -3.83305794 51.49222523 C-3.8394 45.01701374 -3.84232381 38.54181175 -3.84092733 32.06659713 C-3.84032198 28.75056927 -3.84186509 25.4345798 -3.84669751 22.11855286 C-3.85162125 18.57724988 -3.85049088 15.03600121 -3.8477369 11.49469715 C-3.85064956 10.44735118 -3.85356222 9.40000521 -3.85656315 8.32092148 C-3.85457228 7.3781164 -3.85258141 6.43531132 -3.85053021 5.46393639 C-3.85090993 4.6441202 -3.85128965 3.824304 -3.85168087 2.97964489 C-3.64882756 -0.05085443 -3.06070744 0.13937222 0 0 Z " fill="#1E222B" transform="translate(2470.727482378483,645.8758015036583)"/>
<path d="M0 0 C1.23295191 0.00037972 2.46590382 0.00075944 3.73621792 0.00115067 C4.76616826 -0.0005801 4.76616826 -0.0005801 5.81692567 -0.00234583 C8.14667479 -0.00501912 10.47635652 -0.00048453 12.80610222 0.00394398 C14.48163439 0.00350842 16.15716649 0.0026338 17.83269823 0.00135481 C22.45948646 -0.0008932 27.08625177 0.0031353 31.71303707 0.00813287 C36.69397946 0.01243282 41.67492046 0.01099128 46.65586418 0.0102306 C55.29317671 0.00970507 63.93048172 0.01285485 72.56779236 0.01846844 C85.05604728 0.02657958 97.54429854 0.02919826 110.03255581 0.03045643 C130.29166299 0.03264756 150.55076614 0.03930929 170.80987114 0.04875904 C190.49509229 0.05793159 210.18031235 0.06500173 229.8655352 0.06926686 C231.70279254 0.06966885 231.70279254 0.06966885 233.5771662 0.07007897 C243.15554802 0.07215827 252.73392986 0.07411524 262.31231171 0.07603353 C309.2990507 0.08547509 356.28577964 0.10559152 403.27251762 0.1241985 C403.27251762 89.5541985 403.27251762 178.9841985 403.27251762 271.1241985 C268.96251762 271.1241985 134.65251762 271.1241985 -3.72748238 271.1241985 C-3.74810738 226.5948235 -3.76873238 182.0654485 -3.78998238 136.1866985 C-3.79908638 122.09990406 -3.80819039 108.01310963 -3.81757027 93.49944264 C-3.82208687 76.36528736 -3.82208687 76.36528736 -3.8229261 68.35709339 C-3.82386191 62.73546646 -3.82754381 57.11384937 -3.83305794 51.49222523 C-3.8394 45.01701374 -3.84232381 38.54181175 -3.84092733 32.06659713 C-3.84032198 28.75056927 -3.84186509 25.4345798 -3.84669751 22.11855286 C-3.85162125 18.57724988 -3.85049088 15.03600121 -3.8477369 11.49469715 C-3.85064956 10.44735118 -3.85356222 9.40000521 -3.85656315 8.32092148 C-3.85457228 7.3781164 -3.85258141 6.43531132 -3.85053021 5.46393639 C-3.85090993 4.6441202 -3.85128965 3.824304 -3.85168087 2.97964489 C-3.64882756 -0.05085443 -3.06070744 0.13937222 0 0 Z " fill="#1E222B" transform="translate(770.7274823784828,645.8758015036583)"/>
<path d="M0 0 C117.48 0 234.96 0 356 0 C356 89.43 356 178.86 356 271 C219.71 271 83.42 271 -57 271 C-57 182.43076974 -52.07156739 98.33315529 -10 19 C-9.64244629 18.32308105 -9.28489258 17.64616211 -8.91650391 16.94873047 C-7.1778103 13.66233323 -5.42865636 10.38193582 -3.6640625 7.109375 C-2.40609813 4.75881247 -1.19227669 2.38455338 0 0 Z " fill="#161B27" transform="translate(2079,353)"/>
<path d="M0 0 C117.48 0 234.96 0 356 0 C356 89.43 356 178.86 356 271 C219.71 271 83.42 271 -57 271 C-57 173.49847623 -49.21833907 86.13209338 0 0 Z " fill="#161B27" transform="translate(379,353)"/>
<path d="M0 0 C116.16 0 232.32 0 352 0 C400.22375274 89.02846659 409.18440931 170.51717166 407 271 C272.69 271 138.38 271 0 271 C0 181.57 0 92.14 0 0 Z " fill="#161B27" transform="translate(767,353)"/>
<path d="M0 0 C116.16 0 232.32 0 352 0 C381.60347107 54.65256197 402.39227197 112.59921801 407 175 C407.13027588 176.7636792 407.13027588 176.7636792 407.26318359 178.56298828 C409.41684463 209.28981875 407.66765824 240.2877209 407 271 C272.69 271 138.38 271 0 271 C0 181.57 0 92.14 0 0 Z " fill="#161B27" transform="translate(2467,353)"/>
<path d="M0 0 C135.63 0 271.26 0 411 0 C411 80.52 411 161.04 411 244 C275.37 244 139.74 244 0 244 C0 163.48 0 82.96 0 0 Z " fill="#2F3233" transform="translate(2023,1235)"/>
<path d="M0 0 C135.63 0 271.26 0 411 0 C411 80.52 411 161.04 411 244 C275.37 244 139.74 244 0 244 C0 163.48 0 82.96 0 0 Z " fill="#2F3233" transform="translate(323,1235)"/>
<path d="M0 0 C133.98 0 267.96 0 406 0 C406 80.52 406 161.04 406 244 C272.02 244 138.04 244 0 244 C0 163.48 0 82.96 0 0 Z " fill="#2F3233" transform="translate(2468,1235)"/>
<path d="M0 0 C133.98 0 267.96 0 406 0 C406 80.52 406 161.04 406 244 C272.02 244 138.04 244 0 244 C0 163.48 0 82.96 0 0 Z " fill="#2F3233" transform="translate(768,1235)"/>
<path d="M0 0 C0.02332624 23.97334775 0.04097782 47.94669382 0.05181217 71.92005062 C0.05697571 83.05046403 0.06401952 94.1808704 0.07543945 105.3112793 C0.08538451 115.00880216 0.091853 124.70631993 0.09408849 134.40384775 C0.0953959 139.54197829 0.09848366 144.68009426 0.10573006 149.81822014 C0.11248747 154.64849446 0.11461753 159.47874812 0.11310768 164.30902672 C0.11338414 166.08725853 0.1153909 167.86549098 0.11920547 169.64371872 C0.12413838 172.06063636 0.1229998 174.47747467 0.12025452 176.89439392 C0.12462378 177.96392639 0.12462378 177.96392639 0.12908131 179.05506557 C0.11412121 183.88587879 0.11412121 183.88587879 -1 185 C-2.79318892 185.09746445 -4.59026615 185.12371419 -6.38610172 185.12304783 C-8.14994476 185.1260344 -8.14994476 185.1260344 -9.94942099 185.12908131 C-11.91192609 185.12471205 -11.91192609 185.12471205 -13.91407776 185.12025452 C-15.30499874 185.1206901 -16.69591964 185.12156476 -18.08684009 185.12284368 C-21.9269215 185.12509125 -25.76697528 185.1210638 -29.60705316 185.11606562 C-33.74136188 185.11176504 -37.87566892 185.11320726 -42.00997925 185.1139679 C-49.17890864 185.11449338 -56.34782895 185.11134402 -63.51675606 185.10573006 C-73.88194387 185.09761837 -84.24712727 185.09500018 -94.61231791 185.09374207 C-111.42733878 185.09155102 -128.24235481 185.08488953 -145.05737305 185.07543945 C-161.39591447 185.06626668 -177.73445457 185.05918519 -194.07299805 185.05493164 C-195.07935283 185.05466892 -196.08570762 185.05440619 -197.12255801 185.05413551 C-202.17091938 185.05283051 -207.21928075 185.0515668 -212.26764214 185.05032361 C-254.17843146 185.03994937 -296.08921545 185.02232964 -338 185 C-336.34159456 181.62357324 -334.49334154 178.44272501 -332.5 175.25 C-331.8915625 174.26515625 -331.283125 173.2803125 -330.65625 172.265625 C-330.1096875 171.51796875 -329.563125 170.7703125 -329 170 C-328.34 170 -327.68 170 -327 170 C-326.505 168.02 -326.505 168.02 -326 166 C-325.34 166 -324.68 166 -324 166 C-323.63068359 165.16855469 -323.63068359 165.16855469 -323.25390625 164.3203125 C-319.08801348 156.61146419 -312.21931979 150.01768506 -306.3359375 143.58203125 C-305.06349746 142.17553817 -303.7972297 140.76291738 -302.56445312 139.3215332 C-297.70839082 133.65540196 -292.52421792 128.33805471 -287.24951172 123.06420898 C-285.76106763 121.57358385 -284.28082723 120.07512983 -282.80078125 118.57617188 C-277.26401532 113.0076712 -271.5833328 107.83413703 -265.42041016 102.94677734 C-263.07567031 101.06086292 -260.84382818 99.09409098 -258.625 97.0625 C-209.81765542 53.34284682 -144.40681598 24.18557761 -81 10 C-80.02450195 9.77860352 -79.04900391 9.55720703 -78.04394531 9.32910156 C-65.25836659 6.46966672 -52.428614 4.38286101 -39.4375 2.75 C-38.14263672 2.58677246 -36.84777344 2.42354492 -35.51367188 2.25537109 C-23.68900929 0.83984863 -11.91137102 -0.03107763 0 0 Z " fill="#0D0F16" transform="translate(2435,142)"/>
<path d="M0 0 C0.02332624 23.97334775 0.04097782 47.94669382 0.05181217 71.92005062 C0.05697571 83.05046403 0.06401952 94.1808704 0.07543945 105.3112793 C0.08538451 115.00880216 0.091853 124.70631993 0.09408849 134.40384775 C0.0953959 139.54197829 0.09848366 144.68009426 0.10573006 149.81822014 C0.11248747 154.64849446 0.11461753 159.47874812 0.11310768 164.30902672 C0.11338414 166.08725853 0.1153909 167.86549098 0.11920547 169.64371872 C0.12413838 172.06063636 0.1229998 174.47747467 0.12025452 176.89439392 C0.12462378 177.96392639 0.12462378 177.96392639 0.12908131 179.05506557 C0.11412121 183.88587879 0.11412121 183.88587879 -1 185 C-2.79318892 185.09746445 -4.59026615 185.12371419 -6.38610172 185.12304783 C-8.14994476 185.1260344 -8.14994476 185.1260344 -9.94942099 185.12908131 C-11.91192609 185.12471205 -11.91192609 185.12471205 -13.91407776 185.12025452 C-15.30499874 185.1206901 -16.69591964 185.12156476 -18.08684009 185.12284368 C-21.9269215 185.12509125 -25.76697528 185.1210638 -29.60705316 185.11606562 C-33.74136188 185.11176504 -37.87566892 185.11320726 -42.00997925 185.1139679 C-49.17890864 185.11449338 -56.34782895 185.11134402 -63.51675606 185.10573006 C-73.88194387 185.09761837 -84.24712727 185.09500018 -94.61231791 185.09374207 C-111.42733878 185.09155102 -128.24235481 185.08488953 -145.05737305 185.07543945 C-161.39591447 185.06626668 -177.73445457 185.05918519 -194.07299805 185.05493164 C-195.07935283 185.05466892 -196.08570762 185.05440619 -197.12255801 185.05413551 C-202.17091938 185.05283051 -207.21928075 185.0515668 -212.26764214 185.05032361 C-254.17843146 185.03994937 -296.08921545 185.02232964 -338 185 C-336.34159456 181.62357324 -334.49334154 178.44272501 -332.5 175.25 C-331.8915625 174.26515625 -331.283125 173.2803125 -330.65625 172.265625 C-330.1096875 171.51796875 -329.563125 170.7703125 -329 170 C-328.34 170 -327.68 170 -327 170 C-326.773125 169.47535156 -326.54625 168.95070313 -326.3125 168.41015625 C-324.54076879 165.15670935 -322.29465272 162.33065493 -320 159.4375 C-319.26958496 158.51203369 -319.26958496 158.51203369 -318.52441406 157.56787109 C-314.69300643 152.76311234 -310.67614859 148.19062831 -306.484375 143.6953125 C-304.5762686 141.62519707 -302.7370289 139.53107755 -300.90625 137.39453125 C-296.56252933 132.41457363 -291.92049569 127.73443097 -287.24951172 123.06420898 C-285.76106763 121.57358385 -284.28082723 120.07512983 -282.80078125 118.57617188 C-276.52686126 112.26575935 -269.96813357 106.54813038 -263 101 C-261.82889779 100.01721345 -260.66256273 99.02867917 -259.50390625 98.03125 C-252.54817475 92.04544122 -245.43366213 86.38789764 -238 81 C-237.38705078 80.55043945 -236.77410156 80.10087891 -236.14257812 79.63769531 C-169.61219092 30.94325433 -83.05968542 -0.22197624 0 0 Z " fill="#0D0F16" transform="translate(735,142)"/>
<path d="M0 0 C23.82368016 1.19118401 23.82368016 1.19118401 35.125 2.625 C35.78721558 2.70858765 36.44943115 2.79217529 37.13171387 2.8782959 C83.740214 8.84965789 131.42320048 21.87341788 173.03369141 43.96386719 C175.14039683 45.07398115 177.26194474 46.15146475 179.38671875 47.2265625 C198.50218011 56.97811281 216.77225621 68.20459698 234 81 C234.71381836 81.52980469 235.42763672 82.05960937 236.16308594 82.60546875 C249.04174321 92.21453337 261.30850395 102.37352246 273.08203125 113.3046875 C275.96331082 115.96611039 278.8858045 118.5762328 281.8125 121.1875 C285.60473893 124.62659347 289.04131628 128.16600227 292.33203125 132.08203125 C294.08951331 134.10292982 295.95155076 135.94951282 297.875 137.8125 C301.78138798 141.66630199 305.21547423 145.80557357 308.6484375 150.08203125 C311.05719734 153.07097411 313.52337105 156.00464993 316 158.9375 C334 180.49824766 334 180.49824766 334 185 C223.78 185 113.56 185 0 185 C0 123.95 0 62.9 0 0 Z " fill="#0D0F16" transform="translate(767,142)"/>
<path d="M0 0 C46.24416661 2.43390351 90.54059785 10.75927589 134 27 C134.77520996 27.2872998 135.55041992 27.57459961 136.34912109 27.87060547 C193.6618013 49.22145434 244.44163564 84.25000447 287.51928711 127.33398438 C289.1917165 129.00421095 290.87203669 130.66622379 292.55273438 132.328125 C299.16764445 138.90911028 305.20590272 145.67606512 311 153 C311.86305258 154.02783199 312.73144114 155.05125578 313.609375 156.06640625 C318.74201994 162.05136996 323.49009679 168.24916653 328.125 174.625 C328.99656738 175.8171814 328.99656738 175.8171814 329.88574219 177.03344727 C330.42102539 177.77780029 330.95630859 178.52215332 331.5078125 179.2890625 C331.98879395 179.95631348 332.46977539 180.62356445 332.96533203 181.31103516 C334 183 334 183 334 185 C223.78 185 113.56 185 0 185 C0 123.95 0 62.9 0 0 Z " fill="#0D0F16" transform="translate(2467,142)"/>
<path d="M0 0 C15.84 0 31.68 0 48 0 C48 68.31 48 136.62 48 207 C167.79 207 287.58 207 411 207 C411 219.21 411 231.42 411 244 C275.37 244 139.74 244 0 244 C0 163.48 0 82.96 0 0 Z " fill="#1B1C1D" transform="translate(2023,1235)"/>
<path d="M0 0 C15.84 0 31.68 0 48 0 C48 68.31 48 136.62 48 207 C167.79 207 287.58 207 411 207 C411 219.21 411 231.42 411 244 C275.37 244 139.74 244 0 244 C0 163.48 0 82.96 0 0 Z " fill="#1B1C1D" transform="translate(323,1235)"/>
<path d="M0 0 C11.88 0 23.76 0 36 0 C36 80.52 36 161.04 36 244 C-97.98 244 -231.96 244 -370 244 C-370 231.79 -370 219.58 -370 207 C-247.9 207 -125.8 207 0 207 C0 138.69 0 70.38 0 0 Z " fill="#1B1C1D" transform="translate(2838,1235)"/>
<path d="M0 0 C11.88 0 23.76 0 36 0 C36 80.52 36 161.04 36 244 C-97.98 244 -231.96 244 -370 244 C-370 231.79 -370 219.58 -370 207 C-247.9 207 -125.8 207 0 207 C0 138.69 0 70.38 0 0 Z " fill="#1B1C1D" transform="translate(1138,1235)"/>
<path d="M0 0 C40.59 0 81.18 0 123 0 C118.53825503 5.57718121 118.53825503 5.57718121 115.5625 8.0625 C100.70295609 20.83456639 87.13016439 34.58872557 75 50 C73.95613942 51.29069649 72.911834 52.58103328 71.8671875 53.87109375 C21.76346874 116.32954498 -1.92649494 190.93787948 -7 270 C-23.17 270 -39.34 270 -56 270 C-56.08021762 252.15603638 -56.08021762 252.15603638 -56.09765625 244.3515625 C-56.1094581 239.09533481 -56.12317018 233.83917888 -56.15087891 228.58300781 C-56.2820908 202.98234759 -56.12917611 177.43843242 -52.25 152.0625 C-52.08081055 150.928125 -51.91162109 149.79375 -51.73730469 148.625 C-45.30762547 107.00910115 -33.39975077 66.90221423 -15 29 C-14.61537598 28.20045898 -14.23075195 27.40091797 -13.83447266 26.57714844 C-10.25496422 19.1566441 -6.53444875 11.89241069 -2.12890625 4.91796875 C-0.84995198 2.89768109 -0.84995198 2.89768109 0 0 Z " fill="#0D0F16" transform="translate(2079,353)"/>
<path d="M0 0 C40.59 0 81.18 0 123 0 C118.53825503 5.57718121 118.53825503 5.57718121 115.5625 8.0625 C100.70295609 20.83456639 87.13016439 34.58872557 75 50 C73.95613942 51.29069649 72.911834 52.58103328 71.8671875 53.87109375 C21.65379551 116.46626178 -1.6717805 190.89643362 -7 270 C-23.17 270 -39.34 270 -56 270 C-56.08021762 252.44571111 -56.08021762 252.44571111 -56.09765625 244.75585938 C-56.10944884 239.58092974 -56.12313361 234.40607311 -56.15087891 229.23120117 C-56.57352319 148.14404395 -40.56003855 70.98006746 0 0 Z " fill="#0D0F16" transform="translate(379,353)"/>
<path d="M0 0 C36.63 0 73.26 0 111 0 C145.6252601 63.92355711 167.33403236 132.46095944 167.13037109 205.70068359 C167.12493978 208.02578044 167.13039396 210.35068967 167.13671875 212.67578125 C167.13605893 214.17968792 167.13477977 215.68359447 167.1328125 217.1875 C167.13483673 217.86989746 167.13686096 218.55229492 167.13894653 219.25537109 C167.11796114 223.59458801 166.61371842 227.71158762 166 232 C165.81514387 234.99724069 165.7466958 237.99409767 165.68359375 240.99609375 C165.6524221 242.24641136 165.6524221 242.24641136 165.62062073 243.52198792 C165.55572144 246.16041561 165.49652022 248.79893491 165.4375 251.4375 C165.39425794 253.23633724 165.35064192 255.03516554 165.30664062 256.83398438 C165.1994047 261.22256415 165.09988985 265.6112224 165 270 C153.45 270 141.9 270 130 270 C129.7525 265.6275 129.505 261.255 129.25 256.75 C123.23719357 163.30373384 80.96204245 75.70166098 6.81420898 6.70654297 C4.49285019 4.52294749 2.2535301 2.2535301 0 0 Z " fill="#0D0F16" transform="translate(1008,353)"/>
<path d="M0 0 C36.63 0 73.26 0 111 0 C140.60928227 54.66329034 161.37456784 112.59252196 166 175 C166.13027588 176.72126099 166.13027588 176.72126099 166.26318359 178.47729492 C166.91037788 187.77684681 167.15728364 197.02781978 167.13037109 206.34887695 C167.12492678 208.59267695 167.13040436 210.83628347 167.13671875 213.08007812 C167.1360591 214.5338546 167.13478029 215.98763096 167.1328125 217.44140625 C167.13168457 218.72732666 167.13055664 220.01324707 167.12939453 221.33813477 C167 225 167 225 166.51147461 228.41015625 C165.91132316 232.62238866 165.77289922 236.74750485 165.68359375 240.99609375 C165.6524221 242.24641136 165.6524221 242.24641136 165.62062073 243.52198792 C165.55572144 246.16041561 165.49652022 248.79893491 165.4375 251.4375 C165.39425794 253.23633724 165.35064192 255.03516554 165.30664062 256.83398438 C165.1994047 261.22256415 165.09988985 265.6112224 165 270 C153.45 270 141.9 270 130 270 C129.7525 265.6275 129.505 261.255 129.25 256.75 C123.23719357 163.30373384 80.96204245 75.70166098 6.81420898 6.70654297 C4.49285019 4.52294749 2.2535301 2.2535301 0 0 Z " fill="#0D0F16" transform="translate(2708,353)"/>
<path d="M0 0 C15.84 0 31.68 0 48 0 C48 89.1 48 178.2 48 270 C32.16 270 16.32 270 0 270 C0 180.9 0 91.8 0 0 Z " fill="#191A1C" transform="translate(2023,941)"/>
<path d="M0 0 C15.84 0 31.68 0 48 0 C48 89.1 48 178.2 48 270 C32.16 270 16.32 270 0 270 C0 180.9 0 91.8 0 0 Z " fill="#191A1C" transform="translate(323,941)"/>
<path d="M0 0 C15.84 0 31.68 0 48 0 C48 89.1 48 178.2 48 270 C32.16 270 16.32 270 0 270 C0 180.9 0 91.8 0 0 Z " fill="#111318" transform="translate(2023,647)"/>
<path d="M0 0 C15.84 0 31.68 0 48 0 C48.02205639 32.95224633 48.04051636 65.90448548 48.05106533 98.85673698 C48.052316 102.74938066 48.05361032 106.64202432 48.05493164 110.53466797 C48.05519395 111.30960471 48.05545626 112.08454144 48.05572652 112.88296111 C48.0600747 125.42126922 48.06795757 137.95957273 48.0771528 150.49787812 C48.08651302 163.36876736 48.09206063 176.2396542 48.09408849 189.11054671 C48.0954588 197.04892012 48.09978272 204.98728054 48.10791647 212.92564996 C48.11384039 219.01861857 48.11445296 225.11157606 48.11310768 231.20454788 C48.11338247 233.69981211 48.11536736 236.19507684 48.11920547 238.69033813 C48.12419591 242.10252649 48.12297856 245.51465968 48.12025452 248.92684937 C48.12316736 249.90936751 48.1260802 250.89188565 48.12908131 251.90417707 C48.12709026 252.8297704 48.12509921 253.75536374 48.12304783 254.70900536 C48.12361741 255.88803698 48.12361741 255.88803698 48.1241985 257.09088743 C47.93996181 261.40628005 47.42978876 265.70211235 47 270 C31.49 270 15.98 270 0 270 C0 180.9 0 91.8 0 0 Z " fill="#111318" transform="translate(323,647)"/>
<path d="M0 0 C11.55 0 23.1 0 35 0 C35 89.1 35 178.2 35 270 C23.45 270 11.9 270 0 270 C0 180.9 0 91.8 0 0 Z " fill="#191A1C" transform="translate(2838,941)"/>
<path d="M0 0 C11.55 0 23.1 0 35 0 C35 89.1 35 178.2 35 270 C23.45 270 11.9 270 0 270 C0 180.9 0 91.8 0 0 Z " fill="#191A1C" transform="translate(1138,941)"/>
<path d="M0 0 C11.55 0 23.1 0 35 0 C35 89.1 35 178.2 35 270 C23.45 270 11.9 270 0 270 C0 180.9 0 91.8 0 0 Z " fill="#111218" transform="translate(2838,647)"/>
<path d="M0 0 C11.55 0 23.1 0 35 0 C35 89.1 35 178.2 35 270 C23.45 270 11.9 270 0 270 C0 180.9 0 91.8 0 0 Z " fill="#111218" transform="translate(1138,647)"/>
<path d="M0 0 C2.31 0 4.62 0 7 0 C7 0.33 7 0.66 7 1 C5.02 1 3.04 1 1 1 C1 40.27 1 79.54 1 120 C5.62 120 10.24 120 15 120 C17.73295498 120.16824225 20.46406448 120.38078287 23.1875 120.6640625 C23.88522018 120.73630539 24.58294037 120.80854828 25.30180359 120.88298035 C27.53587149 121.11955563 29.76794603 121.37015719 32 121.625 C32.77735504 121.7123642 33.55471008 121.79972839 34.35562134 121.88973999 C92.05015532 128.4616426 147.70243079 148.04111624 196.97729492 178.74829102 C197.6447876 179.16135498 198.31228027 179.57441895 199 180 C199.75252643 180.51337575 200.50505285 181.0267515 201.28038311 181.55568409 C204.33258981 183.17662957 206.10716874 183.37070386 209.53657532 183.36076355 C210.63728867 183.36488754 211.73800201 183.36901154 212.87207031 183.3732605 C214.06968994 183.36247467 215.26730957 183.35168884 216.5012207 183.34057617 C217.76991501 183.34101425 219.03860931 183.34145233 220.3457489 183.34190369 C223.81654468 183.34276315 227.28702835 183.32514566 230.7577517 183.30418181 C234.38789801 183.28540667 238.01805176 183.28366392 241.64823914 183.28010559 C248.51883915 183.27078757 255.38929568 183.24617714 262.25983256 183.21605712 C270.08323767 183.18250551 277.90664969 183.1660252 285.73010886 183.15097082 C301.82015652 183.11962731 317.91005994 183.06687161 334 183 C334 183.66 334 184.32 334 185 C223.78 185 113.56 185 0 185 C0 123.95 0 62.9 0 0 Z " fill="#161B27" transform="translate(2467,142)"/>
<path d="M0 0 C16.92777086 0 16.92777086 0 23.28515625 0.6640625 C23.98146149 0.73630539 24.67776672 0.80854828 25.39517212 0.88298035 C27.61902534 1.11906051 29.84075478 1.36988241 32.0625 1.625 C33.22478622 1.7560463 33.22478622 1.7560463 34.41055298 1.88973999 C92.08451697 8.47606649 147.71832197 28.05101933 196.97729492 58.74829102 C197.6447876 59.16135498 198.31228027 59.57441895 199 60 C200.12878964 60.77006362 200.12878964 60.77006362 201.28038311 61.55568409 C204.33258981 63.17662957 206.10716874 63.37070386 209.53657532 63.36076355 C210.63728867 63.36488754 211.73800201 63.36901154 212.87207031 63.3732605 C214.06968994 63.36247467 215.26730957 63.35168884 216.5012207 63.34057617 C217.76991501 63.34101425 219.03860931 63.34145233 220.3457489 63.34190369 C223.81654468 63.34276315 227.28702835 63.32514566 230.7577517 63.30418181 C234.38789801 63.28540667 238.01805176 63.28366392 241.64823914 63.28010559 C248.51883915 63.27078757 255.38929568 63.24617714 262.25983256 63.21605712 C270.08323767 63.18250551 277.90664969 63.1660252 285.73010886 63.15097082 C301.82015652 63.11962731 317.91005994 63.06687161 334 63 C334 63.66 334 64.32 334 65 C223.78 65 113.56 65 0 65 C0 43.55 0 22.1 0 0 Z " fill="#161B27" transform="translate(767,262)"/>
<path d="M0 0 C2.64 0 5.28 0 8 0 C8.02332624 23.97334775 8.04097782 47.94669382 8.05181217 71.92005062 C8.05697571 83.05046403 8.06401952 94.1808704 8.07543945 105.3112793 C8.08538451 115.00880216 8.091853 124.70631993 8.09408849 134.40384775 C8.0953959 139.54197829 8.09848366 144.68009426 8.10573006 149.81822014 C8.11248747 154.64849446 8.11461753 159.47874812 8.11310768 164.30902672 C8.11338414 166.08725853 8.1153909 167.86549098 8.11920547 169.64371872 C8.12413838 172.06063636 8.1229998 174.47747467 8.12025452 176.89439392 C8.12462378 177.96392639 8.12462378 177.96392639 8.12908131 179.05506557 C8.11412121 183.88587879 8.11412121 183.88587879 7 185 C5.20681108 185.09746445 3.40973385 185.12371419 1.61389828 185.12304783 C-0.14994476 185.1260344 -0.14994476 185.1260344 -1.94942099 185.12908131 C-3.91192609 185.12471205 -3.91192609 185.12471205 -5.91407776 185.12025452 C-7.30499874 185.1206901 -8.69591964 185.12156476 -10.08684009 185.12284368 C-13.9269215 185.12509125 -17.76697528 185.1210638 -21.60705316 185.11606562 C-25.74136188 185.11176504 -29.87566892 185.11320726 -34.00997925 185.1139679 C-41.17890864 185.11449338 -48.34782895 185.11134402 -55.51675606 185.10573006 C-65.88194387 185.09761837 -76.24712727 185.09500018 -86.61231791 185.09374207 C-103.42733878 185.09155102 -120.24235481 185.08488953 -137.05737305 185.07543945 C-153.39591447 185.06626668 -169.73445457 185.05918519 -186.07299805 185.05493164 C-187.07935283 185.05466892 -188.08570762 185.05440619 -189.12255801 185.05413551 C-194.17091938 185.05283051 -199.21928075 185.0515668 -204.26764214 185.05032361 C-246.17843146 185.03994937 -288.08921545 185.02232964 -330 185 C-329.505 184.01 -329.505 184.01 -329 183 C-328.29360319 183.01198331 -327.58720638 183.02396662 -326.85940361 183.03631306 C-309.56919682 183.32501608 -292.27961191 183.53930133 -274.9875164 183.67355824 C-266.6245791 183.7402322 -258.26326283 183.83090826 -249.90136719 183.98071289 C-242.60209696 184.11141664 -235.3040017 184.1944172 -228.00359356 184.22315043 C-224.14714174 184.23991567 -220.29404715 184.27849841 -216.43868637 184.37449074 C-197.63078527 184.82474643 -183.64315706 183.08576587 -168.0636282 171.4910326 C-165.30035378 169.49448485 -162.44729517 167.94512552 -159.41796875 166.38671875 C-158.53890869 165.92821533 -157.65984863 165.46971191 -156.75415039 164.99731445 C-155.90715576 164.56507568 -155.06016113 164.13283691 -154.1875 163.6875 C-153.23286865 163.19660889 -152.2782373 162.70571777 -151.29467773 162.19995117 C-148.53522413 160.78887483 -145.76939184 159.39145054 -143 158 C-142.24944336 157.62004883 -141.49888672 157.24009766 -140.72558594 156.84863281 C-96.51104527 134.62872701 -42.75158373 120 7 120 C7 80.73 7 41.46 7 1 C4.69 1 2.38 1 0 1 C0 0.67 0 0.34 0 0 Z " fill="#161B27" transform="translate(2427,142)"/>
<path d="M0 0 C2.64 0 5.28 0 8 0 C8.02332624 23.97334775 8.04097782 47.94669382 8.05181217 71.92005062 C8.05697571 83.05046403 8.06401952 94.1808704 8.07543945 105.3112793 C8.08538451 115.00880216 8.091853 124.70631993 8.09408849 134.40384775 C8.0953959 139.54197829 8.09848366 144.68009426 8.10573006 149.81822014 C8.11248747 154.64849446 8.11461753 159.47874812 8.11310768 164.30902672 C8.11338414 166.08725853 8.1153909 167.86549098 8.11920547 169.64371872 C8.12413838 172.06063636 8.1229998 174.47747467 8.12025452 176.89439392 C8.12462378 177.96392639 8.12462378 177.96392639 8.12908131 179.05506557 C8.11412121 183.88587879 8.11412121 183.88587879 7 185 C5.20681108 185.09746445 3.40973385 185.12371419 1.61389828 185.12304783 C-0.14994476 185.1260344 -0.14994476 185.1260344 -1.94942099 185.12908131 C-3.91192609 185.12471205 -3.91192609 185.12471205 -5.91407776 185.12025452 C-7.30499874 185.1206901 -8.69591964 185.12156476 -10.08684009 185.12284368 C-13.9269215 185.12509125 -17.76697528 185.1210638 -21.60705316 185.11606562 C-25.74136188 185.11176504 -29.87566892 185.11320726 -34.00997925 185.1139679 C-41.17890864 185.11449338 -48.34782895 185.11134402 -55.51675606 185.10573006 C-65.88194387 185.09761837 -76.24712727 185.09500018 -86.61231791 185.09374207 C-103.42733878 185.09155102 -120.24235481 185.08488953 -137.05737305 185.07543945 C-153.39591447 185.06626668 -169.73445457 185.05918519 -186.07299805 185.05493164 C-187.07935283 185.05466892 -188.08570762 185.05440619 -189.12255801 185.05413551 C-194.17091938 185.05283051 -199.21928075 185.0515668 -204.26764214 185.05032361 C-246.17843146 185.03994937 -288.08921545 185.02232964 -330 185 C-329.505 184.01 -329.505 184.01 -329 183 C-328.29360319 183.01198331 -327.58720638 183.02396662 -326.85940361 183.03631306 C-309.56919682 183.32501608 -292.27961191 183.53930133 -274.9875164 183.67355824 C-266.6245791 183.7402322 -258.26326283 183.83090826 -249.90136719 183.98071289 C-242.60209696 184.11141664 -235.3040017 184.1944172 -228.00359356 184.22315043 C-224.14714174 184.23991567 -220.29404715 184.27849841 -216.43868637 184.37449074 C-197.63078527 184.82474643 -183.64315706 183.08576587 -168.0636282 171.4910326 C-165.30035378 169.49448485 -162.44729517 167.94512552 -159.41796875 166.38671875 C-158.53890869 165.92821533 -157.65984863 165.46971191 -156.75415039 164.99731445 C-155.90715576 164.56507568 -155.06016113 164.13283691 -154.1875 163.6875 C-153.23286865 163.19660889 -152.2782373 162.70571777 -151.29467773 162.19995117 C-148.53522413 160.78887483 -145.76939184 159.39145054 -143 158 C-142.24944336 157.62004883 -141.49888672 157.24009766 -140.72558594 156.84863281 C-96.35370526 134.54965619 -42.80497816 120 7 120 C7 80.73 7 41.46 7 1 C4.69 1 2.38 1 0 1 C0 0.67 0 0.34 0 0 Z " fill="#161B27" transform="translate(727,142)"/>
</svg>
