<?xml version="1.0" standalone="no"?>
<!DOCTYPE svg PUBLIC "-//W3C//DTD SVG 20010904//EN"
 "http://www.w3.org/TR/2001/REC-SVG-20010904/DTD/svg10.dtd">
<svg version="1.0" xmlns="http://www.w3.org/2000/svg"
 width="3851.000000pt" height="13002.000000pt" viewBox="0 0 3851.000000 13002.000000"
 preserveAspectRatio="xMidYMid meet">

<g transform="translate(0.000000,13002.000000) scale(0.100000,-0.100000)"
fill="#000000" stroke="none">
<path d="M0 65010 l0 -65010 19255 0 19255 0 0 65010 0 65010 -9814 0 -9814 0
-6 -57 c-6 -58 -34 -423 -81 -1083 -14 -195 -39 -526 -55 -735 -16 -209 -30
-400 -32 -424 l-2 -44 399 2 c2175 11 4183 -208 4851 -529 307 -148 307 -311
0 -460 -868 -420 -3856 -637 -6516 -475 -1710 105 -2907 351 -3077 632 -26 43
-29 79 -9 126 37 90 242 204 521 291 514 160 1528 302 2565 361 157 8 310 19
340 23 l55 7 113 440 c245 954 295 1144 392 1510 55 209 103 388 106 398 5 16
-439 17 -9220 17 l-9226 0 0 -65010z m2165 11340 c461 -25 799 -80 913 -150
l32 -20 0 -150 0 -150 -32 -20 c-114 -70 -458 -127 -913 -150 -700 -35 -1487
35 -1673 150 l-33 20 3 153 3 152 55 27 c219 110 979 173 1645 138z m35285
-1654 c252 -23 448 -55 556 -92 114 -38 114 -39 114 -199 0 -132 0 -134 -26
-154 -132 -104 -870 -176 -1529 -151 -467 18 -847 79 -939 151 -26 20 -26 22
-26 154 0 132 0 134 26 154 93 73 413 127 914 155 145 8 755 -4 910 -18z
m-1515 -10951 c33 -7 382 -57 775 -111 393 -54 718 -100 723 -104 5 -5 -788
-108 -1056 -137 l-57 -6 54 -56 c106 -112 146 -235 146 -453 0 -76 4 -138 8
-138 5 0 89 18 188 39 394 87 1179 241 1225 241 19 0 19 -31 19 -1995 l0
-1995 -22 -4 c-13 -3 -104 -12 -203 -21 -331 -29 -1024 -106 -1177 -131 -37
-6 -38 -7 -38 -47 0 -105 -46 -176 -145 -224 -65 -31 -76 -33 -177 -33 -58 0
-140 7 -180 15 -116 24 -1788 544 -1840 573 -61 32 -148 123 -181 188 -14 27
-36 83 -49 124 l-23 75 0 1870 c0 1755 1 1875 18 1950 43 197 135 306 286 341
74 18 134 17 206 -1 55 -15 100 -13 674 20 339 19 627 37 641 39 34 5 113 -3
185 -19z m-861 -6180 c-4 -63 -6 -100 -5 -105 2 -7 3 -496 2 -758 l-2 -214
-37 6 c-527 78 -801 159 -891 261 l-32 37 3 283 3 283 25 27 c37 40 190 110
315 145 124 34 326 75 495 99 l115 17 6 -26 c3 -14 5 -39 3 -55z m-33339
-4352 c-13 -72 -185 -171 -415 -237 -132 -38 -392 -93 -572 -121 -145 -22
-502 -63 -508 -58 -3 3 -5 126 -5 276 l-1 271 -106 20 c-168 33 -169 33 147
66 769 81 1314 220 1436 367 l24 29 3 -290 c1 -160 0 -305 -3 -323z m-222
-1134 c84 -23 147 -110 147 -204 0 -94 -37 -158 -115 -197 -59 -30 -225 -39
-810 -41 l-500 -2 0 218 -1 217 266 1 c146 1 369 5 495 8 372 12 478 12 518 0z
m0 -570 c155 -43 199 -271 73 -376 -21 -17 -54 -35 -75 -42 -52 -15 -520 -31
-937 -31 l-340 0 0 220 1 220 305 1 c168 1 399 5 515 9 341 10 418 10 458 -1z
m-8 -570 c59 -16 104 -55 131 -113 42 -90 27 -184 -41 -251 -22 -22 -58 -46
-80 -53 -57 -18 -547 -33 -945 -30 l-335 3 0 211 0 211 80 7 c44 3 193 7 330
7 138 1 342 5 455 9 332 10 363 10 405 -1z m32825 -159 c0 -30 58 -89 119
-120 82 -41 264 -96 434 -130 81 -17 157 -30 167 -30 16 0 20 -7 21 -32 1 -18
0 -37 -1 -43 -1 -5 -1 -32 0 -60 4 -111 2 -234 -4 -244 -4 -5 -2 -12 3 -15 5
-3 6 -21 1 -40 -4 -19 -5 -37 -2 -40 6 -6 6 -215 0 -221 -6 -6 -270 33 -408
61 -282 57 -487 137 -534 209 -14 21 -16 65 -16 299 0 190 4 283 12 301 11 25
89 78 158 108 47 20 50 20 50 -3z m-28425 -193 l50 -12 3 -51 c3 -51 4 -52 38
-59 82 -15 84 -18 84 -120 0 -64 -4 -96 -13 -103 -26 -22 -145 -42 -287 -48
l-145 -7 1 204 c1 112 2 208 3 213 1 12 201 -1 266 -17z m-4352 -241 c84 -49
124 -154 96 -253 -16 -58 -78 -123 -134 -141 -58 -18 -518 -33 -930 -30 l-350
3 1 207 c0 114 3 211 7 214 4 4 229 11 499 16 271 4 509 10 528 12 19 2 81 3
136 2 90 -2 107 -6 147 -30z m31577 -8 c44 -13 45 -15 50 -62 5 -48 6 -49 48
-61 66 -20 68 -23 62 -122 l-5 -88 -51 -17 c-153 -51 -653 -46 -781 7 l-34 14
3 93 3 93 50 17 c49 16 50 17 53 61 3 52 17 61 117 77 88 13 430 5 485 -12z
m-31639 -539 c157 -34 223 -235 116 -356 -58 -66 -95 -75 -337 -84 -279 -11
-898 -17 -975 -10 l-60 6 -1 211 -1 212 261 6 c297 7 852 22 908 24 20 1 60
-3 89 -9z m31175 -245 c528 -114 1381 -218 2299 -281 102 -7 110 -9 108 -28
-2 -11 -3 -171 -2 -355 0 -184 0 -387 0 -451 l0 -117 39 -6 40 -6 0 -108 c0
-113 -1 -158 -4 -232 -1 -25 1 -62 5 -83 3 -20 2 -40 -2 -43 -5 -3 -7 -9 -4
-14 5 -8 6 -56 4 -165 -1 -53 2 -70 12 -72 8 -1 40 -5 72 -8 l57 -6 0 -4982
c0 -3229 4 -4994 10 -5017 18 -65 63 -123 119 -154 123 -67 273 -17 337 111
19 37 19 151 22 5026 l2 4987 28 0 27 0 0 -83 c0 -45 -4 -88 -9 -96 -5 -8 -5
-12 0 -8 11 6 11 -534 0 -552 -4 -6 -3 -11 1 -11 5 0 9 -137 9 -304 0 -213 -3
-303 -10 -299 -6 4 -5 -1 3 -10 10 -13 11 -24 2 -47 -5 -17 -7 -29 -3 -26 10
6 8 -1286 -2 -1303 -6 -8 -5 -12 0 -8 11 6 11 -534 0 -552 -4 -6 -3 -11 1 -11
5 0 9 -137 9 -304 0 -213 -3 -303 -10 -299 -6 4 -5 -1 3 -10 10 -13 11 -24 2
-47 -5 -17 -7 -29 -3 -26 10 6 8 -1286 -2 -1303 -6 -8 -5 -12 0 -8 11 6 11
-534 0 -552 -4 -6 -3 -11 1 -11 5 0 9 -137 9 -304 0 -213 -3 -303 -10 -299 -6
4 -5 -1 3 -10 10 -13 11 -24 2 -47 -5 -17 -7 -29 -3 -26 10 6 8 -1286 -2
-1303 -6 -8 -5 -12 0 -8 11 6 11 -534 0 -552 -4 -6 -3 -11 1 -11 5 0 9 -137 9
-304 0 -213 -3 -303 -10 -299 -6 4 -5 -1 3 -10 10 -13 11 -24 2 -47 -5 -17 -7
-29 -3 -26 4 2 7 -293 7 -655 l0 -660 -205 6 c-1145 31 -2338 177 -2967 362
-139 40 -133 33 -113 144 5 30 26 196 45 369 38 333 39 336 79 470 79 267 228
448 414 507 l55 17 -7 146 c-4 79 -9 147 -12 149 -12 12 -150 -26 -229 -63
-122 -58 -203 -122 -279 -220 -140 -181 -213 -352 -260 -604 -13 -70 -86 -679
-86 -718 0 -7 -6 -19 -13 -26 -9 -9 -16 -54 -21 -128 -30 -503 -174 -921 -424
-1231 -233 -289 -564 -507 -993 -654 -413 -141 -866 -208 -1594 -236 -671 -25
-1281 12 -2515 151 -1141 129 -1640 148 -2218 85 -630 -69 -1252 -250 -1802
-525 -137 -68 -136 -68 -150 -24 -24 73 1 170 75 287 23 35 41 48 114 81 483
217 1013 375 1496 445 290 42 436 53 805 58 518 7 736 -8 1765 -122 985 -110
1229 -130 1753 -144 481 -14 1052 8 1422 55 564 71 1027 231 1340 463 404 300
598 718 641 1384 15 226 6 459 -42 1122 -19 266 -16 549 9 691 36 207 72 324
148 476 l44 88 0 2760 0 2761 21 42 c82 160 253 337 429 444 131 79 376 174
528 203 34 7 62 17 62 22 0 13 -19 195 -26 246 -5 39 -7 42 -37 42 -42 0 -243
-51 -328 -83 -214 -81 -438 -216 -591 -356 l-58 -53 0 1371 c0 754 3 1371 6
1371 4 0 48 -13 98 -29 50 -16 142 -43 204 -59 l112 -31 0 475 c0 282 4 474 9
474 5 0 62 -11 127 -26z m-31133 -338 c128 -54 168 -236 75 -342 -57 -65 -93
-76 -278 -85 -324 -15 -1055 -23 -1076 -11 -18 10 -19 23 -20 220 l0 210 365
7 c201 4 463 10 581 15 238 9 306 6 353 -14z m5137 -11786 c-24 -46 -100 -110
-182 -151 l-58 -29 -31 62 c-248 491 -445 1318 -553 2318 -47 430 -76 828 -97
1325 -11 274 -17 1216 -10 1580 12 564 55 1237 111 1740 28 254 33 385 21 538
-35 424 -152 716 -409 1013 -112 131 -332 299 -508 387 l-70 35 1 566 c0 311
-4 566 -8 566 -5 0 -5 5 -1 11 11 18 10 439 -1 439 -5 0 -4 4 4 9 9 6 10 11 2
15 -6 4 -9 12 -5 17 9 15 11 260 2 265 -5 3 -6 10 -2 15 3 6 6 120 7 255 0
134 3 244 6 244 3 0 107 14 231 30 584 79 1130 188 1460 292 l105 34 3 -5769
c2 -5765 2 -5768 -18 -5807z m-5122 11288 c117 -60 148 -234 59 -335 -59 -67
-94 -75 -347 -84 -284 -11 -1009 -14 -1018 -4 -4 4 -7 100 -7 215 l-1 208 231
6 c126 3 376 10 555 15 419 11 469 9 528 -21z m2 -571 c85 -43 128 -154 100
-257 -17 -64 -80 -124 -150 -143 -59 -17 -650 -37 -1060 -37 l-206 0 1 218 0
217 300 8 c165 4 424 11 575 16 331 11 381 8 440 -22z m2763 -502 c170 -44
300 -157 396 -345 106 -206 140 -386 148 -774 6 -262 5 -269 -13 -261 -131 54
-359 118 -454 127 l-35 3 -11 -105 c-7 -58 -15 -128 -18 -157 l-6 -51 78 -17
c112 -25 268 -78 372 -126 l90 -42 0 -2893 c0 -1668 4 -2894 9 -2894 5 0 11 9
14 20 3 11 0 20 -6 20 -8 0 -7 4 2 9 9 6 10 11 2 15 -6 4 -9 12 -5 17 9 15 11
260 2 265 -4 3 -4 12 -1 20 9 25 9 1784 0 1784 -5 0 -5 5 -1 11 11 18 10 439
-1 439 -5 0 -4 4 4 9 9 6 10 11 2 15 -6 4 -9 12 -5 17 9 15 11 260 2 265 -4 3
-4 12 -1 20 9 25 9 1784 0 1784 -5 0 -5 5 -1 11 11 18 10 439 -1 439 -5 0 -4
4 4 9 9 6 10 11 2 15 -6 4 -9 12 -5 17 9 15 11 260 2 265 -5 3 -5 10 -2 16 4
6 7 73 7 150 -1 76 2 138 5 138 3 0 48 -29 101 -64 314 -209 496 -502 556
-891 22 -142 20 -392 -4 -610 -112 -998 -149 -2500 -91 -3630 41 -785 125
-1548 232 -2095 109 -563 229 -956 416 -1362 l41 -87 -52 -15 c-90 -26 -211
-55 -333 -81 -66 -14 -130 -28 -143 -31 -24 -5 -24 -5 -17 -105 26 -375 132
-717 303 -971 107 -159 290 -336 468 -451 259 -167 634 -301 1055 -376 394
-71 758 -95 1420 -96 713 0 988 19 2165 150 979 109 1316 135 1764 135 712 0
1314 -94 1935 -302 255 -85 655 -249 699 -287 10 -8 37 -53 60 -99 49 -99 61
-186 33 -240 l-17 -32 -61 31 c-493 249 -1080 444 -1602 533 -379 65 -591 81
-1066 81 -517 -1 -712 -15 -1690 -125 -1159 -130 -1506 -154 -2215 -154 -480
0 -682 8 -1015 40 -1338 128 -2126 618 -2415 1499 -58 176 -106 421 -120 615
-4 47 -10 94 -15 105 -12 29 -26 130 -65 485 -20 173 -42 353 -50 400 -43 246
-125 452 -245 615 l-36 50 0 592 c1 466 -2 594 -11 598 -10 3 -13 -117 -13
-582 l0 -586 -58 55 c-72 69 -152 121 -246 159 -66 28 -200 59 -209 48 -3 -2
-8 -75 -12 -161 l-7 -158 24 0 c33 0 133 -50 198 -99 108 -81 199 -218 254
-382 48 -144 50 -164 21 -262 -14 -49 -35 -107 -47 -130 -39 -78 -125 -183
-187 -230 -85 -63 -155 -94 -295 -130 -98 -24 -142 -30 -231 -30 -110 0 -134
5 -259 58 -21 9 -21 -5 4 -2215 5 -459 10 -1064 11 -1343 l2 -508 -27 -28
c-113 -118 -609 -226 -1281 -281 -186 -15 -469 -30 -474 -24 -2 2 10 4 27 4
l32 0 0 3475 c0 1911 3 3475 6 3475 3 0 114 9 247 21 812 68 1323 184 1400
316 16 29 17 35 4 60 -8 15 -34 39 -56 53 -81 49 -76 39 -51 115 12 37 34 80
49 96 l26 28 187 3 c203 2 204 2 240 -57 18 -29 18 -20 18 454 l0 484 -30 -41
-30 -42 -191 0 -191 0 -29 31 c-17 18 -38 61 -52 103 -19 62 -22 92 -21 236 0
180 15 245 70 317 l25 33 184 0 c101 0 191 -3 200 -6 9 -4 27 -23 40 -43 l25
-36 0 484 0 484 -30 -41 -30 -42 -193 0 c-188 0 -194 1 -215 23 -28 30 -58
101 -70 163 l-9 51 131 35 c323 88 643 220 761 315 34 27 74 73 93 103 l32 55
0 615 c-1 403 -4 629 -11 655 -8 29 -31 59 -84 111 -64 63 -90 81 -223 145
l-151 74 -1 384 0 384 -33 -38 -34 -39 -189 3 c-210 3 -209 3 -246 75 -31 60
-48 161 -48 286 0 161 32 282 90 340 18 18 35 20 205 20 181 0 186 -1 208 -23
12 -13 28 -32 35 -43 11 -16 12 5 8 121 -14 387 -108 672 -277 846 l-47 49 26
19 c113 79 307 112 445 76z m-2816 -50 c100 -30 157 -106 157 -209 -1 -107
-57 -182 -157 -210 -56 -16 -641 -36 -1048 -36 l-216 0 1 219 1 219 365 7
c319 6 785 19 831 23 8 1 38 -5 66 -13z m35953 -417 c44 -13 45 -15 50 -62 l5
-49 55 -16 55 -17 3 -86 c2 -66 -1 -89 -12 -101 -66 -66 -683 -75 -832 -12
l-34 14 0 91 0 91 35 15 c19 7 44 14 55 14 17 0 20 6 20 45 0 56 19 70 110 84
93 14 434 7 490 -11z m-35889 -183 c111 -78 125 -253 27 -341 -70 -65 -116
-69 -869 -80 l-485 -7 0 219 1 219 120 3 c66 1 273 6 460 11 187 5 422 8 522
7 l181 -1 43 -30z m-25 -554 c50 -23 101 -83 115 -136 26 -94 -17 -204 -98
-251 -60 -36 -138 -41 -808 -50 l-510 -7 -1 221 0 222 230 1 c127 1 344 5 481
9 483 12 546 12 591 -9z m35549 -65 c189 -39 463 -84 690 -115 164 -23 579
-71 607 -71 17 0 18 -121 18 -2679 l0 -2679 -57 57 c-81 80 -138 106 -233 106
-90 -1 -136 -22 -217 -97 -206 -195 -360 -663 -425 -1288 -20 -192 -17 -814 5
-1008 49 -430 127 -742 247 -987 129 -263 280 -385 440 -355 70 13 105 34 177
103 l63 60 0 -989 0 -989 -77 77 c-43 42 -467 457 -943 922 -476 466 -866 855
-868 865 -4 25 -198 214 -214 209 -11 -4 -13 -483 -15 -2564 l-3 -2559 1060
-1080 1059 -1080 1 -170 0 -170 -1162 1161 c-753 751 -1174 1166 -1195 1174
l-33 12 0 374 c0 206 -4 374 -8 374 -4 0 -24 -16 -43 -36 -50 -53 -198 -166
-298 -228 -339 -209 -786 -351 -1333 -421 -332 -42 -950 -70 -1333 -61 -619
17 -917 40 -1915 151 -631 71 -939 99 -1249 115 -1041 52 -1921 -117 -2800
-541 -79 -38 -147 -66 -152 -63 -16 10 -30 85 -23 130 10 66 83 204 122 230
91 62 572 245 860 328 567 164 1050 223 1736 213 470 -7 641 -21 1591 -127
1051 -117 1392 -141 2010 -141 1034 -1 1676 103 2176 350 63 32 147 78 185
103 160 103 324 258 424 399 l52 74 -5 2335 -5 2335 214 -3 214 -3 0 2108 0
2108 39 67 c87 149 217 285 366 384 l85 57 0 74 0 73 183 0 c154 0 196 3 275
22 75 18 92 26 92 41 0 22 -19 198 -26 245 -6 39 -20 40 -144 13 -272 -61
-571 -213 -787 -401 l-83 -71 0 1370 c0 754 3 1371 6 1371 3 0 56 -16 118 -34
114 -36 266 -76 285 -76 8 0 11 140 11 471 l0 472 33 -6 c17 -3 109 -22 202
-41z m-35532 -514 c50 -32 84 -78 99 -138 9 -33 26 -61 51 -85 l37 -37 0 -351
c0 -291 -3 -357 -15 -380 -70 -136 -594 -286 -1255 -360 -102 -12 -196 -22
-210 -24 l-26 -3 1 424 c0 367 2 426 15 433 8 4 83 17 165 29 83 12 191 30
240 40 l90 18 -256 1 -255 1 0 220 1 220 260 1 c143 1 366 5 495 9 129 4 300
7 380 6 134 -1 148 -3 183 -24z m1592 -762 c92 -18 105 -30 105 -95 0 -42 4
-55 15 -55 24 0 110 -32 117 -44 4 -6 8 -57 8 -113 0 -95 -2 -104 -22 -117
-37 -24 -165 -45 -347 -57 -267 -19 -627 11 -698 57 -22 14 -23 21 -23 125 l0
110 33 14 c17 7 49 16 70 20 l37 7 0 58 c0 51 3 58 25 68 23 11 105 26 185 36
69 8 436 -2 495 -14z m-1165 -1522 l0 -413 48 -30 c58 -36 198 -174 240 -236
219 -324 252 -731 85 -1064 -127 -253 -352 -446 -607 -520 l-59 -17 7 -388 7
-387 -52 -22 c-28 -13 -67 -25 -86 -28 l-34 -6 7 344 c4 189 4 369 0 400 l-7
57 -72 10 c-120 18 -177 33 -177 46 0 7 37 27 83 44 192 73 395 231 532 415
l28 38 1 525 1 525 -50 47 c-73 70 -115 99 -218 147 -82 39 -131 56 -282 98
-22 6 -124 11 -231 11 l-191 1 -44 -30 c-123 -84 -269 -255 -342 -401 l-26
-51 -68 -6 c-37 -4 -107 -7 -154 -7 l-85 0 0 585 c1 535 2 585 17 585 100 0
1152 83 1449 115 118 12 230 23 248 24 l32 1 0 -412z m-1515 -1355 c10 -104
34 -209 65 -295 l29 -78 -162 0 -163 0 0 220 -1 220 113 0 112 0 7 -67z m210
-559 c106 -149 304 -290 488 -349 l68 -22 -113 -6 c-62 -4 -286 -7 -498 -7
l-386 0 1 213 0 212 55 6 c30 3 120 6 200 7 l145 2 40 -56z m575 -702 l0 -199
-172 -7 c-95 -4 -267 -16 -382 -26 -245 -23 -451 -27 -458 -7 -11 27 -2 411 9
414 9 3 564 16 896 21 l107 2 0 -198z m36956 -31 c50 -23 105 -70 156 -134 34
-44 38 -54 38 -109 l0 -60 -37 45 c-81 97 -158 140 -248 141 -270 0 -492 -447
-581 -1169 -11 -91 -19 -260 -24 -480 l-6 -340 -2 276 c-2 279 7 449 34 662
77 607 262 1060 478 1167 52 26 136 26 192 1z m-6 -289 c47 -22 117 -96 163
-173 l37 -64 0 -1281 0 -1281 -41 -64 c-56 -88 -105 -137 -164 -165 -94 -45
-166 -24 -256 73 -143 155 -261 500 -314 918 -15 123 -35 404 -34 485 l0 45
12 -35 c7 -19 16 -34 22 -33 25 5 24 122 -1 130 -6 2 -16 -11 -22 -29 -9 -26
-10 -4 -6 107 27 724 223 1307 464 1379 49 15 87 12 140 -12z m-35061 -347 c1
-107 -7 -124 -79 -160 -137 -69 -463 -129 -872 -160 -79 -6 -88 -5 -88 10 0
10 -7 23 -16 29 -15 12 -10 46 7 46 5 0 9 46 9 103 l0 103 128 12 c286 28 614
86 748 132 69 24 143 66 145 83 4 29 17 -117 18 -198z m34392 -1665 c15 -165
54 -384 95 -540 111 -424 289 -672 483 -672 87 0 148 31 226 113 l65 69 0 -44
c0 -37 -7 -54 -44 -103 -79 -103 -151 -147 -241 -147 -104 0 -187 59 -280 199
-61 91 -103 179 -145 300 -91 261 -163 636 -174 909 -5 110 -2 93 15 -84z
m-32644 -1097 c-3 -10 -5 -4 -5 12 0 17 2 24 5 18 2 -7 2 -21 0 -30z m22 -178
c12 -118 46 -364 57 -417 5 -27 4 -28 -40 -28 l-45 0 2 115 c1 63 -2 115 -6
115 -5 0 -5 5 -2 11 4 6 7 89 8 186 1 194 8 198 26 18z m31551 -2465 l1 -2415
969 -987 970 -988 0 -97 0 -98 -124 125 c-69 69 -534 543 -1035 1055 l-911
929 0 2510 0 2510 65 -64 65 -64 0 -2416z m-3792 2345 c488 -110 1260 -206
2235 -276 l167 -12 1 -46 c1 -72 1 -445 0 -683 l-2 -218 -42 5 c-23 3 -123 10
-222 15 -734 43 -1673 160 -2150 268 l-120 27 -3 473 c-2 395 0 472 12 472 7
0 63 -11 124 -25z m-10436 -2103 c4 -60 13 -106 30 -149 l25 -61 -335 -163
c-805 -389 -1248 -576 -1757 -742 -525 -171 -1167 -322 -1860 -438 -137 -22
-252 -43 -253 -44 -12 -11 426 -135 774 -221 1152 -283 2744 -486 5379 -689
340 -26 1448 -105 1473 -105 11 0 13 -12 8 -57 -3 -32 -8 -102 -12 -156 l-6
-99 -77 6 c-42 4 -269 20 -506 36 -2923 205 -4760 414 -6001 685 -573 125
-993 246 -1488 427 l-218 81 -307 -37 c-168 -20 -445 -52 -616 -70 l-310 -33
-65 24 c-92 35 -283 115 -402 170 l-101 47 339 33 c416 40 897 93 903 98 2 3
-18 14 -45 26 -94 42 -491 230 -761 362 -202 98 -272 136 -268 147 2 8 14 41
25 74 12 32 24 96 27 141 l6 82 321 -157 c522 -256 853 -408 1176 -542 l145
-60 230 32 c498 69 1085 174 1485 266 929 213 1626 477 2770 1046 140 69 258
127 261 127 3 1 8 -38 11 -87z m-7086 -1694 c54 -34 154 -92 222 -129 l123
-67 -48 -6 c-230 -29 -2568 -204 -2580 -193 -9 9 -23 241 -15 248 4 4 97 21
207 38 144 22 341 41 700 67 438 31 1287 99 1291 103 1 0 46 -27 100 -61z
m-15048 -515 c-10 -2 -26 -2 -35 0 -10 3 -2 5 17 5 19 0 27 -2 18 -5z m90 -10
c-10 -2 -28 -2 -40 0 -13 2 -5 4 17 4 22 1 32 -1 23 -4z m83 -15 c-23 -6 -37
-6 -44 1 -8 8 2 11 34 10 l44 -1 -34 -10z m1547 -185 c-10 -2 -26 -2 -35 0
-10 3 -2 5 17 5 19 0 27 -2 18 -5z m970 -111 c-23 -7 -61 -13 -83 -13 -36 -1
-418 78 -387 80 7 1 11 10 8 24 l-4 23 255 -50 c254 -51 255 -51 211 -64z
m1530 84 c2 -10 0 -22 -5 -27 -20 -20 -533 -105 -777 -130 -144 -14 -521 -6
-616 13 l-65 14 67 17 c59 15 83 16 195 6 139 -12 293 -7 503 17 139 16 499
74 605 98 74 17 89 16 93 -8z m22260 -836 c10 -30 22 -62 26 -71 5 -12 -47
-42 -266 -149 -1011 -494 -1548 -708 -2288 -914 -1268 -352 -3246 -595 -6766
-832 l-102 -6 -6 108 c-4 60 -9 126 -11 147 -3 20 -4 37 -2 37 23 0 1246 89
1582 115 2841 222 4397 450 5567 816 569 178 1060 384 1939 814 l294 144 7
-78 c3 -42 15 -101 26 -131z m11083 -507 c13 -16 12 -17 -3 -4 -17 13 -22 21
-14 21 2 0 10 -8 17 -17z m94 -88 c19 -19 35 -39 35 -46 0 -6 7 -9 14 -6 9 4
17 -2 21 -14 4 -10 10 -19 14 -19 4 0 18 -10 31 -22 14 -13 28 -22 32 -21 4 2
10 -6 13 -17 4 -11 10 -20 15 -20 5 0 27 -18 49 -40 22 -22 44 -40 48 -40 5 0
32 -25 61 -55 30 -30 58 -52 64 -49 6 4 9 3 6 -2 -4 -5 16 -29 44 -54 27 -25
73 -66 101 -92 29 -27 58 -48 65 -48 7 0 11 -4 8 -9 -3 -5 1 -11 9 -15 11 -4
15 -20 15 -57 l0 -52 -327 333 c-181 183 -330 338 -332 344 -2 6 -11 16 -20
23 -9 7 -12 13 -8 13 4 0 23 -16 42 -35z"/>
<path d="M34329 63050 c-80 -42 -137 -141 -159 -272 -6 -41 -10 -580 -10
-1528 0 -1593 -3 -1508 56 -1628 32 -64 95 -132 151 -160 21 -11 353 -117 738
-237 696 -216 701 -217 810 -222 120 -6 172 3 225 39 72 49 38 59 -55 17 -55
-26 -197 -25 -296 0 -171 44 -1377 424 -1415 446 -78 46 -141 139 -163 243
-14 67 -16 2954 -2 3028 16 84 50 161 89 201 32 32 78 94 70 93 -2 -1 -19 -10
-39 -20z"/>
<path d="M34728 62860 c-15 -4 -41 -18 -58 -30 -60 -43 -60 -40 -60 -487 0
-435 1 -438 50 -474 24 -18 297 -107 389 -128 47 -10 136 6 193 35 60 31 59
19 56 515 -3 496 -2 482 -63 514 -33 17 -362 66 -435 64 -25 0 -57 -4 -72 -9z
m170 -99 c164 -23 196 -31 215 -50 22 -21 22 -24 25 -454 1 -237 0 -442 -3
-454 -9 -36 -67 -29 -264 32 -135 42 -181 61 -198 80 l-23 26 0 405 c0 391 1
405 20 424 11 11 23 20 28 20 4 -1 94 -13 200 -29z"/>
<path d="M35489 62687 c-31 -16 -51 -36 -66 -67 -23 -44 -23 -50 -23 -432 0
-412 2 -430 48 -472 27 -24 384 -136 433 -136 60 0 165 37 188 67 20 25 21 37
21 477 0 338 -3 457 -13 475 -25 49 -54 60 -235 86 -222 32 -294 32 -353 2z
m201 -83 c190 -26 226 -38 235 -77 3 -12 4 -220 3 -462 l-3 -440 -36 -3 c-30
-3 -294 71 -392 110 -56 22 -57 31 -57 453 0 383 3 416 34 437 15 10 8 11 216
-18z"/>
<path d="M34723 61709 c-44 -13 -101 -71 -108 -111 -3 -18 -5 -214 -3 -435 l3
-403 30 -29 c24 -24 68 -41 228 -90 109 -34 205 -61 214 -61 43 0 159 44 185
71 l29 28 -3 458 c-3 495 -2 483 -58 516 -28 17 -367 68 -440 66 -25 0 -60 -5
-77 -10z m196 -105 c142 -19 180 -28 196 -44 19 -20 20 -33 20 -473 l0 -452
-26 -9 c-21 -7 -65 3 -215 49 -104 32 -197 63 -206 69 -36 21 -38 51 -38 456
0 392 0 400 21 421 15 15 28 19 46 14 15 -3 105 -17 202 -31z"/>
<path d="M35516 61550 c-37 -12 -85 -56 -102 -97 -11 -26 -14 -114 -14 -424 0
-421 2 -438 53 -472 39 -25 383 -127 429 -127 61 0 141 25 178 56 l30 26 0
456 c0 343 -3 463 -13 481 -25 49 -54 59 -246 86 -191 26 -265 29 -315 15z
m184 -100 c171 -23 217 -38 225 -72 3 -13 4 -221 3 -463 l-3 -440 -37 -3 c-24
-2 -103 17 -224 54 -170 53 -189 61 -206 89 -17 28 -18 54 -16 426 3 379 4
398 23 419 15 16 27 20 50 16 16 -3 100 -15 185 -26z"/>
<path d="M34736 60556 c-31 -9 -61 -27 -85 -50 l-36 -36 -3 -418 c-4 -463 -4
-463 62 -496 44 -23 382 -126 413 -126 56 0 161 40 187 71 l26 31 0 439 c0
478 -1 490 -56 525 -18 12 -89 27 -223 46 -224 31 -220 31 -285 14z m322 -121
c34 -5 47 -13 63 -38 18 -30 19 -54 19 -467 0 -326 -3 -439 -12 -448 -20 -20
-57 -14 -253 48 -134 42 -195 65 -207 81 -17 19 -18 55 -18 426 l0 404 23 23
22 22 160 -22 c88 -13 179 -26 203 -29z"/>
<path d="M35516 60395 c-51 -18 -94 -60 -106 -104 -6 -21 -10 -198 -10 -419 0
-412 2 -433 52 -466 21 -14 293 -102 393 -127 65 -16 193 23 232 71 9 11 12
128 13 470 0 428 -1 457 -19 486 -10 17 -32 36 -47 42 -36 14 -371 62 -428 62
-22 -1 -58 -7 -80 -15z m179 -95 c187 -25 191 -26 215 -50 19 -19 20 -35 20
-470 l0 -450 -27 -11 c-23 -8 -59 0 -222 50 -120 37 -203 68 -216 81 -19 20
-20 31 -20 429 0 393 1 410 20 431 15 16 27 20 50 16 16 -3 98 -15 180 -26z"/>
<path d="M33556 47547 c-153 -157 -242 -424 -253 -762 l-6 -160 35 38 35 37
166 0 c162 0 166 -1 195 -25 111 -94 123 -492 17 -630 l-26 -35 -175 0 c-101
0 -183 4 -194 10 -11 6 -26 23 -34 38 -14 24 -15 -21 -16 -428 0 -452 0 -455
19 -424 11 18 25 35 32 40 7 4 91 6 188 5 194 -3 197 -3 231 -71 32 -65 45
-142 45 -275 0 -149 -25 -253 -73 -305 l-27 -30 -177 -1 c-97 -1 -181 2 -188
6 -6 4 -20 21 -31 39 -19 31 -19 29 -19 -424 0 -453 0 -455 19 -424 11 18 24
35 31 39 6 4 90 6 187 5 152 -1 180 -3 196 -18 113 -102 115 -536 4 -640 -20
-19 -37 -21 -197 -23 -97 -2 -181 1 -189 5 -7 5 -21 22 -32 40 -19 31 -19 29
-19 -424 0 -425 1 -453 16 -430 33 49 38 50 222 50 l174 0 29 -31 c50 -53 74
-152 74 -304 0 -173 -28 -279 -87 -335 -20 -18 -35 -20 -191 -20 l-169 0 -34
34 -34 34 0 -446 c0 -418 1 -445 16 -422 33 49 38 50 221 50 172 0 174 0 199
-25 71 -71 104 -291 70 -468 -16 -84 -56 -171 -85 -187 -11 -6 -91 -10 -189
-10 l-170 0 -31 35 -31 36 0 -446 0 -446 31 36 31 35 164 0 c103 0 172 -4 189
-12 38 -17 82 -116 96 -217 23 -166 -10 -365 -72 -432 l-27 -29 -174 0 c-183
0 -189 1 -220 48 -14 21 -16 7 -23 -171 -10 -268 11 -394 93 -552 43 -84 153
-197 229 -238 l52 -28 46 42 c97 89 158 220 190 403 13 78 15 574 15 4335 0
3724 -2 4258 -15 4346 -39 260 -122 451 -248 574 l-46 44 -55 -56z"/>
<path d="M4145 39850 c-8 -16 -24 -34 -34 -40 -11 -6 -89 -10 -180 -10 l-161
0 2 -397 3 -398 161 0 c175 -1 180 -2 216 -60 18 -29 18 -20 18 453 0 265 -2
482 -5 482 -2 0 -11 -13 -20 -30z"/>
<path d="M4141 38327 c-12 -19 -28 -38 -37 -41 -9 -3 -85 -6 -170 -6 l-154 0
0 -203 c0 -112 3 -332 7 -490 l6 -286 37 19 c112 57 226 192 279 329 52 135
63 220 62 475 -1 126 -3 231 -5 233 -2 2 -13 -11 -25 -30z"/>
<path d="M37886 44393 c-57 -55 -121 -151 -159 -239 -61 -139 -107 -391 -107
-585 l0 -100 35 37 c32 33 38 36 72 30 21 -3 100 -6 175 -6 137 0 137 0 163
-27 45 -49 69 -151 70 -293 0 -69 -3 -144 -8 -167 l-7 -43 59 0 60 0 3 283 c4
338 -5 504 -32 633 -43 207 -110 352 -214 461 l-61 65 -49 -49z"/>
<path d="M1992 42852 c-7 -5 -14 -18 -17 -30 -3 -17 2 -23 20 -28 13 -3 29 -3
34 1 17 10 13 52 -5 59 -19 7 -16 7 -32 -2z"/>
<path d="M2187 42324 c-12 -12 -8 -41 7 -53 22 -18 58 4 54 32 -3 22 -45 36
-61 21z"/>
<path d="M1957 41759 c-39 -22 -4 -79 35 -58 10 5 18 18 18 29 0 25 -30 41
-53 29z"/>
<path d="M38097 40593 c-11 -10 -8 -106 3 -123 15 -23 30 5 30 57 0 60 -13 87
-33 66z"/>
<path d="M37766 40221 c-12 -19 -9 -112 4 -125 16 -16 30 11 30 60 0 44 -22
86 -34 65z"/>
<path d="M38101 39905 c-1 -132 -6 -385 -11 -563 -9 -324 -6 -372 24 -372 9 0
53 -98 128 -284 62 -156 114 -283 116 -281 2 2 -44 148 -102 326 -67 204 -106
338 -106 365 0 24 -5 55 -11 71 -8 18 -16 196 -24 503 -11 423 -12 448 -14
235z"/>
<path d="M37736 38234 c-9 -23 -7 -97 3 -113 16 -25 31 -1 31 49 0 51 -7 80
-20 80 -4 0 -11 -7 -14 -16z"/>
<path d="M38097 37793 c-9 -8 -9 -96 -1 -117 11 -30 34 3 34 49 0 62 -13 89
-33 68z"/>
</g>
</svg>
