<?xml version="1.0" encoding="UTF-8"?>
<svg version="1.1" xmlns="http://www.w3.org/2000/svg" width="1125" height="597">
<path d="M0 0 C371.25 0 742.5 0 1125 0 C1125 197.01 1125 394.02 1125 597 C753.75 597 382.5 597 0 597 C0 399.99 0 202.98 0 0 Z " fill="#1B1F20" transform="translate(0,0)"/>
<path d="M0 0 C49.83 0 99.66 0 151 0 C151 44.22 151 88.44 151 134 C101.17 134 51.34 134 0 134 C0 89.78 0 45.56 0 0 Z " fill="#53442F" transform="translate(0,463)"/>
<path d="M0 0 C43.89 0 87.78 0 133 0 C133 44.22 133 88.44 133 134 C89.11 134 45.22 134 0 134 C0 89.78 0 45.56 0 0 Z " fill="#3E352A" transform="translate(992,463)"/>
<path d="M0 0 C49.83 0 99.66 0 151 0 C151 44.22 151 88.44 151 134 C146.38 134 141.76 134 137 134 C137 94.07 137 54.14 137 13 C108.95 13 80.9 13 52 13 C52 52.93 52 92.86 52 134 C34.84 134 17.68 134 0 134 C0 89.78 0 45.56 0 0 Z " fill="#534430" transform="translate(0,463)"/>
<path d="M0 0 C26.4 0 52.8 0 80 0 C80 18.81 80 37.62 80 57 C78.35 57.66 76.7 58.32 75 59 C73.02340511 60.64088968 73.02340511 60.64088968 71.2578125 62.6328125 C70.24654297 63.71949219 70.24654297 63.71949219 69.21484375 64.828125 C68.52519531 65.58609375 67.83554688 66.3440625 67.125 67.125 C66.44308594 67.85976562 65.76117188 68.59453125 65.05859375 69.3515625 C61.18687274 73.5403959 57.40900619 77.80358274 53.66552734 82.10693359 C50.58101764 85.61283922 47.37965716 89.01034098 44.1875 92.41796875 C39.9548111 96.96701842 36.95612503 100.37751966 35.26074219 106.39916992 C33.52172686 112.31251058 31.65231078 118.16643578 29.70019531 124.01293945 C29.2424151 125.38684987 29.2424151 125.38684987 28.77538681 126.78851604 C27.79424226 129.73053197 26.81120645 132.67191204 25.828125 135.61328125 C25.13868245 137.67974016 24.44937399 139.74624381 23.76019287 141.81278992 C21.95976827 147.21027438 20.15754157 152.60715538 18.35491943 158.00390625 C16.51024877 163.52762649 14.66730997 169.05192447 12.82421875 174.57617188 C9.21782608 185.38467587 5.60952644 196.19254217 2 207 C1.34 207 0.68 207 0 207 C0 138.69 0 70.38 0 0 Z " fill="#0A0D13" transform="translate(0,0)"/>
<path d="M0 0 C23.1 0 46.2 0 70 0 C70 59.07 70 118.14 70 179 C68.24010505 176.36015757 67.39028059 174.51581112 66.43115234 171.55810547 C65.98912979 170.20668961 65.98912979 170.20668961 65.53817749 168.82797241 C65.22393829 167.85091339 64.9096991 166.87385437 64.5859375 165.8671875 C64.25550446 164.85073151 63.92507141 163.83427551 63.58462524 162.78701782 C62.87792715 160.61131192 62.17318779 158.434969 61.47021484 156.25805664 C60.37304776 152.86896965 59.26410924 149.48393281 58.15234375 146.09960938 C52.05314527 127.47785788 52.05314527 127.47785788 49.7265625 118.7890625 C45.96672107 104.90192276 40.60428114 96.52364339 29.92504883 86.82543945 C27.3130004 84.34854838 24.99726662 81.66349546 22.65893555 78.93041992 C20.16335908 76.026443 17.5490938 73.23683298 14.9375 70.4375 C11.68212052 66.94096258 8.47837986 63.43706683 5.4375 59.75 C3.23143779 56.79926371 3.23143779 56.79926371 0 56 C0 37.52 0 19.04 0 0 Z " fill="#0A0D13" transform="translate(1055,0)"/>
<path d="M0 0 C41.25 0 82.5 0 125 0 C125 17.49 125 34.98 125 53 C83.75 53 42.5 53 0 53 C0 35.51 0 18.02 0 0 Z " fill="#382F25" transform="translate(1000,544)"/>
<path d="M0 0 C49.83 0 99.66 0 151 0 C151 44.22 151 88.44 151 134 C146.38 134 141.76 134 137 134 C137 94.07 137 54.14 137 13 C108.95 13 80.9 13 52 13 C52 52.93 52 92.86 52 134 C48.7 134 45.4 134 42 134 C42 94.07 42 54.14 42 13 C28.14 13 14.28 13 0 13 C0 8.71 0 4.42 0 0 Z " fill="#6F543C" transform="translate(0,463)"/>
<path d="M0 0 C43.89 0 87.78 0 133 0 C133 2.64 133 5.28 133 8 C91.75 8 50.5 8 8 8 C8 29.12 8 50.24 8 72 C49.25 72 90.5 72 133 72 C133 74.97 133 77.94 133 81 C91.75 81 50.5 81 8 81 C8 98.49 8 115.98 8 134 C5.36 134 2.72 134 0 134 C0 89.78 0 45.56 0 0 Z " fill="#544632" transform="translate(992,463)"/>
<path d="M0 0 C1.32 0 2.64 0 4 0 C4 18.81 4 37.62 4 57 C5.65 57.33 7.3 57.66 9 58 C10.92746167 59.77268066 12.56419628 61.46062226 14.25 63.4375 C14.72888672 63.97955078 15.20777344 64.52160156 15.70117188 65.08007812 C16.67968573 66.1885407 17.65367872 67.30101102 18.62304688 68.41748047 C20.55418843 70.63692366 22.52706409 72.81770578 24.5 75 C25.21671875 75.79921875 25.9334375 76.5984375 26.671875 77.421875 C28.38214974 79.3158034 30.09974229 81.2008641 31.828125 83.078125 C32.31345703 83.60535156 32.79878906 84.13257812 33.29882812 84.67578125 C34.67188157 86.1652578 36.04682182 87.65299437 37.421875 89.140625 C45 97.54545455 45 97.54545455 45 100 C46.485 100.495 46.485 100.495 48 101 C48 101.99 48 102.98 48 104 C21.41561115 115.69713109 -15.21095258 110.44512931 -43 106 C-43.33 106 -43.66 106 -44 106 C-44.34137702 102.82687258 -44.28029598 101.39933526 -42.41796875 98.74609375 C-41.68191406 97.98425781 -40.94585937 97.22242187 -40.1875 96.4375 C-39.36636719 95.56996094 -38.54523437 94.70242187 -37.69921875 93.80859375 C-36.80847656 92.88175781 -35.91773438 91.95492187 -35 91 C-33.15563492 89.01004456 -31.32850905 87.00451871 -29.5 85 C-28.56267234 83.97900842 -27.62517364 82.95817385 -26.6875 81.9375 C-24.27782859 79.30367311 -21.88429419 76.65678495 -19.5 74 C-18.78457031 73.20851563 -18.06914063 72.41703125 -17.33203125 71.6015625 C-15.58340328 69.6508318 -13.85572415 67.68742263 -12.13671875 65.7109375 C-11.15386685 64.59876298 -10.17079694 63.48678107 -9.1875 62.375 C-8.73117188 61.84132812 -8.27484375 61.30765625 -7.8046875 60.7578125 C-6.48046875 59.2734375 -6.48046875 59.2734375 -4 57 C-2.68 57 -1.36 57 0 57 C0 38.19 0 19.38 0 0 Z " fill="#273136" transform="translate(80,0)"/>
<path d="M0 0 C1.32 0 2.64 0 4 0 C4 18.48 4 36.96 4 56 C5.32 56.33 6.64 56.66 8 57 C9.62817383 58.36352539 9.62817383 58.36352539 11.20703125 60.09765625 C11.78984863 60.73010254 12.37266602 61.36254883 12.97314453 62.01416016 C13.58013184 62.6901123 14.18711914 63.36606445 14.8125 64.0625 C15.44269043 64.75134277 16.07288086 65.44018555 16.72216797 66.14990234 C20.25617852 70.0247612 23.74385524 73.93828857 27.1640625 77.9140625 C29.7249369 80.82365171 32.36469632 83.65789539 35 86.5 C36.53530605 88.16169813 38.06973162 89.82420164 39.60351562 91.48730469 C40.84271949 92.82963111 42.08518697 94.16894301 43.328125 95.5078125 C43.96234375 96.20648438 44.5965625 96.90515625 45.25 97.625 C45.79140625 98.21539062 46.3328125 98.80578125 46.890625 99.4140625 C48 101 48 101 48 104 C22.23411865 115.33698779 -17.28994987 112.17789461 -44 105 C-43.57749089 100.1675521 -41.25958207 97.64189909 -38 94.3125 C-36.98911018 93.24654226 -35.97869982 92.18012965 -34.96875 91.11328125 C-34.46472656 90.58686035 -33.96070313 90.06043945 -33.44140625 89.51806641 C-31.41607424 87.38501857 -29.45758276 85.19518792 -27.5 83 C-23.70946789 78.77548926 -19.88511436 74.58352365 -16.03100586 70.41699219 C-12.47739811 66.5640606 -9.07934338 62.59773146 -5.75390625 58.546875 C-4 57 -4 57 0 57 C0 38.19 0 19.38 0 0 Z " fill="#263137" transform="translate(1051,0)"/>
<path d="M0 0 C49.83 0 99.66 0 151 0 C151 44.22 151 88.44 151 134 C148.03 134 145.06 134 142 134 C142 92.09 142 50.18 142 7 C95.14 7 48.28 7 0 7 C0 4.69 0 2.38 0 0 Z " fill="#554733" transform="translate(0,463)"/>
<path d="M0 0 C3.29094672 0.00315807 6.58098995 -0.02037227 9.87182617 -0.0456543 C41.31150027 -0.13990802 41.31150027 -0.13990802 49.49487305 5.31567383 C49.49487305 6.30567383 49.49487305 7.29567383 49.49487305 8.31567383 C22.9104842 20.01280492 -13.71607954 14.76080314 -41.50512695 10.31567383 C-41.83512695 10.31567383 -42.16512695 10.31567383 -42.50512695 10.31567383 C-42.50512695 8.66567383 -42.50512695 7.01567383 -42.50512695 5.31567383 C-29.96683199 -1.55341738 -13.88847143 -0.02780784 0 0 Z " fill="#969486" transform="translate(78.505126953125,95.684326171875)"/>
<path d="M0 0 C1.03030838 -0.00570007 2.06061676 -0.01140015 3.12214661 -0.01727295 C5.28592935 -0.02664356 7.44972585 -0.03322493 9.61352539 -0.03710938 C12.86956474 -0.04680069 16.12496775 -0.07789572 19.38085938 -0.109375 C49.29031338 -0.26091479 49.29031338 -0.26091479 58.70703125 5.203125 C58.70703125 6.193125 58.70703125 7.183125 58.70703125 8.203125 C32.9411499 19.54011279 -6.58291862 16.38101961 -33.29296875 9.203125 C-32.96296875 7.553125 -32.63296875 5.903125 -32.29296875 4.203125 C-21.88897812 0.02576513 -11.07753629 0.04921665 0 0 Z " fill="#959486" transform="translate(1040.29296875,95.796875)"/>
<path d="M0 0 C1.11181641 0.12955078 1.11181641 0.12955078 2.24609375 0.26171875 C1.33021451 12.60198645 0.27940904 24.93082295 -0.75390625 37.26171875 C7.16609375 37.26171875 15.08609375 37.26171875 23.24609375 37.26171875 C23.24609375 37.59171875 23.24609375 37.92171875 23.24609375 38.26171875 C21.36458618 38.29144775 21.36458618 38.29144775 19.44506836 38.32177734 C14.72027988 38.39876674 9.9957627 38.48732675 5.27124023 38.57910156 C3.23971983 38.61701085 1.20814093 38.65192431 -0.82348633 38.68359375 C-20.46576989 38.85710466 -20.46576989 38.85710466 -39.75390625 42.26171875 C-38.41391127 39.25490075 -36.95545334 37.26409266 -34.56640625 35.01171875 C-32.11792369 32.63347954 -29.79319572 30.22372416 -27.56640625 27.63671875 C-23.91394092 23.40150052 -20.12927548 19.29747768 -16.31347656 15.2097168 C-13.86982381 12.58543623 -11.46311781 9.9489696 -9.15625 7.203125 C-8.38410156 6.29433594 -7.61195312 5.38554688 -6.81640625 4.44921875 C-5.81287109 3.23298828 -5.81287109 3.23298828 -4.7890625 1.9921875 C-2.75390625 0.26171875 -2.75390625 0.26171875 0 0 Z " fill="#2A373D" transform="translate(77.75390625,57.73828125)"/>
<path d="M0 0 C1.32 0 2.64 0 4 0 C4 18.48 4 36.96 4 56 C4.99 56.33 5.98 56.66 7 57 C6.27627197 57.10997314 5.55254395 57.21994629 4.80688477 57.33325195 C-1.07215002 58.49658675 -1.07215002 58.49658675 -5.87158203 61.86474609 C-7.43838367 64.24319555 -8.77022932 66.6495078 -10.0625 69.1875 C-11.05825484 70.9904906 -12.05567751 72.79256099 -13.0546875 74.59375 C-13.54163086 75.49738281 -14.02857422 76.40101562 -14.53027344 77.33203125 C-16.76149645 81.3823311 -19.21246392 85.28308436 -21.6875 89.1875 C-22.10974854 89.86385498 -22.53199707 90.54020996 -22.96704102 91.23706055 C-26.50071894 96.8816519 -26.50071894 96.8816519 -29.109375 97.5 C-29.98078125 97.665 -30.8521875 97.83 -31.75 98 C-32.61109375 98.165 -33.4721875 98.33 -34.359375 98.5 C-35.23078125 98.665 -36.1021875 98.83 -37 99 C-38.66701996 99.33156198 -40.33379597 99.66436178 -42 100 C-39.36898862 95.68514134 -36.45680631 92.34204832 -32.8359375 88.828125 C-31.0716928 87.07138772 -29.43693675 85.26093145 -27.8125 83.375 C-24.13932247 79.11444498 -20.3273359 74.99134733 -16.49145508 70.87768555 C-12.76182958 66.86726607 -9.18886048 62.75042826 -5.71875 58.51171875 C-4 57 -4 57 0 57 C0 38.19 0 19.38 0 0 Z " fill="#272E33" transform="translate(1051,0)"/>
<path d="M0 0 C0.99 0 1.98 0 3 0 C3.16303307 7.92295423 2.65117633 15.73168697 2 23.625 C1.85691406 25.41744141 1.85691406 25.41744141 1.7109375 27.24609375 C1.47747731 30.16434615 1.23923273 33.08221515 1 36 C8.92 36 16.84 36 25 36 C25 36.33 25 36.66 25 37 C9.16 37.33 -6.68 37.66 -23 38 C-18.1468585 29.50700238 -13.30125311 21.09818477 -8.125 12.8125 C-7.27421875 11.44254883 -7.27421875 11.44254883 -6.40625 10.04492188 C-4.30684597 6.66945829 -2.20512661 3.30768992 0 0 Z " fill="#2B373D" transform="translate(1047,59)"/>
<path d="M0 0 C0.495 0.99 0.495 0.99 1 2 C-0.30078125 4.6953125 -0.30078125 4.6953125 -2.3125 8.125 C-2.84967651 9.04357788 -2.84967651 9.04357788 -3.39770508 9.98071289 C-6.26069068 14.84013338 -9.21100546 19.6469489 -12.1875 24.4375 C-12.59073486 25.0867041 -12.99396973 25.7359082 -13.40942383 26.40478516 C-14.19900985 27.66161141 -14.99882801 28.91207435 -15.80932617 30.15551758 C-16.61567187 31.4046342 -17.39135999 32.67398555 -18.13793945 33.9597168 C-20.26282993 37.38224356 -21.78452184 39.30691271 -25.76953125 40.33984375 C-27.1124015 40.56911428 -28.46077811 40.7680497 -29.8125 40.9375 C-30.50537109 41.04900391 -31.19824219 41.16050781 -31.91210938 41.27539062 C-33.60403357 41.54376481 -35.3016719 41.77569251 -37 42 C-35.66000502 38.993182 -34.20154709 37.00237391 -31.8125 34.75 C-29.36401744 32.37176079 -27.03928947 29.96200541 -24.8125 27.375 C-21.65917696 23.7185625 -18.40730712 20.16512564 -15.125 16.625 C-10.03089394 11.12925404 -4.99419676 5.58694234 0 0 Z " fill="#222C31" transform="translate(75,58)"/>
<path d="M0 0 C0 0.66 0 1.32 0 2 C13.14456002 6.45642498 25.85167109 6.55526542 39.61914062 6.41162109 C43.2567946 6.37493147 46.89342938 6.37060427 50.53125 6.37109375 C52.880217 6.36126552 55.22917723 6.34960981 57.578125 6.3359375 C58.64718079 6.33371185 59.71623657 6.33148621 60.81768799 6.32919312 C67.13996306 6.25076358 73.11335089 5.62731676 79.32342529 4.4256897 C81.93332939 4.01060347 84.36268081 3.92508253 87 4 C83.51022204 7.21167226 79.85789551 7.91542582 75.3125 8.625 C74.53285889 8.74907227 73.75321777 8.87314453 72.94995117 9.00097656 C47.34285584 12.73342657 21.42674748 11.06725639 -4 7 C-4.33 7 -4.66 7 -5 7 C-5.1875 4.625 -5.1875 4.625 -5 2 C-2 0 -2 0 0 0 Z " fill="#847F6D" transform="translate(41,99)"/>
<path d="M0 0 C4.15336015 0.58522877 7.76114211 1.61937085 11.6953125 3.0390625 C22.01725705 6.03348327 32.58518876 5.52286316 43.24853516 5.41162109 C46.85998988 5.37515158 50.47041145 5.37060271 54.08203125 5.37109375 C72.15787562 5.53155693 72.15787562 5.53155693 90 3 C90.33 2.34 90.66 1.68 91 1 C91 1.99 91 2.98 91 4 C65.23411865 15.33698779 25.71005013 12.17789461 -1 5 C-0.67 3.35 -0.34 1.7 0 0 Z " fill="#847F6D" transform="translate(1008,100)"/>
<path d="M0 0 C0.33 0 0.66 0 1 0 C1.16303307 7.92295423 0.65117633 15.73168697 0 23.625 C-0.14308594 25.41744141 -0.14308594 25.41744141 -0.2890625 27.24609375 C-0.52252269 30.16434615 -0.76076727 33.08221515 -1 36 C6.92 36 14.84 36 23 36 C23 36.33 23 36.66 23 37 C12.44 37 1.88 37 -9 37 C-8.34156247 31.07406227 -7.7727132 26.52592601 -6.15234375 20.99609375 C-5.79462891 19.76181641 -5.43691406 18.52753906 -5.06835938 17.25585938 C-4.69517578 15.99580078 -4.32199219 14.73574219 -3.9375 13.4375 C-3.55595974 12.12975575 -3.17509512 10.82181418 -2.79492188 9.51367188 C-1.86988661 6.34044964 -0.93809591 3.16938079 0 0 Z " fill="#545D5F" transform="translate(1049,59)"/>
<path d="M0 0 C0.33 0 0.66 0 1 0 C1.13425026 8.31232831 0.75553563 16.47408655 0 24.75 C-0.33 28.4625 -0.66 32.175 -1 36 C6.92 36 14.84 36 23 36 C23 36.33 23 36.66 23 37 C12.44 37 1.88 37 -9 37 C-8.31871121 31.54968969 -7.60893754 27.05400013 -6.15234375 21.875 C-5.88811363 20.92645142 -5.88811363 20.92645142 -5.61854553 19.95874023 C-5.0635216 17.97095504 -4.50067539 15.98548922 -3.9375 14 C-3.55611709 12.63946956 -3.17525327 11.27879351 -2.79492188 9.91796875 C-1.86926328 6.6102779 -0.93658374 3.30461624 0 0 Z " fill="#545D60" transform="translate(78,59)"/>
<path d="M0 0 C0.33 0.99 0.66 1.98 1 3 C-5.93805182 6.12892533 -12.43781278 6.66569599 -20 7 C-20 6.34 -20 5.68 -20 5 C-17.41747107 4.49550598 -14.83411297 3.99625699 -12.25 3.5 C-11.52039062 3.35691406 -10.79078125 3.21382813 -10.0390625 3.06640625 C-6.60656468 2.41111121 -3.50830509 2 0 2 C0 1.34 0 0.68 0 0 Z " fill="#807B6A" transform="translate(1098,101)"/>
<path d="M0 0 C-2.92459337 2.46530388 -5.18209855 3.51048618 -8.9375 4.1875 C-9.77152344 4.34605469 -10.60554688 4.50460938 -11.46484375 4.66796875 C-14.00815129 5.00106758 -16.43817447 5.05957734 -19 5 C-17 2 -17 2 -14.35546875 1.26953125 C-13.31003906 1.11871094 -12.26460938 0.96789062 -11.1875 0.8125 C-9.63095703 0.57466797 -9.63095703 0.57466797 -8.04296875 0.33203125 C-5.32772687 0.03575967 -2.72756902 -0.06554232 0 0 Z " fill="#847F6D" transform="translate(128,103)"/>
<path d="M0 0 C2.97 0.33 5.94 0.66 9 1 C9 1.33 9 1.66 9 2 C5.37 2.33 1.74 2.66 -2 3 C-1.34 2.01 -0.68 1.02 0 0 Z " fill="#7D7968" transform="translate(111,105)"/>
</svg>
